<?xml version="1.0" standalone="no"?>
<!DOCTYPE svg PUBLIC "-//W3C//DTD SVG 1.1//EN" "http://www.w3.org/Graphics/SVG/1.1/DTD/svg11.dtd" >
<svg>
<metadata>
Created by FontForge 20110222 at Sun Apr  7 15:18:43 2013
 By www-data
Copyright (c) Mark Simonson, 2005. All rights reserved.
</metadata>
<defs>
<font id="ProximaNova-Semibold" horiz-adv-x="567" >
  <font-face 
    font-family="Proxima Nova Lt"
    font-weight="600"
    font-stretch="normal"
    units-per-em="1000"
    panose-1="2 0 5 6 3 0 0 2 0 4"
    ascent="790"
    descent="-210"
    x-height="483"
    cap-height="667"
    bbox="-172 -281 1119 908"
    underline-thickness="20"
    underline-position="-113"
    unicode-range="U+000D-FB04"
  />
<missing-glyph horiz-adv-x="493" 
d="M71 -90v842h351v-842h-351zM390 722h-288v-782h288v782z" />
    <glyph glyph-name="f_b" unicode="fb" horiz-adv-x="889" 
d="M93 0v391h-80v92h80v27q0 81 43 124t110 43q51 0 84 -19l-23 -78q-16 11 -42 11q-31 0 -49 -20t-18 -61v-27h98v-92h-98v-391h-105zM481 145q17 -27 52 -45.5t72 -18.5q31 0 56.5 12t43.5 33t27.5 50.5t9.5 64.5t-9.5 64.5t-27.5 51t-43.5 33.5t-56.5 12
q-18 0 -36.5 -5.5t-35 -14.5t-30 -21t-22.5 -25v-191zM376 0v667h105v-251q29 38 69 58.5t86 20.5t85.5 -18t68 -51t44.5 -80t16 -105q0 -60 -16 -107t-44.5 -79.5t-68 -49.5t-85.5 -17q-48 0 -87.5 21t-67.5 57v-66h-105z" />
    <glyph glyph-name="f_f" unicode="ff" horiz-adv-x="617" 
d="M93 0v391h-80v92h80v27q0 79 42 123t111 44q32 0 62.5 -9.5t53.5 -32.5l-41 -65q-11 10 -24.5 15.5t-31.5 5.5q-31 0 -49 -20t-18 -61v-27h98v-92h-98v-391h-105zM401 0v391h-80v92h80v27q0 79 42 123t111 44q32 0 62.5 -9.5t53.5 -32.5l-41 -65q-11 10 -24.5 15.5
t-31.5 5.5q-31 0 -49 -20t-18 -61v-27h98v-92h-98v-391h-105z" />
    <glyph glyph-name="f_h" unicode="fh" horiz-adv-x="876" 
d="M93 0v391h-80v92h80v27q0 81 43 124t110 43q51 0 84 -19l-23 -78q-16 11 -42 11q-31 0 -49 -20t-18 -61v-27h98v-92h-98v-391h-105zM703 0v304q0 56 -27 77t-71 21q-40 0 -72.5 -20t-51.5 -45v-337h-105v667h105v-250q12 14 29.5 28t39.5 25t47.5 18t54.5 7q78 0 117 -39
t39 -114v-342h-105z" />
    <glyph glyph-name="fi" unicode="fi" horiz-adv-x="549" 
d="M93 0v391h-80v92h80v27q0 81 43 124t110 43q51 0 84 -19l-23 -78q-16 11 -42 11q-31 0 -49 -20t-18 -61v-27h98v-92h-98v-391h-105zM428 542q-26 0 -45.5 19t-19.5 46t19.5 46t45.5 19q27 0 46 -19t19 -46t-19 -46t-46 -19zM376 0v483h105v-483h-105z" />
    <glyph glyph-name="f_j" unicode="fj" horiz-adv-x="549" 
d="M93 0v391h-80v92h80v27q0 81 43 124t110 43q51 0 84 -19l-23 -78q-16 11 -42 11q-31 0 -49 -20t-18 -61v-27h98v-92h-98v-391h-105zM428 542q-26 0 -45.5 19t-19.5 46t19.5 46t45.5 19q27 0 46 -19t19 -46t-19 -46t-46 -19zM321 -196q-42 0 -65.5 8.5t-48.5 26.5l31 78
q14 -12 29 -19.5t38 -7.5q31 0 51 19.5t20 62.5v511h105v-511q0 -78 -40 -123t-120 -45z" />
    <glyph glyph-name="f_k" unicode="fk" horiz-adv-x="835" 
d="M93 0v391h-80v92h80v27q0 81 43 124t110 43q51 0 84 -19l-23 -78q-16 11 -42 11q-31 0 -49 -20t-18 -61v-27h98v-92h-98v-391h-105zM696 0l-148 199l-67 -69v-130h-105v667h105v-417l213 233h130l-201 -219l205 -264h-132z" />
    <glyph glyph-name="fl" unicode="fl" horiz-adv-x="549" 
d="M93 0v391h-80v92h80v27q0 81 43 124t110 43q51 0 84 -19l-23 -78q-16 11 -42 11q-31 0 -49 -20t-18 -61v-27h98v-92h-98v-391h-105zM376 0v667h105v-667h-105z" />
    <glyph glyph-name="f_f_i" unicode="ffi" horiz-adv-x="858" 
d="M401 0v391h-80v92h80v27q0 81 43 124t110 43q51 0 84 -19l-23 -78q-16 11 -42 11q-31 0 -49 -20t-18 -61v-27h98v-92h-98v-391h-105zM737 542q-26 0 -45.5 19t-19.5 46t19.5 46t45.5 19q27 0 46 -19t19 -46t-19 -46t-46 -19zM685 0v483h105v-483h-105zM93 0v391h-80v92
h80v27q0 79 42 123t111 44q32 0 62.5 -9.5t53.5 -32.5l-41 -65q-11 10 -24.5 15.5t-31.5 5.5q-31 0 -49 -20t-18 -61v-27h98v-92h-98v-391h-105z" />
    <glyph glyph-name="f_f_j" unicode="ffj" horiz-adv-x="858" 
d="M401 0v391h-80v92h80v27q0 81 43 124t110 43q51 0 84 -19l-23 -78q-16 11 -42 11q-31 0 -49 -20t-18 -61v-27h98v-92h-98v-391h-105zM737 542q-26 0 -45.5 19t-19.5 46t19.5 46t45.5 19q27 0 46 -19t19 -46t-19 -46t-46 -19zM630 -196q-42 0 -65.5 8.5t-48.5 26.5l31 78
q14 -12 29 -19.5t38 -7.5q31 0 51 19.5t20 62.5v511h105v-511q0 -78 -40 -123t-120 -45zM93 0v391h-80v92h80v27q0 79 42 123t111 44q32 0 62.5 -9.5t53.5 -32.5l-41 -65q-11 10 -24.5 15.5t-31.5 5.5q-31 0 -49 -20t-18 -61v-27h98v-92h-98v-391h-105z" />
    <glyph glyph-name="f_f_l" unicode="ffl" horiz-adv-x="858" 
d="M401 0v391h-80v92h80v27q0 81 43 124t110 43q51 0 84 -19l-23 -78q-16 11 -42 11q-31 0 -49 -20t-18 -61v-27h98v-92h-98v-391h-105zM685 0v667h105v-667h-105zM93 0v391h-80v92h80v27q0 79 42 123t111 44q32 0 62.5 -9.5t53.5 -32.5l-41 -65q-11 10 -24.5 15.5
t-31.5 5.5q-31 0 -49 -20t-18 -61v-27h98v-92h-98v-391h-105z" />
    <glyph glyph-name=".notdef" horiz-adv-x="493" 
d="M71 -90v842h351v-842h-351zM390 722h-288v-782h288v782z" />
    <glyph glyph-name=".null" horiz-adv-x="0" 
 />
    <glyph glyph-name=".null" horiz-adv-x="0" 
 />
    <glyph glyph-name="nonmarkingreturn" unicode="&#xd;" horiz-adv-x="0" 
 />
    <glyph glyph-name="space" unicode=" " horiz-adv-x="257" 
 />
    <glyph glyph-name="nonbreakingspace" unicode="&#xa0;" horiz-adv-x="257" 
 />
    <glyph glyph-name="thinspace" unicode="&#x2009;" horiz-adv-x="51" 
 />
    <glyph glyph-name="zero" unicode="0" horiz-adv-x="616" 
d="M308 -12q-70 0 -120.5 30.5t-83 79t-48 110.5t-15.5 125t15.5 124.5t48 110.5t83 79t120.5 30t120.5 -30t83 -79t48 -110.5t15.5 -124.5t-15.5 -125t-48 -110.5t-83 -79t-120.5 -30.5zM308 92q41 0 69 20t45.5 53t25.5 76.5t8 91.5t-8 91.5t-25.5 76.5t-45.5 52.5
t-69 19.5t-69 -19.5t-45.5 -52.5t-25.5 -76.5t-8 -91.5t8 -91.5t25.5 -76.5t45.5 -53t69 -20z" />
    <glyph glyph-name="zero.pzero" horiz-adv-x="616" 
d="M308 -12q-46 0 -83 13t-66 36l-23 -37h-85l58 90q-35 50 -51.5 113.5t-16.5 129.5q0 63 15.5 124.5t48 110.5t83 79t120.5 30q45 0 81.5 -12.5t65.5 -35.5l24 38h85l-59 -91q36 -50 53 -113.5t17 -129.5q0 -63 -15.5 -125t-48 -110.5t-83 -79t-120.5 -30.5zM308 92
q41 0 69 20t45.5 53t25.5 76.5t8 91.5q0 37 -4.5 71.5t-15.5 64.5l-218 -340q35 -37 90 -37zM160 333q0 -37 4 -71t14 -63l218 338q-17 17 -38.5 26.5t-49.5 9.5q-41 0 -69 -19.5t-45.5 -52.5t-25.5 -76.5t-8 -91.5z" />
    <glyph glyph-name="one" unicode="1" horiz-adv-x="380" 
d="M192 0v515l-109 -113l-68 71l192 194h102v-667h-117z" />
    <glyph glyph-name="two" unicode="2" horiz-adv-x="595" 
d="M50 0v92q97 73 165.5 128t111.5 99t63 80t20 72q0 26 -10.5 45.5t-27.5 32t-38.5 18.5t-44.5 6q-59 0 -103.5 -22t-76.5 -58l-68 77q45 54 110.5 80.5t135.5 26.5q48 0 92 -13.5t77.5 -39.5t53 -64.5t19.5 -88.5q0 -46 -20.5 -90.5t-58.5 -89t-92 -91t-121 -97.5h296
v-103h-483z" />
    <glyph glyph-name="three" unicode="3" horiz-adv-x="574" 
d="M276 -12q-90 0 -154 31.5t-98 76.5l63 77q32 -38 81.5 -59.5t103.5 -21.5q66 0 102.5 27.5t36.5 74.5q0 50 -38 72t-110 22h-45t-32 -1v105q9 -1 33 -1h44q29 0 54 5t43.5 16t29 27.5t10.5 39.5t-10.5 40.5t-29 29.5t-43 18t-52.5 6q-51 0 -93.5 -19t-78.5 -55l-60 73
q38 45 98.5 75t144.5 30q54 0 98.5 -12.5t76 -35.5t49 -56.5t17.5 -75.5q0 -33 -13 -59.5t-33.5 -46t-46.5 -31.5t-52 -16q24 -2 51.5 -13t50.5 -31.5t38 -49.5t15 -68q0 -42 -17.5 -78t-50 -61.5t-79 -40t-104.5 -14.5z" />
    <glyph glyph-name="four" unicode="4" horiz-adv-x="580" 
d="M346 0v151h-318v94l274 422h161v-413h89v-103h-89v-151h-117zM346 562l-203 -308h203v308z" />
    <glyph glyph-name="five" unicode="5" horiz-adv-x="600" 
d="M304 -12q-87 0 -147 27.5t-101 75.5l67 80q34 -38 78.5 -58.5t101.5 -20.5q31 0 56.5 9t43.5 25t27.5 37.5t9.5 45.5q0 54 -36 86.5t-98 32.5q-43 0 -78.5 -14t-67.5 -44l-83 24v373h437v-103h-320v-193q24 24 63.5 41t87.5 17q42 0 80.5 -14.5t68 -42t47 -67.5t17.5 -91
q0 -52 -18.5 -94t-52.5 -71t-80.5 -45t-102.5 -16z" />
    <glyph glyph-name="six" unicode="6" horiz-adv-x="601" 
d="M316 -12q-74 0 -126 27.5t-85 75t-48.5 110t-15.5 131.5q0 72 19 135t56 109.5t92 73.5t127 27q63 0 110.5 -20.5t81.5 -53.5l-55 -89q-26 28 -57.5 43.5t-79.5 15.5q-42 0 -74.5 -18t-55 -48t-34.5 -70t-12 -84v-9.5t1 -9.5q11 17 29.5 33.5t41.5 30t50.5 21.5t57.5 8
q45 0 85.5 -13.5t71 -40.5t48.5 -67.5t18 -93.5q0 -47 -17.5 -87.5t-49.5 -71t-77.5 -48t-101.5 -17.5zM310 92q33 0 58 10.5t42 27t25.5 37.5t8.5 41q0 31 -11 53.5t-30 37t-44 21.5t-52 7q-43 0 -81.5 -21.5t-64.5 -57.5q3 -27 12 -55t26.5 -50.5t44.5 -36.5t66 -14z" />
    <glyph glyph-name="seven" unicode="7" horiz-adv-x="532" 
d="M121 0l252 564h-346v103h481v-81l-259 -586h-128z" />
    <glyph glyph-name="eight" unicode="8" horiz-adv-x="595" 
d="M298 -12q-51 0 -97.5 11.5t-82 35t-56 57.5t-20.5 79q0 32 12 59t32.5 49t48 38.5t57.5 26.5q-28 9 -53.5 23t-44.5 33.5t-30 44.5t-11 57q0 46 21.5 79t56.5 54.5t78.5 31.5t88.5 10q44 0 87.5 -10t78.5 -31.5t57 -54.5t22 -79q0 -32 -11.5 -57t-30.5 -44.5t-44.5 -33.5
t-53.5 -23q30 -10 57.5 -26.5t48 -38.5t32.5 -49t12 -59q0 -45 -20.5 -79t-56 -57t-81.5 -35t-97 -12zM298 390q15 3 37 9t41.5 17t33.5 27.5t14 40.5q0 21 -9.5 37.5t-26.5 28t-40 17.5t-50 6q-55 0 -91 -23.5t-36 -65.5q0 -24 14 -40.5t34 -27.5t42 -17t37 -9zM298 92
q28 0 52.5 6.5t43.5 18.5t30 29.5t11 39.5q0 26 -15.5 45t-37.5 31.5t-45.5 19.5t-38.5 9q-16 -2 -39.5 -9t-45.5 -19.5t-37.5 -31.5t-15.5 -45q0 -22 11 -39.5t29.5 -29.5t43.5 -18.5t54 -6.5z" />
    <glyph glyph-name="nine" unicode="9" horiz-adv-x="601" 
d="M265 -11q-62 0 -109.5 20t-81.5 54l54 88q26 -27 57.5 -42.5t79.5 -15.5q45 0 78.5 19t55 49.5t32 70t10.5 80.5v20q-12 -17 -30.5 -33.5t-41.5 -30t-50.5 -22t-56.5 -8.5q-45 0 -85.5 14t-71.5 41t-49 67.5t-18 93.5q0 46 17.5 87t49.5 71.5t77.5 48t101.5 17.5
q73 0 125.5 -28t85.5 -75t48.5 -109.5t15.5 -132.5q0 -72 -19 -135t-56 -109.5t-92 -73t-127 -26.5zM293 339q43 0 82 21t64 57q-2 27 -11 55t-27 50.5t-45 37t-66 14.5q-33 0 -57.5 -10.5t-41.5 -27.5t-25.5 -37.5t-8.5 -40.5q0 -31 11 -53.5t30 -37t43.5 -21.5t51.5 -7z
" />
    <glyph glyph-name="zero.tnum" unicode="&#xf639;" horiz-adv-x="612" 
d="M307 -12q-70 0 -120.5 30.5t-83 79t-48 110.5t-15.5 125t15.5 124.5t48 110.5t83 79t120.5 30t120.5 -30t83 -79t48 -110.5t15.5 -124.5t-15.5 -125t-48 -110.5t-83 -79t-120.5 -30.5zM307 92q41 0 69 20t45.5 53t25.5 76.5t8 91.5t-8 91.5t-25.5 76.5t-45.5 52.5
t-69 19.5t-69 -19.5t-45.5 -52.5t-25.5 -76.5t-8 -91.5t8 -91.5t25.5 -76.5t45.5 -53t69 -20z" />
    <glyph glyph-name="zero.tzero" unicode="&#xf638;" horiz-adv-x="612" 
d="M307 -12q-46 0 -83 13t-66 36l-23 -37h-85l58 90q-35 50 -51.5 113.5t-16.5 129.5q0 63 15.5 124.5t48 110.5t83 79t120.5 30q45 0 81.5 -12.5t65.5 -35.5l24 38h85l-59 -91q36 -50 53 -113.5t17 -129.5q0 -63 -15.5 -125t-48 -110.5t-83 -79t-120.5 -30.5zM307 92
q41 0 69 20t45.5 53t25.5 76.5t8 91.5q0 37 -4.5 71.5t-15.5 64.5l-218 -340q35 -37 90 -37zM159 333q0 -37 4 -71t14 -63l218 338q-17 17 -38.5 26.5t-49.5 9.5q-41 0 -69 -19.5t-45.5 -52.5t-25.5 -76.5t-8 -91.5z" />
    <glyph glyph-name="one.tnum" unicode="&#xf6dc;" horiz-adv-x="612" 
d="M310 0v515l-109 -113l-68 71l192 194h102v-667h-117z" />
    <glyph glyph-name="two.tnum" unicode="&#xf63a;" horiz-adv-x="612" 
d="M68 0v92q97 73 165.5 128t111.5 99t63 80t20 72q0 26 -10.5 45.5t-27.5 32t-38.5 18.5t-44.5 6q-59 0 -103.5 -22t-76.5 -58l-68 77q45 54 110.5 80.5t135.5 26.5q48 0 92 -13.5t77.5 -39.5t53 -64.5t19.5 -88.5q0 -46 -20.5 -90.5t-58.5 -89t-92 -91t-121 -97.5h296
v-103h-483z" />
    <glyph glyph-name="three.tnum" unicode="&#xf63b;" horiz-adv-x="612" 
d="M304 -12q-90 0 -154 31.5t-98 76.5l63 77q32 -38 81.5 -59.5t103.5 -21.5q66 0 102.5 27.5t36.5 74.5q0 50 -38 72t-110 22h-45t-32 -1v105q9 -1 33 -1h44q29 0 54 5t43.5 16t29 27.5t10.5 39.5t-10.5 40.5t-29 29.5t-43 18t-52.5 6q-51 0 -93.5 -19t-78.5 -55l-60 73
q38 45 98.5 75t144.5 30q54 0 98.5 -12.5t76 -35.5t49 -56.5t17.5 -75.5q0 -33 -13 -59.5t-33.5 -46t-46.5 -31.5t-52 -16q24 -2 51.5 -13t50.5 -31.5t38 -49.5t15 -68q0 -42 -17.5 -78t-50 -61.5t-79 -40t-104.5 -14.5z" />
    <glyph glyph-name="four.tnum" unicode="&#xf63c;" horiz-adv-x="612" 
d="M360 0v151h-318v94l274 422h161v-413h89v-103h-89v-151h-117zM360 562l-203 -308h203v308z" />
    <glyph glyph-name="five.tnum" unicode="&#xf63d;" horiz-adv-x="612" 
d="M308 -12q-87 0 -147 27.5t-101 75.5l67 80q34 -38 78.5 -58.5t101.5 -20.5q31 0 56.5 9t43.5 25t27.5 37.5t9.5 45.5q0 54 -36 86.5t-98 32.5q-43 0 -78.5 -14t-67.5 -44l-83 24v373h437v-103h-320v-193q24 24 63.5 41t87.5 17q42 0 80.5 -14.5t68 -42t47 -67.5t17.5 -91
q0 -52 -18.5 -94t-52.5 -71t-80.5 -45t-102.5 -16z" />
    <glyph glyph-name="six.tnum" unicode="&#xf63e;" horiz-adv-x="612" 
d="M325 -12q-74 0 -126 27.5t-85 75t-48.5 110t-15.5 131.5q0 72 19 135t56 109.5t92 73.5t127 27q63 0 110.5 -20.5t81.5 -53.5l-55 -89q-26 28 -57.5 43.5t-79.5 15.5q-42 0 -74.5 -18t-55 -48t-34.5 -70t-12 -84v-9.5t1 -9.5q11 17 29.5 33.5t41.5 30t50.5 21.5t57.5 8
q45 0 85.5 -13.5t71 -40.5t48.5 -67.5t18 -93.5q0 -47 -17.5 -87.5t-49.5 -71t-77.5 -48t-101.5 -17.5zM319 92q33 0 58 10.5t42 27t25.5 37.5t8.5 41q0 31 -11 53.5t-30 37t-44 21.5t-52 7q-43 0 -81.5 -21.5t-64.5 -57.5q3 -27 12 -55t26.5 -50.5t44.5 -36.5t66 -14z" />
    <glyph glyph-name="seven.tnum" unicode="&#xf63f;" horiz-adv-x="612" 
d="M160 0l252 564h-346v103h481v-81l-259 -586h-128z" />
    <glyph glyph-name="eight.tnum" unicode="&#xf640;" horiz-adv-x="612" 
d="M306 -12q-51 0 -97.5 11.5t-82 35t-56 57.5t-20.5 79q0 32 12 59t32.5 49t48 38.5t57.5 26.5q-28 9 -53.5 23t-44.5 33.5t-30 44.5t-11 57q0 46 21.5 79t56.5 54.5t78.5 31.5t88.5 10q44 0 87.5 -10t78.5 -31.5t57 -54.5t22 -79q0 -32 -11.5 -57t-30.5 -44.5t-44.5 -33.5
t-53.5 -23q30 -10 57.5 -26.5t48 -38.5t32.5 -49t12 -59q0 -45 -20.5 -79t-56 -57t-81.5 -35t-97 -12zM306 390q15 3 37 9t41.5 17t33.5 27.5t14 40.5q0 21 -9.5 37.5t-26.5 28t-40 17.5t-50 6q-55 0 -91 -23.5t-36 -65.5q0 -24 14 -40.5t34 -27.5t42 -17t37 -9zM306 92
q28 0 52.5 6.5t43.5 18.5t30 29.5t11 39.5q0 26 -15.5 45t-37.5 31.5t-45.5 19.5t-38.5 9q-16 -2 -39.5 -9t-45.5 -19.5t-37.5 -31.5t-15.5 -45q0 -22 11 -39.5t29.5 -29.5t43.5 -18.5t54 -6.5z" />
    <glyph glyph-name="nine.tnum" unicode="&#xf641;" horiz-adv-x="612" 
d="M269 -11q-62 0 -109.5 20t-81.5 54l54 88q26 -27 57.5 -42.5t79.5 -15.5q45 0 78.5 19t55 49.5t32 70t10.5 80.5v20q-12 -17 -30.5 -33.5t-41.5 -30t-50.5 -22t-56.5 -8.5q-45 0 -85.5 14t-71.5 41t-49 67.5t-18 93.5q0 46 17.5 87t49.5 71.5t77.5 48t101.5 17.5
q73 0 125.5 -28t85.5 -75t48.5 -109.5t15.5 -132.5q0 -72 -19 -135t-56 -109.5t-92 -73t-127 -26.5zM297 339q43 0 82 21t64 57q-2 27 -11 55t-27 50.5t-45 37t-66 14.5q-33 0 -57.5 -10.5t-41.5 -27.5t-25.5 -37.5t-8.5 -40.5q0 -31 11 -53.5t30 -37t43.5 -21.5t51.5 -7z
" />
    <glyph glyph-name="zero.tonum" unicode="&#xf643;" horiz-adv-x="612" 
d="M574 275q0 -55 -16 -107t-48.5 -92t-83 -64t-119.5 -24t-119.5 24t-83 64t-48.5 92t-16 107t16 107t48.5 92t83 64t119.5 24t119.5 -24t83 -64t48.5 -92t16 -107zM455 275q0 36 -9 69t-27 58.5t-46 40.5t-66 15t-66 -15t-46 -40.5t-27 -58.5t-9 -69t9 -69.5t27 -58.5
t46 -40t66 -15t66 15t46 40t27 58.5t9 69.5z" />
    <glyph glyph-name="zero.tonumzero" horiz-adv-x="612" 
d="M573 275q0 -55 -16 -107t-48.5 -92t-83 -64t-119.5 -24q-46 0 -83 10.5t-66 29.5l-22 -28h-87l57 74q-34 41 -50 92.5t-16 108.5q0 55 16 107t48.5 92t83 64t119.5 24q43 0 79 -10t65 -27l19 25h87l-53 -69q35 -41 52.5 -94.5t17.5 -111.5zM454 275q0 30 -6 58t-19 52
l-205 -269q16 -11 36.5 -17.5t45.5 -6.5q38 0 66 15t46 40t27 58.5t9 69.5zM158 275q0 -59 21 -104l203 266q-32 21 -76 21q-38 0 -66 -15t-46 -40.5t-27 -58.5t-9 -69z" />
    <glyph glyph-name="one.tonum" unicode="&#xf644;" horiz-adv-x="612" 
d="M310 0v398l-109 -113l-68 71l192 194h102v-550h-117z" />
    <glyph glyph-name="two.tonum" unicode="&#xf645;" horiz-adv-x="612" 
d="M74 0v93q94 34 160 69.5t107 70t60 67t19 62.5q0 43 -33.5 69.5t-82.5 26.5q-55 0 -101 -21t-80 -59l-68 77q22 27 51 47t62 33.5t68 20t70 6.5q52 0 94.5 -13t73 -36.5t47.5 -57t17 -75.5t-20 -82.5t-54.5 -76.5t-80.5 -66.5t-97 -51.5h241v-103h-453z" />
    <glyph glyph-name="three.tonum" unicode="&#xf646;" horiz-adv-x="612" 
d="M304 -126q-90 0 -154 31.5t-98 76.5l63 77q32 -38 81.5 -59.5t103.5 -21.5q66 0 102.5 27.5t36.5 74.5q0 50 -38 72t-110 22h-45t-32 -1v105q9 -1 33 -1h44q29 0 54 5t43.5 16t29 27.5t10.5 39.5t-10.5 40.5t-29 29.5t-43 18t-52.5 6q-51 0 -93.5 -19t-78.5 -55l-60 73
q38 45 98.5 75t144.5 30q54 0 98.5 -12.5t76 -35.5t49 -56.5t17.5 -75.5q0 -33 -13 -59.5t-33.5 -46t-46.5 -31.5t-52 -16q24 -2 51.5 -13t50.5 -31.5t38 -49.5t15 -68q0 -42 -17.5 -78t-50 -61.5t-79 -40t-104.5 -14.5z" />
    <glyph glyph-name="four.tonum" unicode="&#xf647;" horiz-adv-x="612" 
d="M477 39v-156h-117v156h-318v94l274 417h161v-408h89v-103h-89zM360 445l-203 -303h203v303z" />
    <glyph glyph-name="five.tonum" unicode="&#xf648;" horiz-adv-x="612" 
d="M308 -128q-87 0 -147 27.5t-101 75.5l67 80q34 -38 78.5 -58.5t101.5 -20.5q31 0 56.5 9t43.5 25t27.5 37.5t9.5 45.5q0 54 -36 86.5t-98 32.5q-43 0 -78.5 -14t-67.5 -44l-83 24v373h437v-103h-320v-193q24 24 63.5 41t87.5 17q42 0 80.5 -14.5t68 -42t47 -67.5
t17.5 -91q0 -52 -18.5 -94t-52.5 -71t-80.5 -45t-102.5 -16z" />
    <glyph glyph-name="six.tonum" unicode="&#xf649;" horiz-adv-x="612" 
d="M325 -12q-74 0 -126 27.5t-85 75t-48.5 110t-15.5 131.5q0 72 19 135t56 109.5t92 73.5t127 27q63 0 110.5 -20.5t81.5 -53.5l-55 -89q-26 28 -57.5 43.5t-79.5 15.5q-42 0 -74.5 -18t-55 -48t-34.5 -70t-12 -84v-9.5t1 -9.5q11 17 29.5 33.5t41.5 30t50.5 21.5t57.5 8
q45 0 85.5 -13.5t71 -40.5t48.5 -67.5t18 -93.5q0 -47 -17.5 -87.5t-49.5 -71t-77.5 -48t-101.5 -17.5zM319 92q33 0 58 10.5t42 27t25.5 37.5t8.5 41q0 31 -11 53.5t-30 37t-44 21.5t-52 7q-43 0 -81.5 -21.5t-64.5 -57.5q3 -27 12 -55t26.5 -50.5t44.5 -36.5t66 -14z" />
    <glyph glyph-name="seven.tonum" unicode="&#xf64a;" horiz-adv-x="612" 
d="M160 -116l252 564h-346v103h481v-81l-259 -586h-128z" />
    <glyph glyph-name="eight.tonum" unicode="&#xf64b;" horiz-adv-x="612" 
d="M306 -12q-51 0 -97.5 11.5t-82 35t-56 57.5t-20.5 79q0 32 12 59t32.5 49t48 38.5t57.5 26.5q-28 9 -53.5 23t-44.5 33.5t-30 44.5t-11 57q0 46 21.5 79t56.5 54.5t78.5 31.5t88.5 10q44 0 87.5 -10t78.5 -31.5t57 -54.5t22 -79q0 -32 -11.5 -57t-30.5 -44.5t-44.5 -33.5
t-53.5 -23q30 -10 57.5 -26.5t48 -38.5t32.5 -49t12 -59q0 -45 -20.5 -79t-56 -57t-81.5 -35t-97 -12zM306 390q15 3 37 9t41.5 17t33.5 27.5t14 40.5q0 21 -9.5 37.5t-26.5 28t-40 17.5t-50 6q-55 0 -91 -23.5t-36 -65.5q0 -24 14 -40.5t34 -27.5t42 -17t37 -9zM306 92
q28 0 52.5 6.5t43.5 18.5t30 29.5t11 39.5q0 26 -15.5 45t-37.5 31.5t-45.5 19.5t-38.5 9q-16 -2 -39.5 -9t-45.5 -19.5t-37.5 -31.5t-15.5 -45q0 -22 11 -39.5t29.5 -29.5t43.5 -18.5t54 -6.5z" />
    <glyph glyph-name="nine.tonum" unicode="&#xf64c;" horiz-adv-x="612" 
d="M269 -126q-62 0 -109.5 20t-81.5 54l54 88q26 -27 57.5 -42.5t79.5 -15.5q45 0 78.5 19t55 49.5t32 70t10.5 80.5v20q-12 -17 -30.5 -33.5t-41.5 -30t-50.5 -22t-56.5 -8.5q-45 0 -85.5 14t-71.5 41t-49 67.5t-18 93.5q0 46 17.5 87t49.5 71.5t77.5 48t101.5 17.5
q73 0 125.5 -28t85.5 -75t48.5 -109.5t15.5 -132.5q0 -72 -19 -135t-56 -109.5t-92 -73t-127 -26.5zM297 224q43 0 82 21t64 57q-2 27 -11 55t-27 50.5t-45 37t-66 14.5q-33 0 -57.5 -10.5t-41.5 -27.5t-25.5 -37.5t-8.5 -40.5q0 -31 11 -53.5t30 -37t43.5 -21.5t51.5 -7z
" />
    <glyph glyph-name="zero.onum" unicode="&#xf730;" horiz-adv-x="616" 
d="M575 275q0 -55 -16 -107t-48.5 -92t-83 -64t-119.5 -24t-119.5 24t-83 64t-48.5 92t-16 107t16 107t48.5 92t83 64t119.5 24t119.5 -24t83 -64t48.5 -92t16 -107zM456 275q0 36 -9 69t-27 58.5t-46 40.5t-66 15t-66 -15t-46 -40.5t-27 -58.5t-9 -69t9 -69.5t27 -58.5
t46 -40t66 -15t66 15t46 40t27 58.5t9 69.5z" />
    <glyph glyph-name="zero.onumzero" horiz-adv-x="616" 
d="M575 275q0 -55 -16 -107t-48.5 -92t-83 -64t-119.5 -24q-46 0 -83 10.5t-66 29.5l-22 -28h-87l57 74q-34 41 -50 92.5t-16 108.5q0 55 16 107t48.5 92t83 64t119.5 24q43 0 79 -10t65 -27l19 25h87l-53 -69q35 -41 52.5 -94.5t17.5 -111.5zM456 275q0 30 -6 58t-19 52
l-205 -269q16 -11 36.5 -17.5t45.5 -6.5q38 0 66 15t46 40t27 58.5t9 69.5zM160 275q0 -59 21 -104l203 266q-32 21 -76 21q-38 0 -66 -15t-46 -40.5t-27 -58.5t-9 -69z" />
    <glyph glyph-name="one.onum" unicode="&#xf731;" horiz-adv-x="380" 
d="M192 0v398l-109 -113l-68 71l192 194h102v-550h-117z" />
    <glyph glyph-name="two.onum" unicode="&#xf732;" horiz-adv-x="580" 
d="M54 0v93q94 34 160 69.5t107 70t60 67t19 62.5q0 43 -33.5 69.5t-82.5 26.5q-55 0 -101 -21t-80 -59l-68 77q22 27 51 47t62 33.5t68 20t70 6.5q52 0 94.5 -13t73 -36.5t47.5 -57t17 -75.5t-20 -82.5t-54.5 -76.5t-80.5 -66.5t-97 -51.5h241v-103h-453z" />
    <glyph glyph-name="three.onum" unicode="&#xf733;" horiz-adv-x="568" 
d="M271 -126q-90 0 -154 31.5t-98 76.5l63 77q32 -38 81.5 -59.5t103.5 -21.5q66 0 102.5 27.5t36.5 74.5q0 50 -38 72t-110 22h-45t-32 -1v105q9 -1 33 -1h44q29 0 54 5t43.5 16t29 27.5t10.5 39.5t-10.5 40.5t-29 29.5t-43 18t-52.5 6q-51 0 -93.5 -19t-78.5 -55l-60 73
q38 45 98.5 75t144.5 30q54 0 98.5 -12.5t76 -35.5t49 -56.5t17.5 -75.5q0 -33 -13 -59.5t-33.5 -46t-46.5 -31.5t-52 -16q24 -2 51.5 -13t50.5 -31.5t38 -49.5t15 -68q0 -42 -17.5 -78t-50 -61.5t-79 -40t-104.5 -14.5z" />
    <glyph glyph-name="four.onum" unicode="&#xf734;" horiz-adv-x="580" 
d="M463 39v-156h-117v156h-318v94l274 417h161v-408h89v-103h-89zM346 445l-203 -303h203v303z" />
    <glyph glyph-name="five.onum" unicode="&#xf735;" horiz-adv-x="600" 
d="M304 -128q-87 0 -147 27.5t-101 75.5l67 80q34 -38 78.5 -58.5t101.5 -20.5q31 0 56.5 9t43.5 25t27.5 37.5t9.5 45.5q0 54 -36 86.5t-98 32.5q-43 0 -78.5 -14t-67.5 -44l-83 24v373h437v-103h-320v-193q24 24 63.5 41t87.5 17q42 0 80.5 -14.5t68 -42t47 -67.5
t17.5 -91q0 -52 -18.5 -94t-52.5 -71t-80.5 -45t-102.5 -16z" />
    <glyph glyph-name="six.onum" unicode="&#xf736;" horiz-adv-x="601" 
d="M316 -12q-74 0 -126 27.5t-85 75t-48.5 110t-15.5 131.5q0 72 19 135t56 109.5t92 73.5t127 27q63 0 110.5 -20.5t81.5 -53.5l-55 -89q-26 28 -57.5 43.5t-79.5 15.5q-42 0 -74.5 -18t-55 -48t-34.5 -70t-12 -84v-9.5t1 -9.5q11 17 29.5 33.5t41.5 30t50.5 21.5t57.5 8
q45 0 85.5 -13.5t71 -40.5t48.5 -67.5t18 -93.5q0 -47 -17.5 -87.5t-49.5 -71t-77.5 -48t-101.5 -17.5zM310 92q33 0 58 10.5t42 27t25.5 37.5t8.5 41q0 31 -11 53.5t-30 37t-44 21.5t-52 7q-43 0 -81.5 -21.5t-64.5 -57.5q3 -27 12 -55t26.5 -50.5t44.5 -36.5t66 -14z" />
    <glyph glyph-name="seven.onum" unicode="&#xf737;" horiz-adv-x="532" 
d="M121 -116l252 564h-346v103h481v-81l-259 -586h-128z" />
    <glyph glyph-name="eight.onum" unicode="&#xf738;" horiz-adv-x="595" 
d="M298 -12q-51 0 -97.5 11.5t-82 35t-56 57.5t-20.5 79q0 32 12 59t32.5 49t48 38.5t57.5 26.5q-28 9 -53.5 23t-44.5 33.5t-30 44.5t-11 57q0 46 21.5 79t56.5 54.5t78.5 31.5t88.5 10q44 0 87.5 -10t78.5 -31.5t57 -54.5t22 -79q0 -32 -11.5 -57t-30.5 -44.5t-44.5 -33.5
t-53.5 -23q30 -10 57.5 -26.5t48 -38.5t32.5 -49t12 -59q0 -45 -20.5 -79t-56 -57t-81.5 -35t-97 -12zM298 390q15 3 37 9t41.5 17t33.5 27.5t14 40.5q0 21 -9.5 37.5t-26.5 28t-40 17.5t-50 6q-55 0 -91 -23.5t-36 -65.5q0 -24 14 -40.5t34 -27.5t42 -17t37 -9zM298 92
q28 0 52.5 6.5t43.5 18.5t30 29.5t11 39.5q0 26 -15.5 45t-37.5 31.5t-45.5 19.5t-38.5 9q-16 -2 -39.5 -9t-45.5 -19.5t-37.5 -31.5t-15.5 -45q0 -22 11 -39.5t29.5 -29.5t43.5 -18.5t54 -6.5z" />
    <glyph glyph-name="nine.onum" unicode="&#xf739;" horiz-adv-x="601" 
d="M265 -126q-62 0 -109.5 20t-81.5 54l54 88q26 -27 57.5 -42.5t79.5 -15.5q45 0 78.5 19t55 49.5t32 70t10.5 80.5v20q-12 -17 -30.5 -33.5t-41.5 -30t-50.5 -22t-56.5 -8.5q-45 0 -85.5 14t-71.5 41t-49 67.5t-18 93.5q0 46 17.5 87t49.5 71.5t77.5 48t101.5 17.5
q73 0 125.5 -28t85.5 -75t48.5 -109.5t15.5 -132.5q0 -72 -19 -135t-56 -109.5t-92 -73t-127 -26.5zM293 224q43 0 82 21t64 57q-2 27 -11 55t-27 50.5t-45 37t-66 14.5q-33 0 -57.5 -10.5t-41.5 -27.5t-25.5 -37.5t-8.5 -40.5q0 -31 11 -53.5t30 -37t43.5 -21.5t51.5 -7z
" />
    <glyph glyph-name="A" unicode="A" horiz-adv-x="673" 
d="M538 0l-49 128h-306l-49 -128h-133l262 667h146l262 -667h-133zM336 549l-120 -318h240z" />
    <glyph glyph-name="B" unicode="B" horiz-adv-x="648" 
d="M71 0v667h328q46 0 81.5 -13.5t59.5 -36.5t36.5 -54t12.5 -66q0 -32 -9.5 -58t-25.5 -45.5t-37 -32t-44 -17.5q27 -4 50.5 -18.5t41 -36.5t27.5 -50t10 -59q0 -39 -12.5 -72t-37.5 -57t-61 -37.5t-83 -13.5h-337zM375 391q45 0 69.5 24t24.5 62t-24.5 62.5t-69.5 24.5
h-187v-173h187zM380 103q48 0 75 24.5t27 68.5q0 38 -25.5 65t-76.5 27h-192v-185h192z" />
    <glyph glyph-name="C" unicode="C" horiz-adv-x="682" 
d="M391 -12q-74 0 -138 25t-111 70.5t-74 109t-27 140.5t27 140.5t74 109t111 70.5t138 25q51 0 92 -12t74 -33t58 -48t44 -57l-100 -51q-24 42 -69 69.5t-99 27.5q-50 0 -92 -18t-72.5 -50t-48 -76.5t-17.5 -96.5q0 -53 17.5 -97t48 -76t72.5 -50t92 -18q54 0 99 27.5
t69 69.5l100 -51q-19 -30 -44.5 -57t-58 -48t-73.5 -33t-92 -12z" />
    <glyph glyph-name="D" unicode="D" horiz-adv-x="710" 
d="M71 0v667h248q78 0 142.5 -24.5t110 -69t71 -106t25.5 -134.5q0 -74 -25.5 -135t-71 -105t-110 -68.5t-142.5 -24.5h-248zM319 103q54 0 97 18t72 49.5t44.5 73.5t15.5 89q0 48 -15 90.5t-44 73.5t-71.5 49t-98.5 18h-131v-461h131z" />
    <glyph glyph-name="E" unicode="E" horiz-adv-x="577" 
d="M71 0v667h457v-103h-340v-173h333v-103h-333v-185h340v-103h-457z" />
    <glyph glyph-name="F" unicode="F" horiz-adv-x="562" 
d="M71 0v667h457v-103h-340v-173h333v-103h-333v-288h-117z" />
    <glyph glyph-name="G" unicode="G" horiz-adv-x="717" 
d="M391 -13q-72 0 -136 24.5t-111.5 70t-75 109.5t-27.5 142t27.5 142t75 109t111.5 69.5t136 24.5q49 0 89.5 -11t73.5 -29.5t59.5 -44t46.5 -54.5l-96 -54q-26 38 -71 63.5t-102 25.5q-50 0 -92 -18t-72.5 -50t-48 -76.5t-17.5 -96.5q0 -53 17.5 -97t48 -76.5t72.5 -50.5
t92 -18q51 0 93 19.5t65 40.5v104h-199v103h316v-250q-50 -55 -118.5 -88t-156.5 -33z" />
    <glyph glyph-name="G.alt1" horiz-adv-x="745" 
d="M381 -13q-69 0 -130.5 24.5t-108 70t-74 109.5t-27.5 142t27.5 142t75 109t111.5 69.5t136 24.5q49 0 89.5 -11t73.5 -29.5t59.5 -44t46.5 -54.5l-96 -54q-26 38 -71 63.5t-102 25.5q-50 0 -92 -18t-72.5 -50t-48 -76.5t-17.5 -96.5q0 -53 17.5 -97t48 -76.5t72.5 -50.5
t92 -18q42 0 75.5 13.5t57.5 36t39.5 52t22.5 62.5h-236v103h364q0 -84 -22.5 -152.5t-65.5 -117t-104.5 -75t-140.5 -26.5z" />
    <glyph glyph-name="H" unicode="H" horiz-adv-x="723" 
d="M535 0v291h-347v-291h-117v667h117v-273h347v273h117v-667h-117z" />
    <glyph glyph-name="I" unicode="I" horiz-adv-x="259" 
d="M71 0v667h117v-667h-117z" />
    <glyph glyph-name="J" unicode="J" horiz-adv-x="481" 
d="M185 -12q-52 0 -97 16t-80 54l54 89q20 -22 48 -38.5t66 -16.5q54 0 85.5 33t31.5 88v454h117v-456q0 -57 -17 -99t-47 -69.5t-71.5 -41t-89.5 -13.5z" />
    <glyph glyph-name="K" unicode="K" horiz-adv-x="621" 
d="M470 0l-224 281l-58 -68v-213h-117v667h117v-318l261 318h145l-271 -315l291 -352h-144z" />
    <glyph glyph-name="L" unicode="L" horiz-adv-x="517" 
d="M71 0v667h117v-564h294v-103h-411z" />
    <glyph glyph-name="M" unicode="M" horiz-adv-x="835" 
d="M647 0v495l-205 -495h-50l-204 495v-495h-117v667h165l181 -439l182 439h165v-667h-117z" />
    <glyph glyph-name="N" unicode="N" horiz-adv-x="720" 
d="M536 0l-348 476v-476h-117v667h120l341 -463v463h117v-667h-113z" />
    <glyph glyph-name="O" unicode="O" horiz-adv-x="765" 
d="M382 -12q-75 0 -137.5 26t-108 72t-70.5 109t-25 138t25 138t70.5 109t108 72t137.5 26t137.5 -26t108 -72t70.5 -109t25 -138t-25 -138t-70.5 -109t-108 -72t-137.5 -26zM382 92q50 0 91 18.5t70 50.5t44.5 76.5t15.5 95.5q0 52 -15.5 96t-44.5 76t-70 50.5t-91 18.5
q-51 0 -91.5 -18.5t-69.5 -50.5t-44.5 -76t-15.5 -96q0 -51 15.5 -95.5t44.5 -76.5t69.5 -50.5t91.5 -18.5z" />
    <glyph glyph-name="P" unicode="P" horiz-adv-x="608" 
d="M71 0v667h293q52 0 93 -17t68.5 -45.5t42 -66.5t14.5 -80t-14.5 -80t-42.5 -66.5t-68.5 -45.5t-92.5 -17h-176v-249h-117zM348 352q50 0 82 29t32 77t-32 77t-82 29h-160v-212h160z" />
    <glyph glyph-name="Q" unicode="Q" horiz-adv-x="765" 
d="M382 -12q-75 0 -137.5 26t-108 72t-70.5 109t-25 138t25 138t70.5 109t108 72t137.5 26t137.5 -26t108 -72t70.5 -109t25 -138q0 -72 -23.5 -133t-65.5 -107l55 -62l-81 -68l-58 65q-74 -40 -168 -40zM382 92q51 0 94 20l-82 94l81 67l82 -94q46 63 46 154q0 52 -15.5 96
t-44.5 76t-70 50.5t-91 18.5q-51 0 -91.5 -18.5t-69.5 -50.5t-44.5 -76t-15.5 -96q0 -51 15.5 -95.5t44.5 -76.5t69.5 -50.5t91.5 -18.5z" />
    <glyph glyph-name="R" unicode="R" horiz-adv-x="628" 
d="M452 0l-148 249h-116v-249h-117v667h293q49 0 89.5 -15.5t69 -43t44 -66t15.5 -84.5q0 -45 -13.5 -79t-35.5 -58.5t-50.5 -39t-58.5 -19.5l163 -262h-135zM348 352q50 0 82 29t32 77t-32 77t-82 29h-160v-212h160z" />
    <glyph glyph-name="S" unicode="S" horiz-adv-x="594" 
d="M299 -12q-93 0 -159.5 29t-111.5 77l65 90q35 -37 88 -64.5t123 -27.5q36 0 61.5 8t41.5 21t23.5 29t7.5 33q0 26 -16.5 43t-44 28.5t-62.5 20t-71.5 18.5t-71.5 23.5t-62.5 35t-44 53t-16.5 77.5q0 41 17.5 76.5t49.5 62t76.5 41.5t99.5 15q78 0 140.5 -24t109.5 -69
l-67 -87q-39 39 -89.5 57.5t-103.5 18.5q-52 0 -82.5 -22.5t-30.5 -60.5q0 -31 28.5 -47.5t72 -29t93.5 -25t93.5 -35t72 -60t28.5 -99.5q0 -42 -15 -79t-46.5 -65.5t-80.5 -45t-116 -16.5z" />
    <glyph glyph-name="T" unicode="T" horiz-adv-x="577" 
d="M230 0v564h-202v103h521v-103h-202v-564h-117z" />
    <glyph glyph-name="U" unicode="U" horiz-adv-x="719" 
d="M360 -12q-73 0 -127 20t-90 56t-54 86.5t-18 112.5v404h118v-400q0 -80 43 -127.5t128 -47.5q84 0 127 47.5t43 127.5v400h118v-403q0 -62 -18 -113t-54 -87t-90 -56t-126 -20z" />
    <glyph glyph-name="V" unicode="V" horiz-adv-x="673" 
d="M263 0l-262 667h133l202 -540l202 540h133l-262 -667h-146z" />
    <glyph glyph-name="W" unicode="W" horiz-adv-x="903" 
d="M581 0l-130 492l-129 -492h-125l-191 667h131l130 -514l138 514h93l138 -514l129 514h131l-190 -667h-125z" />
    <glyph glyph-name="X" unicode="X" horiz-adv-x="661" 
d="M517 0l-187 261l-187 -261h-140l250 342l-235 325h140l172 -245l171 245h141l-234 -324l249 -343h-140z" />
    <glyph glyph-name="Y" unicode="Y" horiz-adv-x="637" 
d="M260 0v277l-259 390h134l184 -286l182 286h134l-258 -390v-277h-117z" />
    <glyph glyph-name="Z" unicode="Z" horiz-adv-x="589" 
d="M44 0v95l341 469h-341v103h493v-95l-341 -469h348v-103h-500z" />
    <glyph glyph-name="a" unicode="a" horiz-adv-x="536" 
d="M363 0v52q-27 -31 -67.5 -47.5t-88.5 -16.5q-30 0 -60 10t-54 30t-39 50t-15 70q0 42 15 71.5t39 48.5t54 28t60 9q49 0 89.5 -15.5t66.5 -46.5v72q0 42 -31 66t-82 24q-81 0 -143 -61l-43 73q42 40 93.5 59t109.5 19q40 0 76.5 -9t64 -29.5t44 -54t16.5 -82.5v-320h-105
zM248 60q35 0 66 12.5t49 37.5v73q-18 25 -49 37.5t-66 12.5q-45 0 -74 -23.5t-29 -63.5q0 -39 29 -62.5t74 -23.5z" />
    <glyph glyph-name="a.alt1" horiz-adv-x="581" 
d="M408 0v66q-28 -36 -68 -57t-87 -21t-86 17t-68 49.5t-45 79.5t-16 107q0 58 16 105t44.5 80t68 51t86.5 18q45 0 85 -20.5t69 -58.5v67h106v-483h-105zM283 81q38 0 72.5 18.5t52.5 45.5v191q-18 27 -52.5 46t-72.5 19q-63 0 -99.5 -44.5t-36.5 -115.5q0 -35 9.5 -64.5
t27.5 -50.5t43 -33t56 -12z" />
    <glyph glyph-name="b" unicode="b" horiz-adv-x="581" 
d="M173 145q17 -27 52 -45.5t72 -18.5q31 0 56.5 12t43.5 33t27.5 50.5t9.5 64.5t-9.5 64.5t-27.5 51t-43.5 33.5t-56.5 12q-18 0 -36.5 -5.5t-35 -14.5t-30 -21t-22.5 -25v-191zM68 0v667h105v-251q29 38 69 58.5t86 20.5t85.5 -18t68 -51t44.5 -80t16 -105q0 -60 -16 -107
t-44.5 -79.5t-68 -49.5t-85.5 -17q-48 0 -87.5 21t-67.5 57v-66h-105z" />
    <glyph glyph-name="c" unicode="c" horiz-adv-x="497" 
d="M288 -12q-55 0 -101 19t-79 53t-51.5 80.5t-18.5 101.5t18.5 101t51.5 80t79 53t101 19q71 0 115 -25.5t70 -60.5l-69 -64q-41 57 -111 57q-33 0 -60 -12t-46 -33t-29.5 -50.5t-10.5 -64.5t10.5 -64.5t29.5 -51t46 -33.5t60 -12q69 0 111 57l69 -64q-26 -35 -70 -60.5
t-115 -25.5z" />
    <glyph glyph-name="d" unicode="d" horiz-adv-x="581" 
d="M408 0v66q-28 -36 -68 -57t-87 -21t-86 17t-68 49.5t-45 79.5t-16 107q0 58 16 105t44.5 80t68 51t86.5 18q45 0 85.5 -20.5t69.5 -58.5v251h105v-667h-105zM283 81q38 0 72.5 18.5t52.5 45.5v192q-18 27 -52.5 46t-72.5 19q-63 0 -99.5 -45t-36.5 -116q0 -35 9.5 -64.5
t27.5 -50.5t43 -33t56 -12z" />
    <glyph glyph-name="e" unicode="e" horiz-adv-x="557" 
d="M291 -12q-54 0 -100.5 18t-80.5 51.5t-53 80.5t-19 104q0 52 18 98.5t50.5 80.5t77.5 54t99 20t98 -19.5t75 -55t48 -83.5t17 -105v-25h-373q3 -27 14.5 -51.5t31 -42.5t47 -28.5t61.5 -10.5q35 0 73 13.5t64 39.5l48 -69q-36 -35 -87 -52.5t-109 -17.5zM419 281
q-1 21 -9 44t-24.5 41.5t-41.5 30.5t-61 12q-34 0 -58.5 -11.5t-41 -30t-25.5 -41.5t-11 -45h272z" />
    <glyph glyph-name="f" unicode="f" horiz-adv-x="308" 
d="M93 0v391h-80v92h80v27q0 79 42 123t111 44q32 0 62.5 -9.5t53.5 -32.5l-41 -65q-11 10 -24.5 15.5t-31.5 5.5q-31 0 -49 -20t-18 -61v-27h98v-92h-98v-391h-105z" />
    <glyph glyph-name="f.alt1" horiz-adv-x="308" 
d="M93 0v391h-80v92h80v27q0 81 43 124t110 43q51 0 84 -19l-23 -78q-16 11 -42 11q-31 0 -49 -20t-18 -61v-27h98v-92h-98v-391h-105z" />
    <glyph glyph-name="g" unicode="g" horiz-adv-x="580" 
d="M264 -196q-62 0 -109.5 15.5t-92.5 56.5l49 76q29 -34 67 -48t86 -14q26 0 51.5 6.5t46 22t33 40.5t12.5 62v58q-28 -36 -67.5 -58t-87.5 -22q-46 0 -85.5 16.5t-68 48t-44.5 77.5t-16 106q0 58 16 104.5t44.5 78t67.5 48.5t86 17q46 0 86 -20.5t69 -58.5v67h105v-458
q0 -65 -22 -108t-57.5 -68t-79.5 -35t-89 -10zM283 92q18 0 36.5 5t35 14t30 20.5t22.5 25.5v180q-9 13 -22.5 25t-30 21t-35 14t-36.5 5q-63 0 -99.5 -42.5t-36.5 -112.5t36.5 -112.5t99.5 -42.5z" />
    <glyph glyph-name="h" unicode="h" horiz-adv-x="568" 
d="M395 0v304q0 56 -27 77t-71 21q-40 0 -72.5 -20t-51.5 -45v-337h-105v667h105v-250q12 14 29.5 28t39.5 25t47.5 18t54.5 7q78 0 117 -39t39 -114v-342h-105z" />
    <glyph glyph-name="i" unicode="i" horiz-adv-x="241" 
d="M120 542q-26 0 -45.5 19t-19.5 46t19.5 46t45.5 19q27 0 46 -19t19 -46t-19 -46t-46 -19zM68 0v483h105v-483h-105z" />
    <glyph glyph-name="j" unicode="j" horiz-adv-x="241" 
d="M120 542q-26 0 -45.5 19t-19.5 46t19.5 46t45.5 19q27 0 46 -19t19 -46t-19 -46t-46 -19zM13 -196q-42 0 -65.5 8.5t-48.5 26.5l31 78q14 -12 29 -19.5t38 -7.5q31 0 51 19.5t20 62.5v511h105v-511q0 -78 -40 -123t-120 -45z" />
    <glyph glyph-name="k" unicode="k" horiz-adv-x="526" 
d="M388 0l-148 199l-67 -69v-130h-105v667h105v-417l213 233h130l-201 -219l205 -264h-132z" />
    <glyph glyph-name="l" unicode="l" horiz-adv-x="241" 
d="M68 0v667h105v-667h-105z" />
    <glyph glyph-name="l.alt1" horiz-adv-x="285" 
d="M192 -12q-62 0 -93 32t-31 92v555h105v-529q0 -25 11.5 -41t34.5 -16q15 0 27.5 5t18.5 12l25 -79q-14 -14 -38 -22.5t-60 -8.5z" />
    <glyph glyph-name="m" unicode="m" horiz-adv-x="833" 
d="M660 0v315q0 39 -18.5 63t-60.5 24q-35 0 -65.5 -20.5t-46.5 -43.5v-338h-105v315q0 39 -18.5 63t-61.5 24q-35 0 -64.5 -20.5t-46.5 -44.5v-337h-105v483h105v-66q7 11 22.5 24.5t36 25.5t46 20t52.5 8q54 0 87 -24.5t45 -64.5q10 16 27 32t38.5 29t46.5 20.5t52 7.5
q67 0 103 -36t36 -110v-349h-105z" />
    <glyph glyph-name="n" unicode="n" 
d="M394 0v302q0 56 -26.5 78t-70.5 22q-41 0 -73.5 -20t-50.5 -45v-337h-105v483h105v-66q12 14 29.5 28t39 25t47 18t54.5 7q78 0 117 -40t39 -115v-340h-105z" />
    <glyph glyph-name="o" unicode="o" horiz-adv-x="573" 
d="M286 -12q-57 0 -103 20t-78.5 54.5t-49.5 81t-17 98.5t17 98t49.5 80.5t78.5 54.5t103 20q58 0 104 -20t78.5 -54.5t49.5 -80.5t17 -98t-17 -98.5t-49.5 -81t-78.5 -54.5t-104 -20zM286 81q34 0 60 13t44 35t27 51.5t9 61.5t-9 61t-27 51t-44 35t-60 13q-33 0 -59 -13
t-44 -35t-27 -51t-9 -61t9 -61.5t27 -51.5t44 -35t59 -13z" />
    <glyph glyph-name="p" unicode="p" horiz-adv-x="578" 
d="M328 -12q-46 0 -86 20t-69 59v-251h-105v667h105v-66q27 36 67 57t88 21q47 0 86 -17t67.5 -49.5t44.5 -79.5t16 -107t-16 -107t-44.5 -79.5t-67.5 -50t-86 -17.5zM297 81q63 0 99.5 45t36.5 116q0 35 -9.5 64.5t-27.5 50.5t-43 33t-56 12q-18 0 -36.5 -5t-35 -14
t-30 -21t-22.5 -25v-191q9 -13 22.5 -25t30 -21t35 -14t36.5 -5z" />
    <glyph glyph-name="q" unicode="q" horiz-adv-x="578" 
d="M281 81q18 0 36.5 5t35 14t30 21t22.5 25v191q-9 13 -22.5 25t-30 21t-35 14t-36.5 5q-31 0 -56 -12t-43 -33t-27.5 -50.5t-9.5 -64.5q0 -71 36.5 -116t99.5 -45zM250 -12q-47 0 -86 17.5t-67.5 50t-44.5 79.5t-16 107t16 107t44.5 79.5t67.5 49.5t86 17q48 0 88 -21
t67 -57v66h105v-667h-105v251q-29 -39 -69 -59t-86 -20z" />
    <glyph glyph-name="r" unicode="r" horiz-adv-x="347" 
d="M68 0v483h105v-71q27 35 68 58.5t89 23.5v-104q-14 3 -33 3q-17 0 -35 -5t-35.5 -14t-31.5 -20.5t-22 -24.5v-329h-105z" />
    <glyph glyph-name="s" unicode="s" horiz-adv-x="472" 
d="M233 -12q-62 0 -115.5 19t-91.5 56l48 76q13 -13 31 -25.5t40 -22t45.5 -15t47.5 -5.5q48 0 71.5 18t23.5 47q0 24 -21.5 36t-54 20t-70.5 16t-70.5 24t-54 43t-21.5 73q0 30 12.5 56.5t36.5 46.5t59.5 32t81.5 12q62 0 108.5 -19.5t79.5 -48.5l-44 -74q-22 25 -60 41.5
t-83 16.5q-42 0 -66 -16.5t-24 -42.5q0 -22 21.5 -32.5t54 -18.5t70.5 -16.5t70.5 -25t54 -45t21.5 -76.5q0 -32 -13 -59.5t-38.5 -47.5t-63 -31.5t-86.5 -11.5z" />
    <glyph glyph-name="t" unicode="t" horiz-adv-x="319" 
d="M213 -12q-61 0 -92.5 32t-31.5 92v279h-80v92h80v132h105v-132h98v-92h-98v-253q0 -25 11.5 -41t34.5 -16q15 0 28 5t19 12l25 -79q-14 -14 -38 -22.5t-61 -8.5z" />
    <glyph glyph-name="u" unicode="u" 
d="M394 0v64q-26 -29 -70 -52.5t-101 -23.5q-78 0 -116.5 39t-38.5 114v342h105v-304q0 -56 26.5 -77t70.5 -21q40 0 72.5 19t51.5 44v339h105v-483h-105z" />
    <glyph glyph-name="v" unicode="v" horiz-adv-x="503" 
d="M195 0l-197 483h112l141 -362l141 362h113l-197 -483h-113z" />
    <glyph glyph-name="w" unicode="w" horiz-adv-x="754" 
d="M489 0l-112 354l-112 -354h-110l-150 483h109l102 -351l115 351h92l115 -351l102 351h109l-150 -483h-110z" />
    <glyph glyph-name="x" unicode="x" horiz-adv-x="496" 
d="M373 0l-125 178l-126 -178h-117l177 248l-167 235h118l115 -164l114 164h118l-167 -235l178 -248h-118z" />
    <glyph glyph-name="y" unicode="y" horiz-adv-x="503" 
d="M63 -95q8 -4 19.5 -6t20.5 -2q25 0 41.5 9t27.5 33l24 55l-198 489h112l141 -362l141 362h113l-233 -570q-25 -62 -67 -85t-99 -24q-11 0 -29.5 2t-29.5 5z" />
    <glyph glyph-name="y.alt1" 
d="M257 -196q-61 0 -108 17.5t-87 54.5l49 76q27 -33 66 -47.5t80 -14.5q65 0 101 34.5t36 99.5v56q-26 -29 -70 -52.5t-101 -23.5q-78 0 -116.5 39t-38.5 114v326h105v-288q0 -56 26.5 -77t70.5 -21q40 0 72.5 19t51.5 44v323h105v-459q0 -54 -18.5 -95.5t-50.5 -69
t-76.5 -41.5t-96.5 -14z" />
    <glyph glyph-name="z" unicode="z" horiz-adv-x="476" 
d="M46 0v79l239 312h-239v92h379v-77l-241 -315h245v-91h-383z" />
    <glyph glyph-name="A.smcp" unicode="&#xf761;" horiz-adv-x="586" 
d="M359 550l227 -550h-122l-42 103h-258l-41 -103h-123l227 550h132zM293 438l-97 -240h194z" />
    <glyph glyph-name="B.smcp" unicode="&#xf762;" horiz-adv-x="572" 
d="M68 0v550h286q40 0 71.5 -11t52.5 -30t32 -45t11 -55q0 -50 -28 -82t-66 -43q45 -11 75.5 -48.5t30.5 -86.5q0 -64 -44 -106.5t-127 -42.5h-294zM343 95q36 0 57 18t21 50q0 28 -20 49t-58 21h-166v-138h166zM338 328q35 0 53.5 18t18.5 45q0 29 -19 46.5t-53 17.5h-161
v-127h161z" />
    <glyph glyph-name="C.smcp" unicode="&#xf763;" horiz-adv-x="584" 
d="M335 -12q-63 0 -117.5 21t-94.5 59t-62.5 91t-22.5 116q0 64 22.5 116.5t62.5 90.5t94.5 59t117.5 21q83 0 140 -37.5t90 -91.5l-90 -45q-21 35 -58 56.5t-82 21.5q-40 0 -74 -14t-59 -39.5t-39 -60.5t-14 -77q0 -41 14 -76t39 -60.5t59 -40t74 -14.5q45 0 82.5 21.5
t57.5 55.5l90 -44q-33 -55 -90 -92t-140 -37z" />
    <glyph glyph-name="D.smcp" unicode="&#xf764;" horiz-adv-x="621" 
d="M68 0v550h217q68 0 123 -20.5t94 -57t60 -87t21 -111.5q0 -60 -21 -110.5t-59.5 -87t-93.5 -56.5t-123 -20h-218zM285 95q46 0 80.5 14t58 38.5t35.5 57t12 69.5t-11.5 70t-34.5 58t-57.5 39t-81.5 14h-109v-360h108z" />
    <glyph glyph-name="E.smcp" unicode="&#xf765;" horiz-adv-x="515" 
d="M68 0v550h401v-95h-292v-127h286v-95h-286v-138h292v-95h-401z" />
    <glyph glyph-name="F.smcp" unicode="&#xf766;" horiz-adv-x="501" 
d="M68 0v550h401v-95h-292v-127h286v-95h-286v-233h-109z" />
    <glyph glyph-name="G.smcp" unicode="&#xf767;" horiz-adv-x="620" 
d="M337 -12q-63 0 -117.5 20.5t-95 58.5t-63.5 90.5t-23 117.5t23 118t63.5 90.5t95 58t117.5 20.5q78 0 134 -32.5t91 -78.5l-87 -53q-23 29 -58.5 48t-79.5 19q-41 0 -75 -14t-59 -39.5t-39 -60t-14 -76.5q0 -41 14 -76.5t39 -61t59 -40t75 -14.5q42 0 74 15t50 32v79
h-147v91h256v-211q-43 -46 -102 -73.5t-131 -27.5z" />
    <glyph glyph-name="G.smcp.alt1" horiz-adv-x="636" 
d="M332 -12q-61 0 -114.5 20.5t-93.5 58.5t-63 90.5t-23 117.5t23 118t63.5 90.5t95 58t117.5 20.5q78 0 134 -32.5t91 -78.5l-87 -53q-23 30 -58.5 49t-79.5 19q-41 0 -75 -14t-59 -39.5t-39 -60.5t-14 -77q0 -41 14 -76.5t39 -61t59 -40t75 -14.5q28 0 53.5 8.5t46.5 24.5
t35 39.5t20 53.5h-178v91h294q0 -75 -20 -133t-56.5 -97.5t-87.5 -60.5t-112 -21z" />
    <glyph glyph-name="H.smcp" unicode="&#xf768;" horiz-adv-x="644" 
d="M467 0v234h-290v-234h-109v550h109v-221h290v221h109v-550h-109z" />
    <glyph glyph-name="I.smcp" unicode="&#xf769;" horiz-adv-x="245" 
d="M68 0v550h109v-550h-109z" />
    <glyph glyph-name="J.smcp" unicode="&#xf76a;" horiz-adv-x="428" 
d="M157 -12q-45 0 -83.5 15.5t-67.5 47.5l46 81q17 -20 41 -34t56 -14q47 0 74 26.5t27 71.5v368h110v-377q0 -48 -15 -82.5t-42 -57.5t-64 -34t-82 -11z" />
    <glyph glyph-name="K.smcp" unicode="&#xf76b;" horiz-adv-x="552" 
d="M413 0l-190 227l-46 -51v-176h-109v550h109v-251l218 251h133l-235 -260l253 -290h-133z" />
    <glyph glyph-name="L.smcp" unicode="&#xf76c;" horiz-adv-x="464" 
d="M68 0v550h109v-455h253v-95h-362z" />
    <glyph glyph-name="M.smcp" unicode="&#xf76d;" horiz-adv-x="740" 
d="M563 0v383l-168 -383h-49l-169 383v-383h-109v550h146l156 -355l155 355h147v-550h-109z" />
    <glyph glyph-name="N.smcp" unicode="&#xf76e;" horiz-adv-x="641" 
d="M462 0l-285 380v-380h-109v550h116l280 -370v370h109v-550h-111z" />
    <glyph glyph-name="O.smcp" unicode="&#xf76f;" horiz-adv-x="658" 
d="M329 -12q-65 0 -119 22t-92 60t-59 90.5t-21 114.5q0 61 21 114t59 91t92 60t119 22q64 0 117.5 -22t92 -60t59.5 -91t21 -114q0 -62 -21 -114.5t-59.5 -90.5t-92 -60t-117.5 -22zM329 84q40 0 73.5 14.5t56.5 40.5t36 60.5t13 75.5t-13 76t-36 60.5t-56.5 40t-73.5 14.5
q-41 0 -74.5 -14.5t-57 -40t-36 -60.5t-12.5 -76t12.5 -75.5t36 -60.5t57 -40.5t74.5 -14.5z" />
    <glyph glyph-name="P.smcp" unicode="&#xf770;" horiz-adv-x="540" 
d="M68 0v550h260q46 0 81 -14t59 -38t36 -56t12 -67q0 -36 -12 -68t-35.5 -56t-58.5 -38t-82 -14h-151v-199h-109zM316 294q44 0 66 23t22 58t-22.5 57.5t-65.5 22.5h-139v-161h139z" />
    <glyph glyph-name="Q.smcp" unicode="&#xf771;" horiz-adv-x="658" 
d="M329 -12q-65 0 -119 22t-92 60t-59 90.5t-21 114.5q0 61 21 114t59 91t92 60t119 22q64 0 117.5 -22t92 -60t59.5 -91t21 -114q0 -60 -20 -112t-57 -90l45 -51l-66 -54l-48 54q-63 -34 -144 -34zM329 84q41 0 76 15l-64 73l66 55l64 -73q17 24 27 55t10 66q0 41 -13 76
t-36 60.5t-56.5 40t-73.5 14.5q-41 0 -74.5 -14.5t-57 -40t-36 -60.5t-12.5 -76t12.5 -75.5t36 -60.5t57 -40.5t74.5 -14.5z" />
    <glyph glyph-name="R.smcp" unicode="&#xf772;" horiz-adv-x="561" 
d="M396 0l-124 199h-95v-199h-109v550h260q45 0 80 -13.5t59 -37.5t36.5 -56t12.5 -68q0 -37 -11 -66t-29.5 -50t-43.5 -33.5t-52 -16.5l142 -209h-126zM316 294q44 0 66.5 23t22.5 58t-23.5 57.5t-65.5 22.5h-139v-161h139z" />
    <glyph glyph-name="S.smcp" unicode="&#xf773;" horiz-adv-x="511" 
d="M254 -12q-77 0 -136 24t-94 60l52 84q29 -29 76.5 -52t104.5 -23q60 0 87 22t27 52q0 28 -24.5 42.5t-61 24.5t-79 19.5t-79 27t-61 47.5t-24.5 81q0 34 15.5 64.5t43 52.5t66.5 35t86 13q69 0 123.5 -21t93.5 -58l-53 -78q-32 31 -77 47t-88 16q-45 0 -72 -19t-27 -49
q0 -24 24.5 -37t61 -22t79 -19t79 -28.5t61 -50t24.5 -83.5q0 -76 -57.5 -124t-170.5 -48z" />
    <glyph glyph-name="T.smcp" unicode="&#xf774;" horiz-adv-x="480" 
d="M185 0v455h-162v95h434v-95h-163v-455h-109z" />
    <glyph glyph-name="U.smcp" unicode="&#xf775;" horiz-adv-x="636" 
d="M318 -12q-63 0 -110 16.5t-78 46.5t-46.5 71.5t-15.5 92.5v335h110v-326q0 -64 35.5 -102t104.5 -38q68 0 104 38t36 102v326h110v-334q0 -51 -15.5 -93t-47 -72t-78 -46.5t-109.5 -16.5z" />
    <glyph glyph-name="V.smcp" unicode="&#xf776;" horiz-adv-x="586" 
d="M227 0l-227 550h124l169 -431l171 431h122l-227 -550h-132z" />
    <glyph glyph-name="W.smcp" unicode="&#xf777;" horiz-adv-x="783" 
d="M499 0l-108 389l-108 -389h-114l-165 550h121l107 -405l116 405h87l115 -406l108 406h121l-166 -550h-114z" />
    <glyph glyph-name="X.smcp" unicode="&#xf778;" horiz-adv-x="577" 
d="M446 0l-158 209l-158 -209h-129l216 282l-203 268h129l145 -195l145 195h129l-203 -267l216 -283h-129z" />
    <glyph glyph-name="Y.smcp" unicode="&#xf779;" horiz-adv-x="557" 
d="M226 0v229l-226 321h124l156 -229l153 229h124l-223 -321v-229h-108z" />
    <glyph glyph-name="Z.smcp" unicode="&#xf77a;" horiz-adv-x="520" 
d="M37 0v80l290 374h-290v96h439v-80l-289 -374h296v-96h-446z" />
    <glyph glyph-name="Aacute" unicode="&#xc1;" horiz-adv-x="673" 
d="M538 0l-49 128h-306l-49 -128h-133l262 667h146l262 -667h-133zM336 549l-120 -318h240zM351 723h-75l140 144h100z" />
    <glyph glyph-name="Abreve" unicode="&#x102;" horiz-adv-x="673" 
d="M538 0l-49 128h-306l-49 -128h-133l262 667h146l262 -667h-133zM336 549l-120 -318h240zM511 789q-30 -41 -75.5 -64.5t-99.5 -23.5t-99.5 23.5t-76.5 64.5l48 40q22 -30 54 -48t74 -18q40 0 72.5 17.5t54.5 48.5l48 -40v0z" />
    <glyph glyph-name="Acircumflex" unicode="&#xc2;" horiz-adv-x="673" 
d="M413 723l-77 96l-75 -96h-66l93 144h96l96 -144h-67zM538 0l-49 128h-306l-49 -128h-133l262 667h146l262 -667h-133zM336 549l-120 -318h240z" />
    <glyph glyph-name="Adieresis" unicode="&#xc4;" horiz-adv-x="673" 
d="M500 775q0 -25 -17.5 -42t-41.5 -17t-41.5 17t-17.5 42q0 24 17.5 41t41.5 17t41.5 -17t17.5 -41zM290 775q0 -25 -17 -42t-41 -17q-25 0 -42 17t-17 42q0 24 17 41t42 17q24 0 41 -17t17 -41zM538 0l-49 128h-306l-49 -128h-133l262 667h146l262 -667h-133zM336 549
l-120 -318h240z" />
    <glyph glyph-name="Agrave" unicode="&#xc0;" horiz-adv-x="673" 
d="M538 0l-49 128h-306l-49 -128h-133l262 667h146l262 -667h-133zM336 549l-120 -318h240zM323 723l-165 144h100l140 -144h-75z" />
    <glyph glyph-name="Amacron" unicode="&#x100;" horiz-adv-x="673" 
d="M538 0l-49 128h-306l-49 -128h-133l262 667h146l262 -667h-133zM336 549l-120 -318h240zM154 733v62h363v-62h-363z" />
    <glyph glyph-name="Aogonek" unicode="&#x104;" horiz-adv-x="673" 
d="M730 -128q-12 -24 -34.5 -41t-57.5 -17q-38 0 -66.5 21t-28.5 68q0 28 12.5 52.5t35.5 44.5h-53l-49 128h-306l-49 -128h-133l262 667h146l262 -667q-73 -37 -73 -93q0 -24 11.5 -35t28.5 -11q19 0 30 10.5t17 27.5zM336 549l-120 -318h240z" />
    <glyph glyph-name="Aring" unicode="&#xc5;" horiz-adv-x="673" 
d="M538 0l-49 128h-306l-49 -128h-133l262 667h146l262 -667h-133zM336 549l-120 -318h240zM337 689q-21 0 -39.5 8t-32.5 22t-22 32.5t-8 39.5t8 39.5t22 33t32.5 22.5t39.5 8t39.5 -8t32 -22.5t21.5 -33t8 -39.5t-8 -39.5t-21.5 -32.5t-32 -22t-39.5 -8zM337 739
q22 0 36.5 15.5t14.5 36.5q0 22 -14.5 37t-36.5 15q-21 0 -36.5 -15t-15.5 -37q0 -21 15.5 -36.5t36.5 -15.5z" />
    <glyph glyph-name="Atilde" unicode="&#xc3;" horiz-adv-x="673" 
d="M538 0l-49 128h-306l-49 -128h-133l262 667h146l262 -667h-133zM336 549l-120 -318h240zM394 721q-26 0 -42 12t-28 27t-22.5 27t-26.5 12q-17 0 -29.5 -17t-12.5 -55h-57q0 62 26 98t77 36q26 0 42 -12t28 -27t22.5 -27t26.5 -12q17 0 29 17t12 55h58q0 -62 -26 -98
t-77 -36z" />
    <glyph glyph-name="uni1EA0" unicode="&#x1ea0;" horiz-adv-x="673" 
d="M538 0l-49 128h-306l-49 -128h-133l262 667h146l262 -667h-133zM336 549l-120 -318h240zM337 -190q-24 0 -41.5 17t-17.5 42q0 24 17.5 41.5t41.5 17.5t41 -17.5t17 -41.5q0 -25 -17 -42t-41 -17z" />
    <glyph glyph-name="uni1EA2" unicode="&#x1ea2;" horiz-adv-x="673" 
d="M538 0l-49 128h-306l-49 -128h-133l262 667h146l262 -667h-133zM336 549l-120 -318h240zM259 764q8 26 28 41t49 15q30 0 53 -16.5t23 -54.5q0 -16 -4.5 -27.5t-12.5 -24.5h-48q21 22 21 50q0 18 -9 26.5t-23 8.5t-23 -8t-14 -22z" />
    <glyph glyph-name="uni1EA4" unicode="&#x1ea4;" horiz-adv-x="673" 
d="M413 682l-77 72l-75 -72h-66l93 108h96l96 -108h-67zM538 0l-49 128h-306l-49 -128h-133l262 667h146l262 -667h-133zM336 549l-120 -318h240zM522 736h-75l140 108h100z" />
    <glyph glyph-name="uni1EAC" unicode="&#x1eac;" horiz-adv-x="673" 
d="M538 0l-49 128h-306l-49 -128h-133l262 667h146l262 -667h-133zM336 549l-120 -318h240zM412 723l-77 96l-75 -96h-66l93 144h96l96 -144h-67zM337 -190q-24 0 -41.5 17t-17.5 42q0 24 17.5 41.5t41.5 17.5t41 -17.5t17 -41.5q0 -25 -17 -42t-41 -17z" />
    <glyph glyph-name="uni1EA6" unicode="&#x1ea6;" horiz-adv-x="673" 
d="M413 682l-77 72l-75 -72h-66l93 108h96l96 -108h-67zM538 0l-49 128h-306l-49 -128h-133l262 667h146l262 -667h-133zM336 549l-120 -318h240zM154 736l-165 108h100l140 -108h-75z" />
    <glyph glyph-name="uni1EA8" unicode="&#x1ea8;" horiz-adv-x="673" 
d="M413 682l-77 72l-75 -72h-66l93 108h96l96 -108h-67zM538 0l-49 128h-306l-49 -128h-133l262 667h146l262 -667h-133zM336 549l-120 -318h240zM410 794.5q8 19.5 28 30.75t49 11.25q30 0 53 -12.375t23 -40.875q0 -12 -4.5 -20.625t-12.5 -18.375h-48q21 16.5 21 37.5
q0 13.5 -9 19.875t-23 6.375t-23 -6t-14 -16.5z" />
    <glyph glyph-name="uni1EAE" unicode="&#x1eae;" horiz-adv-x="673" 
d="M538 0l-49 128h-306l-49 -128h-133l262 667h146l262 -667h-133zM336 549l-120 -318h240zM351 744.5h-75l140 90h100zM511 750.5q-30 -30.75 -75.5 -48.375t-99.5 -17.625t-99.5 17.625t-76.5 48.375l48 30q22 -22.5 54 -36t74 -13.5q40 0 72.5 13.125t54.5 36.375l48 -30
v0z" />
    <glyph glyph-name="uni1EAA" unicode="&#x1eaa;" horiz-adv-x="673" 
d="M413 678l-77 48l-75 -48h-66l93 72h96l96 -72h-67zM538 0l-49 128h-306l-49 -128h-133l262 667h146l262 -667h-133zM336 549l-120 -318h240zM393 757q-26 0 -42 6t-28 13.5t-22.5 13.5t-26.5 6q-17 0 -29.5 -8.5t-12.5 -27.5h-57q0 31 26 49t77 18q26 0 42 -6t28 -13.5
t22.5 -13.5t26.5 -6q17 0 29 8.5t12 27.5h58q0 -31 -26 -49t-77 -18z" />
    <glyph glyph-name="uni1EB0" unicode="&#x1eb0;" horiz-adv-x="673" 
d="M538 0l-49 128h-306l-49 -128h-133l262 667h146l262 -667h-133zM336 549l-120 -318h240zM323 744.5l-165 90h100l140 -90h-75zM511 746.5q-30 -30.75 -75.5 -48.375t-99.5 -17.625t-99.5 17.625t-76.5 48.375l48 30q22 -22.5 54 -36t74 -13.5q40 0 72.5 13.125
t54.5 36.375l48 -30v0z" />
    <glyph glyph-name="uni1EB2" unicode="&#x1eb2;" horiz-adv-x="673" 
d="M538 0l-49 128h-306l-49 -128h-133l262 667h146l262 -667h-133zM336 549l-120 -318h240zM259 788.75q8 16.25 28 25.625t49 9.375q30 0 53 -10.3125t23 -34.0625q0 -10 -4.5 -17.1875t-12.5 -15.3125h-48q21 13.75 21 31.25q0 11.25 -9 16.5625t-23 5.3125t-23 -5
t-14 -13.75zM511 747.5q-30 -30.75 -75.5 -48.375t-99.5 -17.625t-99.5 17.625t-76.5 48.375l48 30q22 -22.5 54 -36t74 -13.5q40 0 72.5 13.125t54.5 36.375l48 -30v0z" />
    <glyph glyph-name="uni1EB4" unicode="&#x1eb4;" horiz-adv-x="673" 
d="M538 0l-49 128h-306l-49 -128h-133l262 667h146l262 -667h-133zM336 549l-120 -318h240zM512 728.771q-30 -23.7803 -75.5 -37.4111q-45.5 -13.6299 -99.5 -13.6299t-99.5 13.6299q-45.5 13.6309 -76.5 37.4111l48 23.2012q22 -17.4014 54 -27.8408
q32 -10.4404 74 -10.4404q40 0 72.5 10.1504t54.5 28.1309l48 -23.2012v0zM393 757q-26 0 -42 6t-28 13.5t-22.5 13.5t-26.5 6q-17 0 -29.5 -8.5t-12.5 -27.5h-57q0 31 26 49t77 18q26 0 42 -6t28 -13.5t22.5 -13.5t26.5 -6q17 0 29 8.5t12 27.5h58q0 -31 -26 -49t-77 -18z
" />
    <glyph glyph-name="uni1EB6" unicode="&#x1eb6;" horiz-adv-x="673" 
d="M538 0l-49 128h-306l-49 -128h-133l262 667h146l262 -667h-133zM336 549l-120 -318h240zM337 -190q-24 0 -41.5 17t-17.5 42q0 24 17.5 41.5t41.5 17.5t41 -17.5t17 -41.5q0 -25 -17 -42t-41 -17zM511 789q-30 -41 -75.5 -64.5t-99.5 -23.5t-99.5 23.5t-76.5 64.5l48 40
q22 -30 54 -48t74 -18q40 0 72.5 17.5t54.5 48.5l48 -40v0z" />
    <glyph glyph-name="AE" unicode="&#xc6;" horiz-adv-x="959" 
d="M455 0v128h-247l-77 -128h-133l410 667h504v-103h-340v-173h333v-103h-333v-185h340v-103h-457zM455 549l-191 -318h191v318z" />
    <glyph glyph-name="AEacute" unicode="&#x1fc;" horiz-adv-x="959" 
d="M530 723h-75l140 144h100zM455 0v128h-247l-77 -128h-133l410 667h504v-103h-340v-173h333v-103h-333v-185h340v-103h-457zM455 549l-191 -318h191v318z" />
    <glyph glyph-name="uni1E02" unicode="&#x1e02;" horiz-adv-x="648" 
d="M71 0v667h328q46 0 81.5 -13.5t59.5 -36.5t36.5 -54t12.5 -66q0 -32 -9.5 -58t-25.5 -45.5t-37 -32t-44 -17.5q27 -4 50.5 -18.5t41 -36.5t27.5 -50t10 -59q0 -39 -12.5 -72t-37.5 -57t-61 -37.5t-83 -13.5h-337zM375 391q45 0 69.5 24t24.5 62t-24.5 62.5t-69.5 24.5
h-187v-173h187zM380 103q48 0 75 24.5t27 68.5q0 38 -25.5 65t-76.5 27h-192v-185h192zM324 715q-24 0 -41.5 17t-17.5 42q0 24 17.5 41.5t41.5 17.5t41 -17.5t17 -41.5q0 -25 -17 -42t-41 -17z" />
    <glyph glyph-name="Cacute" unicode="&#x106;" horiz-adv-x="682" 
d="M405 723h-75l140 144h100zM391 -12q-74 0 -138 25t-111 70.5t-74 109t-27 140.5t27 140.5t74 109t111 70.5t138 25q51 0 92 -12t74 -33t58 -48t44 -57l-100 -51q-24 42 -69 69.5t-99 27.5q-50 0 -92 -18t-72.5 -50t-48 -76.5t-17.5 -96.5q0 -53 17.5 -97t48 -76t72.5 -50
t92 -18q54 0 99 27.5t69 69.5l100 -51q-19 -30 -44.5 -57t-58 -48t-73.5 -33t-92 -12z" />
    <glyph glyph-name="Ccedilla" unicode="&#xc7;" horiz-adv-x="682" 
d="M385 -190q-35 0 -63 9.5t-43 21.5l22 46q19 -15 40 -22t41 -7q22 0 39 9t17 27q0 30 -33 30q-21 0 -34 -15l-41 23l21 58q-66 6 -123 33.5t-98.5 72.5t-65 105t-23.5 132q0 77 27 140.5t74 109t111 70.5t138 25q51 0 92 -12t74 -33t58 -48t44 -57l-100 -51
q-24 42 -69 69.5t-99 27.5q-50 0 -92 -18t-72.5 -50t-48 -76.5t-17.5 -96.5q0 -53 17.5 -97t48 -76t72.5 -50t92 -18q54 0 99 27.5t69 69.5l100 -51q-18 -29 -42.5 -55.5t-55.5 -46.5t-70 -33t-86 -15l-15 -37q16 11 36 11q29 0 48 -19t19 -50q0 -19 -8.5 -34.5t-23.5 -26
t-34.5 -16.5t-41.5 -6z" />
    <glyph glyph-name="Ccircumflex" unicode="&#x108;" horiz-adv-x="682" 
d="M466 723l-77 96l-75 -96h-66l93 144h96l96 -144h-67zM391 -12q-74 0 -138 25t-111 70.5t-74 109t-27 140.5t27 140.5t74 109t111 70.5t138 25q51 0 92 -12t74 -33t58 -48t44 -57l-100 -51q-24 42 -69 69.5t-99 27.5q-50 0 -92 -18t-72.5 -50t-48 -76.5t-17.5 -96.5
q0 -53 17.5 -97t48 -76t72.5 -50t92 -18q54 0 99 27.5t69 69.5l100 -51q-19 -30 -44.5 -57t-58 -48t-73.5 -33t-92 -12z" />
    <glyph glyph-name="Cdotaccent" unicode="&#x10a;" horiz-adv-x="682" 
d="M391 -12q-74 0 -138 25t-111 70.5t-74 109t-27 140.5t27 140.5t74 109t111 70.5t138 25q51 0 92 -12t74 -33t58 -48t44 -57l-100 -51q-24 42 -69 69.5t-99 27.5q-50 0 -92 -18t-72.5 -50t-48 -76.5t-17.5 -96.5q0 -53 17.5 -97t48 -76t72.5 -50t92 -18q54 0 99 27.5
t69 69.5l100 -51q-19 -30 -44.5 -57t-58 -48t-73.5 -33t-92 -12zM393 715q-24 0 -41.5 17t-17.5 42q0 24 17.5 41.5t41.5 17.5t41 -17.5t17 -41.5q0 -25 -17 -42t-41 -17z" />
    <glyph glyph-name="Ccaron" unicode="&#x10c;" horiz-adv-x="682" 
d="M344 723l-96 144h66l78 -97l74 97h67l-93 -144h-96zM391 -12q-74 0 -138 25t-111 70.5t-74 109t-27 140.5t27 140.5t74 109t111 70.5t138 25q51 0 92 -12t74 -33t58 -48t44 -57l-100 -51q-24 42 -69 69.5t-99 27.5q-50 0 -92 -18t-72.5 -50t-48 -76.5t-17.5 -96.5
q0 -53 17.5 -97t48 -76t72.5 -50t92 -18q54 0 99 27.5t69 69.5l100 -51q-19 -30 -44.5 -57t-58 -48t-73.5 -33t-92 -12z" />
    <glyph glyph-name="Dcaron" unicode="&#x10e;" horiz-adv-x="710" 
d="M311 723l-96 144h66l78 -97l74 97h67l-93 -144h-96zM71 0v667h248q78 0 142.5 -24.5t110 -69t71 -106t25.5 -134.5q0 -74 -25.5 -135t-71 -105t-110 -68.5t-142.5 -24.5h-248zM319 103q54 0 97 18t72 49.5t44.5 73.5t15.5 89q0 48 -15 90.5t-44 73.5t-71.5 49t-98.5 18
h-131v-461h131z" />
    <glyph glyph-name="Dcroat" unicode="&#x110;" horiz-adv-x="736" 
d="M97 0v285h-88v86h88v296h248q78 0 142.5 -24.5t110 -69t71 -106t25.5 -134.5q0 -74 -25.5 -135t-71 -105t-110 -68.5t-142.5 -24.5h-248zM345 103q54 0 97 18t72 49.5t44.5 73.5t15.5 89q0 48 -15 90.5t-44 73.5t-71.5 49t-98.5 18h-131v-193h158v-86h-158v-182h131z" />
    <glyph glyph-name="uni1E0A" unicode="&#x1e0a;" horiz-adv-x="710" 
d="M71 0v667h248q78 0 142.5 -24.5t110 -69t71 -106t25.5 -134.5q0 -74 -25.5 -135t-71 -105t-110 -68.5t-142.5 -24.5h-248zM319 103q54 0 97 18t72 49.5t44.5 73.5t15.5 89q0 48 -15 90.5t-44 73.5t-71.5 49t-98.5 18h-131v-461h131zM355 715q-24 0 -41.5 17t-17.5 42
q0 24 17.5 41.5t41.5 17.5t41 -17.5t17 -41.5q0 -25 -17 -42t-41 -17z" />
    <glyph glyph-name="Eacute" unicode="&#xc9;" horiz-adv-x="577" 
d="M313 723h-75l140 144h100zM71 0v667h457v-103h-340v-173h333v-103h-333v-185h340v-103h-457z" />
    <glyph glyph-name="Ebreve" unicode="&#x114;" horiz-adv-x="577" 
d="M71 0v667h457v-103h-340v-173h333v-103h-333v-185h340v-103h-457zM476 789q-30 -41 -75.5 -64.5t-99.5 -23.5t-99.5 23.5t-76.5 64.5l48 40q22 -30 54 -48t74 -18q40 0 72.5 17.5t54.5 48.5l48 -40v0z" />
    <glyph glyph-name="Ecircumflex" unicode="&#xca;" horiz-adv-x="577" 
d="M375 723l-77 96l-75 -96h-66l93 144h96l96 -144h-67zM71 0v667h457v-103h-340v-173h333v-103h-333v-185h340v-103h-457z" />
    <glyph glyph-name="Edieresis" unicode="&#xcb;" horiz-adv-x="577" 
d="M463 775q0 -25 -17.5 -42t-41.5 -17t-41.5 17t-17.5 42q0 24 17.5 41t41.5 17t41.5 -17t17.5 -41zM253 775q0 -25 -17 -42t-41 -17q-25 0 -42 17t-17 42q0 24 17 41t42 17q24 0 41 -17t17 -41zM71 0v667h457v-103h-340v-173h333v-103h-333v-185h340v-103h-457z" />
    <glyph glyph-name="Edotaccent" unicode="&#x116;" horiz-adv-x="577" 
d="M71 0v667h457v-103h-340v-173h333v-103h-333v-185h340v-103h-457zM301 715q-24 0 -41.5 17t-17.5 42q0 24 17.5 41.5t41.5 17.5t41 -17.5t17 -41.5q0 -25 -17 -42t-41 -17z" />
    <glyph glyph-name="Egrave" unicode="&#xc8;" horiz-adv-x="577" 
d="M71 0v667h457v-103h-340v-173h333v-103h-333v-185h340v-103h-457zM285 723l-165 144h100l140 -144h-75z" />
    <glyph glyph-name="Emacron" unicode="&#x112;" horiz-adv-x="577" 
d="M71 0v667h457v-103h-340v-173h333v-103h-333v-185h340v-103h-457zM118 733v62h363v-62h-363z" />
    <glyph glyph-name="Eogonek" unicode="&#x118;" horiz-adv-x="577" 
d="M528 0q-73 -37 -73 -93q0 -24 11.5 -35t28.5 -11q19 0 30 10.5t17 27.5l45 -27q-12 -24 -34.5 -41t-57.5 -17q-38 0 -66.5 21t-28.5 68q0 28 12.5 52.5t35.5 44.5h-377v667h457v-103h-340v-173h333v-103h-333v-185h340v-103v0z" />
    <glyph glyph-name="Ecaron" unicode="&#x11a;" horiz-adv-x="577" 
d="M254 723l-96 144h66l78 -97l74 97h67l-93 -144h-96zM71 0v667h457v-103h-340v-173h333v-103h-333v-185h340v-103h-457z" />
    <glyph glyph-name="uni1EB8" unicode="&#x1eb8;" horiz-adv-x="577" 
d="M71 0v667h457v-103h-340v-173h333v-103h-333v-185h340v-103h-457zM301 -190q-24 0 -41.5 17t-17.5 42q0 24 17.5 41.5t41.5 17.5t41 -17.5t17 -41.5q0 -25 -17 -42t-41 -17z" />
    <glyph glyph-name="uni1EBA" unicode="&#x1eba;" horiz-adv-x="577" 
d="M71 0v667h457v-103h-340v-173h333v-103h-333v-185h340v-103h-457zM223 764q8 26 28 41t49 15q30 0 53 -16.5t23 -54.5q0 -16 -4.5 -27.5t-12.5 -24.5h-48q21 22 21 50q0 18 -9 26.5t-23 8.5t-23 -8t-14 -22z" />
    <glyph glyph-name="uni1EBC" unicode="&#x1ebc;" horiz-adv-x="577" 
d="M71 0v667h457v-103h-340v-173h333v-103h-333v-185h340v-103h-457zM357 721q-26 0 -42 12t-28 27t-22.5 27t-26.5 12q-17 0 -29.5 -17t-12.5 -55h-57q0 62 26 98t77 36q26 0 42 -12t28 -27t22.5 -27t26.5 -12q17 0 29 17t12 55h58q0 -62 -26 -98t-77 -36z" />
    <glyph glyph-name="uni1EBE" unicode="&#x1ebe;" horiz-adv-x="577" 
d="M380 682l-77 72l-75 -72h-66l93 108h96l96 -108h-67zM489 736h-75l140 108h100zM71 0v667h457v-103h-340v-173h333v-103h-333v-185h340v-103h-457z" />
    <glyph glyph-name="uni1EC0" unicode="&#x1ec0;" horiz-adv-x="577" 
d="M380 682l-77 72l-75 -72h-66l93 108h96l96 -108h-67zM71 0v667h457v-103h-340v-173h333v-103h-333v-185h340v-103h-457zM121 736l-165 108h100l140 -108h-75z" />
    <glyph glyph-name="uni1EC2" unicode="&#x1ec2;" horiz-adv-x="577" 
d="M380 682l-77 72l-75 -72h-66l93 108h96l96 -108h-67zM71 0v667h457v-103h-340v-173h333v-103h-333v-185h340v-103h-457zM377 794.5q8 19.5 28 30.75t49 11.25q30 0 53 -12.375t23 -40.875q0 -12 -4.5 -20.625t-12.5 -18.375h-48q21 16.5 21 37.5q0 13.5 -9 19.875
t-23 6.375t-23 -6t-14 -16.5z" />
    <glyph glyph-name="uni1EC4" unicode="&#x1ec4;" horiz-adv-x="577" 
d="M380 678l-77 48l-75 -48h-66l93 72h96l96 -72h-67zM71 0v667h457v-103h-340v-173h333v-103h-333v-185h340v-103h-457zM360 757q-26 0 -42 6t-28 13.5t-22.5 13.5t-26.5 6q-17 0 -29.5 -8.5t-12.5 -27.5h-57q0 31 26 49t77 18q26 0 42 -6t28 -13.5t22.5 -13.5t26.5 -6
q17 0 29 8.5t12 27.5h58q0 -31 -26 -49t-77 -18z" />
    <glyph glyph-name="uni1EC6" unicode="&#x1ec6;" horiz-adv-x="577" 
d="M375 723l-77 96l-75 -96h-66l93 144h96l96 -144h-67zM71 0v667h457v-103h-340v-173h333v-103h-333v-185h340v-103h-457zM301 -190q-24 0 -41.5 17t-17.5 42q0 24 17.5 41.5t41.5 17.5t41 -17.5t17 -41.5q0 -25 -17 -42t-41 -17z" />
    <glyph glyph-name="uni1E1E" unicode="&#x1e1e;" horiz-adv-x="562" 
d="M300 715q-24 0 -41.5 17t-17.5 42q0 24 17.5 41.5t41.5 17.5t41 -17.5t17 -41.5q0 -25 -17 -42t-41 -17zM71 0v667h457v-103h-340v-173h333v-103h-333v-288h-117z" />
    <glyph glyph-name="Gcircumflex" unicode="&#x11c;" horiz-adv-x="717" 
d="M470 723l-77 96l-75 -96h-66l93 144h96l96 -144h-67zM391 -13q-72 0 -136 24.5t-111.5 70t-75 109.5t-27.5 142t27.5 142t75 109t111.5 69.5t136 24.5q49 0 89.5 -11t73.5 -29.5t59.5 -44t46.5 -54.5l-96 -54q-26 38 -71 63.5t-102 25.5q-50 0 -92 -18t-72.5 -50
t-48 -76.5t-17.5 -96.5q0 -53 17.5 -97t48 -76.5t72.5 -50.5t92 -18q51 0 93 19.5t65 40.5v104h-199v103h316v-250q-50 -55 -118.5 -88t-156.5 -33z" />
    <glyph glyph-name="Gbreve" unicode="&#x11e;" horiz-adv-x="717" 
d="M391 -13q-72 0 -136 24.5t-111.5 70t-75 109.5t-27.5 142t27.5 142t75 109t111.5 69.5t136 24.5q49 0 89.5 -11t73.5 -29.5t59.5 -44t46.5 -54.5l-96 -54q-26 38 -71 63.5t-102 25.5q-50 0 -92 -18t-72.5 -50t-48 -76.5t-17.5 -96.5q0 -53 17.5 -97t48 -76.5t72.5 -50.5
t92 -18q51 0 93 19.5t65 40.5v104h-199v103h316v-250q-50 -55 -118.5 -88t-156.5 -33zM568 789q-30 -41 -75.5 -64.5t-99.5 -23.5t-99.5 23.5t-76.5 64.5l48 40q22 -30 54 -48t74 -18q40 0 72.5 17.5t54.5 48.5l48 -40v0z" />
    <glyph glyph-name="Gdotaccent" unicode="&#x120;" horiz-adv-x="717" 
d="M391 -13q-72 0 -136 24.5t-111.5 70t-75 109.5t-27.5 142t27.5 142t75 109t111.5 69.5t136 24.5q49 0 89.5 -11t73.5 -29.5t59.5 -44t46.5 -54.5l-96 -54q-26 38 -71 63.5t-102 25.5q-50 0 -92 -18t-72.5 -50t-48 -76.5t-17.5 -96.5q0 -53 17.5 -97t48 -76.5t72.5 -50.5
t92 -18q51 0 93 19.5t65 40.5v104h-199v103h316v-250q-50 -55 -118.5 -88t-156.5 -33zM393 715q-24 0 -41.5 17t-17.5 42q0 24 17.5 41.5t41.5 17.5t41 -17.5t17 -41.5q0 -25 -17 -42t-41 -17z" />
    <glyph glyph-name="Gcommaaccent" unicode="&#x122;" horiz-adv-x="717" 
d="M455 -138q0 -44 -22 -81.5t-56 -61.5l-39 31q21 13 39 36.5t22 45.5q-4 -2 -14 -2q-20 0 -34 14t-14 37t16 39.5t39 16.5q25 0 44 -19.5t19 -55.5zM391 -13q-72 0 -136 24.5t-111.5 70t-75 109.5t-27.5 142t27.5 142t75 109t111.5 69.5t136 24.5q49 0 89.5 -11
t73.5 -29.5t59.5 -44t46.5 -54.5l-96 -54q-26 38 -71 63.5t-102 25.5q-50 0 -92 -18t-72.5 -50t-48 -76.5t-17.5 -96.5q0 -53 17.5 -97t48 -76.5t72.5 -50.5t92 -18q51 0 93 19.5t65 40.5v104h-199v103h316v-250q-50 -55 -118.5 -88t-156.5 -33z" />
    <glyph glyph-name="Gbreve.alt1" horiz-adv-x="737" 
d="M568 789q-30 -41 -75.5 -64.5t-99.5 -23.5t-99.5 23.5t-76.5 64.5l48 40q22 -30 54 -48t74 -18q40 0 72.5 17.5t54.5 48.5l48 -40v0zM381 -13q-69 0 -130.5 24.5t-108 70t-74 109.5t-27.5 142t27.5 142t75 109t111.5 69.5t136 24.5q49 0 89.5 -11t73.5 -29.5t59.5 -44
t46.5 -54.5l-96 -54q-26 38 -71 63.5t-102 25.5q-50 0 -92 -18t-72.5 -50t-48 -76.5t-17.5 -96.5q0 -53 17.5 -97t48 -76.5t72.5 -50.5t92 -18q42 0 75.5 13.5t57.5 36t39.5 52t22.5 62.5h-236v103h364q0 -84 -22.5 -152.5t-65.5 -117t-104.5 -75t-140.5 -26.5z" />
    <glyph glyph-name="Gcommaaccent.alt1" horiz-adv-x="737" 
d="M455 -138q0 -44 -22 -81.5t-56 -61.5l-39 31q21 13 39 36.5t22 45.5q-4 -2 -14 -2q-20 0 -34 14t-14 37t16 39.5t39 16.5q25 0 44 -19.5t19 -55.5zM381 -13q-69 0 -130.5 24.5t-108 70t-74 109.5t-27.5 142t27.5 142t75 109t111.5 69.5t136 24.5q49 0 89.5 -11
t73.5 -29.5t59.5 -44t46.5 -54.5l-96 -54q-26 38 -71 63.5t-102 25.5q-50 0 -92 -18t-72.5 -50t-48 -76.5t-17.5 -96.5q0 -53 17.5 -97t48 -76.5t72.5 -50.5t92 -18q42 0 75.5 13.5t57.5 36t39.5 52t22.5 62.5h-236v103h364q0 -84 -22.5 -152.5t-65.5 -117t-104.5 -75
t-140.5 -26.5z" />
    <glyph glyph-name="Gcircumflex.alt1" horiz-adv-x="737" 
d="M465 723l-77 96l-75 -96h-66l93 144h96l96 -144h-67zM381 -13q-69 0 -130.5 24.5t-108 70t-74 109.5t-27.5 142t27.5 142t75 109t111.5 69.5t136 24.5q49 0 89.5 -11t73.5 -29.5t59.5 -44t46.5 -54.5l-96 -54q-26 38 -71 63.5t-102 25.5q-50 0 -92 -18t-72.5 -50
t-48 -76.5t-17.5 -96.5q0 -53 17.5 -97t48 -76.5t72.5 -50.5t92 -18q42 0 75.5 13.5t57.5 36t39.5 52t22.5 62.5h-236v103h364q0 -84 -22.5 -152.5t-65.5 -117t-104.5 -75t-140.5 -26.5z" />
    <glyph glyph-name="Gdotaccent.alt1" horiz-adv-x="737" 
d="M390 715q-24 0 -41.5 17t-17.5 42q0 24 17.5 41.5t41.5 17.5t41 -17.5t17 -41.5q0 -25 -17 -42t-41 -17zM381 -13q-69 0 -130.5 24.5t-108 70t-74 109.5t-27.5 142t27.5 142t75 109t111.5 69.5t136 24.5q49 0 89.5 -11t73.5 -29.5t59.5 -44t46.5 -54.5l-96 -54
q-26 38 -71 63.5t-102 25.5q-50 0 -92 -18t-72.5 -50t-48 -76.5t-17.5 -96.5q0 -53 17.5 -97t48 -76.5t72.5 -50.5t92 -18q42 0 75.5 13.5t57.5 36t39.5 52t22.5 62.5h-236v103h364q0 -84 -22.5 -152.5t-65.5 -117t-104.5 -75t-140.5 -26.5z" />
    <glyph glyph-name="Hbar" unicode="&#x126;" horiz-adv-x="741" 
d="M544 0v291h-347v-291h-117v496h-71v62h71v109h117v-109h347v109h117v-109h70v-62h-70v-496h-117zM544 394v102h-347v-102h347z" />
    <glyph glyph-name="Hcircumflex" unicode="&#x124;" horiz-adv-x="723" 
d="M435 723l-77 96l-75 -96h-66l93 144h96l96 -144h-67zM535 0v291h-347v-291h-117v667h117v-273h347v273h117v-667h-117z" />
    <glyph glyph-name="uni1E22" unicode="&#x1e22;" horiz-adv-x="723" 
d="M535 0v291h-347v-291h-117v667h117v-273h347v273h117v-667h-117zM361 715q-24 0 -41.5 17t-17.5 42q0 24 17.5 41.5t41.5 17.5t41 -17.5t17 -41.5q0 -25 -17 -42t-41 -17z" />
    <glyph glyph-name="Iacute" unicode="&#xcd;" horiz-adv-x="259" 
d="M71 0v667h117v-667h-117zM145 723h-75l140 144h100z" />
    <glyph glyph-name="Ibreve" unicode="&#x12c;" horiz-adv-x="259" 
d="M71 0v667h117v-667h-117zM307 789q-30 -41 -75.5 -64.5t-99.5 -23.5t-99.5 23.5t-76.5 64.5l48 40q22 -30 54 -48t74 -18q40 0 72.5 17.5t54.5 48.5l48 -40v0z" />
    <glyph glyph-name="Icircumflex" unicode="&#xce;" horiz-adv-x="259" 
d="M207 723l-77 96l-75 -96h-66l93 144h96l96 -144h-67zM71 0v667h117v-667h-117z" />
    <glyph glyph-name="Idieresis" unicode="&#xcf;" horiz-adv-x="259" 
d="M295 775q0 -25 -17.5 -42t-41.5 -17t-41.5 17t-17.5 42q0 24 17.5 41t41.5 17t41.5 -17t17.5 -41zM85 775q0 -25 -17 -42t-41 -17q-25 0 -42 17t-17 42q0 24 17 41t42 17q24 0 41 -17t17 -41zM71 0v667h117v-667h-117z" />
    <glyph glyph-name="Idotaccent" unicode="&#x130;" horiz-adv-x="259" 
d="M71 0v667h117v-667h-117zM131 715q-24 0 -41.5 17t-17.5 42q0 24 17.5 41.5t41.5 17.5t41 -17.5t17 -41.5q0 -25 -17 -42t-41 -17z" />
    <glyph glyph-name="Igrave" unicode="&#xcc;" horiz-adv-x="259" 
d="M71 0v667h117v-667h-117zM116 723l-165 144h100l140 -144h-75z" />
    <glyph glyph-name="Imacron" unicode="&#x12a;" horiz-adv-x="259" 
d="M71 0v667h117v-667h-117zM-50 733v62h363v-62h-363z" />
    <glyph glyph-name="Iogonek" unicode="&#x12e;" horiz-adv-x="259" 
d="M71 0v667h117v-667h-117zM247 -128q-12 -24 -34.5 -41t-57.5 -17q-38 0 -66.5 21t-28.5 68q0 38 23.5 70t64.5 54l40 -27q-73 -37 -73 -93q0 -24 11.5 -35t28.5 -11q19 0 30 10.5t17 27.5z" />
    <glyph glyph-name="Itilde" unicode="&#x128;" horiz-adv-x="259" 
d="M71 0v667h117v-667h-117zM189 721q-26 0 -42 12t-28 27t-22.5 27t-26.5 12q-17 0 -29.5 -17t-12.5 -55h-57q0 62 26 98t77 36q26 0 42 -12t28 -27t22.5 -27t26.5 -12q17 0 29 17t12 55h58q0 -62 -26 -98t-77 -36z" />
    <glyph glyph-name="uni1EC8" unicode="&#x1ec8;" horiz-adv-x="259" 
d="M71 0v667h117v-667h-117zM54 764q8 26 28 41t49 15q30 0 53 -16.5t23 -54.5q0 -16 -4.5 -27.5t-12.5 -24.5h-48q21 22 21 50q0 18 -9 26.5t-23 8.5t-23 -8t-14 -22z" />
    <glyph glyph-name="uni1ECA" unicode="&#x1eca;" horiz-adv-x="259" 
d="M71 0v667h117v-667h-117zM131 -190q-24 0 -41.5 17t-17.5 42q0 24 17.5 41.5t41.5 17.5t41 -17.5t17 -41.5q0 -25 -17 -42t-41 -17z" />
    <glyph glyph-name="IJ" unicode="&#x132;" horiz-adv-x="740" 
d="M71 0v667h117v-667h-117zM444 -12q-52 0 -97 16t-80 54l54 89q20 -22 48 -38.5t66 -16.5q54 0 85.5 33t31.5 88v454h117v-456q0 -57 -17 -99t-47 -69.5t-71.5 -41t-89.5 -13.5z" />
    <glyph glyph-name="Jcircumflex" unicode="&#x134;" horiz-adv-x="481" 
d="M428 723l-77 96l-75 -96h-66l93 144h96l96 -144h-67zM185 -12q-52 0 -97 16t-80 54l54 89q20 -22 48 -38.5t66 -16.5q54 0 85.5 33t31.5 88v454h117v-456q0 -57 -17 -99t-47 -69.5t-71.5 -41t-89.5 -13.5z" />
    <glyph glyph-name="Kcommaaccent" unicode="&#x136;" horiz-adv-x="630" 
d="M380 -138q0 -44 -22 -81.5t-56 -61.5l-39 31q21 13 39 36.5t22 45.5q-4 -2 -14 -2q-20 0 -34 14t-14 37t16 39.5t39 16.5q25 0 44 -19.5t19 -55.5zM470 0l-224 281l-58 -68v-213h-117v667h117v-318l261 318h145l-271 -315l291 -352h-144z" />
    <glyph glyph-name="Lacute" unicode="&#x139;" horiz-adv-x="517" 
d="M290 723h-75l140 144h100zM71 0v667h117v-564h294v-103h-411z" />
    <glyph glyph-name="Lcaron" unicode="&#x13d;" horiz-adv-x="517" 
d="M392 605q0 -44 -22 -81.5t-56 -61.5l-39 31q21 13 39 36.5t22 45.5q-4 -2 -14 -2q-20 0 -34 14t-14 37t16 39.5t39 16.5q25 0 44 -19.5t19 -55.5zM71 0v667h117v-564h294v-103h-411z" />
    <glyph glyph-name="Lcommaaccent" unicode="&#x13b;" horiz-adv-x="517" 
d="M323 -138q0 -44 -22 -81.5t-56 -61.5l-39 31q21 13 39 36.5t22 45.5q-4 -2 -14 -2q-20 0 -34 14t-14 37t16 39.5t39 16.5q25 0 44 -19.5t19 -55.5zM71 0v667h117v-564h294v-103h-411z" />
    <glyph glyph-name="Ldot" unicode="&#x13f;" horiz-adv-x="517" 
d="M71 0v667h117v-564h294v-103h-411zM455 341q0 -28 -20.5 -48.5t-49.5 -20.5t-49.5 20.5t-20.5 48.5q0 29 20.5 49.5t49.5 20.5t49.5 -20.5t20.5 -49.5z" />
    <glyph glyph-name="Lslash" unicode="&#x141;" horiz-adv-x="533" 
d="M9 301l78 45v321h117v-253l85 49v-97l-85 -49v-214h294v-103h-411v249l-78 -45v97z" />
    <glyph glyph-name="Nacute" unicode="&#x143;" horiz-adv-x="720" 
d="M374 723h-75l140 144h100zM536 0l-348 476v-476h-117v667h120l341 -463v463h117v-667h-113z" />
    <glyph glyph-name="Ncaron" unicode="&#x147;" horiz-adv-x="720" 
d="M312 723l-96 144h66l78 -97l74 97h67l-93 -144h-96zM536 0l-348 476v-476h-117v667h120l341 -463v463h117v-667h-113z" />
    <glyph glyph-name="Ncommaaccent" unicode="&#x145;" horiz-adv-x="720" 
d="M425 -138q0 -44 -22 -81.5t-56 -61.5l-39 31q21 13 39 36.5t22 45.5q-4 -2 -14 -2q-20 0 -34 14t-14 37t16 39.5t39 16.5q25 0 44 -19.5t19 -55.5zM536 0l-348 476v-476h-117v667h120l341 -463v463h117v-667h-113z" />
    <glyph glyph-name="Ntilde" unicode="&#xd1;" horiz-adv-x="720" 
d="M416 721q-26 0 -42 12t-28 27t-22.5 27t-26.5 12q-17 0 -29.5 -17t-12.5 -55h-57q0 62 26 98t77 36q26 0 42 -12t28 -27t22.5 -27t26.5 -12q17 0 29 17t12 55h58q0 -62 -26 -98t-77 -36zM536 0l-348 476v-476h-117v667h120l341 -463v463h117v-667h-113z" />
    <glyph glyph-name="Eng" unicode="&#x14a;" horiz-adv-x="720" 
d="M424 -196q-52 0 -97 16t-81 54l55 89q20 -22 48 -38.5t66 -16.5q48 0 79 27t36 72l-342 469v-476h-117v667h120l341 -463v463h117v-641q0 -57 -17 -99t-47 -69t-71.5 -40.5t-89.5 -13.5z" />
    <glyph glyph-name="Oacute" unicode="&#xd3;" horiz-adv-x="765" 
d="M397 723h-75l140 144h100zM382 -12q-75 0 -137.5 26t-108 72t-70.5 109t-25 138t25 138t70.5 109t108 72t137.5 26t137.5 -26t108 -72t70.5 -109t25 -138t-25 -138t-70.5 -109t-108 -72t-137.5 -26zM382 92q50 0 91 18.5t70 50.5t44.5 76.5t15.5 95.5q0 52 -15.5 96
t-44.5 76t-70 50.5t-91 18.5q-51 0 -91.5 -18.5t-69.5 -50.5t-44.5 -76t-15.5 -96q0 -51 15.5 -95.5t44.5 -76.5t69.5 -50.5t91.5 -18.5z" />
    <glyph glyph-name="Obreve" unicode="&#x14e;" horiz-adv-x="765" 
d="M382 -12q-75 0 -137.5 26t-108 72t-70.5 109t-25 138t25 138t70.5 109t108 72t137.5 26t137.5 -26t108 -72t70.5 -109t25 -138t-25 -138t-70.5 -109t-108 -72t-137.5 -26zM382 92q50 0 91 18.5t70 50.5t44.5 76.5t15.5 95.5q0 52 -15.5 96t-44.5 76t-70 50.5t-91 18.5
q-51 0 -91.5 -18.5t-69.5 -50.5t-44.5 -76t-15.5 -96q0 -51 15.5 -95.5t44.5 -76.5t69.5 -50.5t91.5 -18.5zM557 789q-30 -41 -75.5 -64.5t-99.5 -23.5t-99.5 23.5t-76.5 64.5l48 40q22 -30 54 -48t74 -18q40 0 72.5 17.5t54.5 48.5l48 -40v0z" />
    <glyph glyph-name="Ocircumflex" unicode="&#xd4;" horiz-adv-x="765" 
d="M460 723l-77 96l-75 -96h-66l93 144h96l96 -144h-67zM382 -12q-75 0 -137.5 26t-108 72t-70.5 109t-25 138t25 138t70.5 109t108 72t137.5 26t137.5 -26t108 -72t70.5 -109t25 -138t-25 -138t-70.5 -109t-108 -72t-137.5 -26zM382 92q50 0 91 18.5t70 50.5t44.5 76.5
t15.5 95.5q0 52 -15.5 96t-44.5 76t-70 50.5t-91 18.5q-51 0 -91.5 -18.5t-69.5 -50.5t-44.5 -76t-15.5 -96q0 -51 15.5 -95.5t44.5 -76.5t69.5 -50.5t91.5 -18.5z" />
    <glyph glyph-name="Odieresis" unicode="&#xd6;" horiz-adv-x="765" 
d="M546 775q0 -25 -17.5 -42t-41.5 -17t-41.5 17t-17.5 42q0 24 17.5 41t41.5 17t41.5 -17t17.5 -41zM336 775q0 -25 -17 -42t-41 -17q-25 0 -42 17t-17 42q0 24 17 41t42 17q24 0 41 -17t17 -41zM382 -12q-75 0 -137.5 26t-108 72t-70.5 109t-25 138t25 138t70.5 109
t108 72t137.5 26t137.5 -26t108 -72t70.5 -109t25 -138t-25 -138t-70.5 -109t-108 -72t-137.5 -26zM382 92q50 0 91 18.5t70 50.5t44.5 76.5t15.5 95.5q0 52 -15.5 96t-44.5 76t-70 50.5t-91 18.5q-51 0 -91.5 -18.5t-69.5 -50.5t-44.5 -76t-15.5 -96q0 -51 15.5 -95.5
t44.5 -76.5t69.5 -50.5t91.5 -18.5z" />
    <glyph glyph-name="Ograve" unicode="&#xd2;" horiz-adv-x="765" 
d="M369 723l-165 144h100l140 -144h-75zM382 -12q-75 0 -137.5 26t-108 72t-70.5 109t-25 138t25 138t70.5 109t108 72t137.5 26t137.5 -26t108 -72t70.5 -109t25 -138t-25 -138t-70.5 -109t-108 -72t-137.5 -26zM382 92q50 0 91 18.5t70 50.5t44.5 76.5t15.5 95.5
q0 52 -15.5 96t-44.5 76t-70 50.5t-91 18.5q-51 0 -91.5 -18.5t-69.5 -50.5t-44.5 -76t-15.5 -96q0 -51 15.5 -95.5t44.5 -76.5t69.5 -50.5t91.5 -18.5z" />
    <glyph glyph-name="Ohungarumlaut" unicode="&#x150;" horiz-adv-x="765" 
d="M328 723h-63l90 144h88zM474 723h-63l90 144h88zM382 -12q-75 0 -137.5 26t-108 72t-70.5 109t-25 138t25 138t70.5 109t108 72t137.5 26t137.5 -26t108 -72t70.5 -109t25 -138t-25 -138t-70.5 -109t-108 -72t-137.5 -26zM382 92q50 0 91 18.5t70 50.5t44.5 76.5
t15.5 95.5q0 52 -15.5 96t-44.5 76t-70 50.5t-91 18.5q-51 0 -91.5 -18.5t-69.5 -50.5t-44.5 -76t-15.5 -96q0 -51 15.5 -95.5t44.5 -76.5t69.5 -50.5t91.5 -18.5z" />
    <glyph glyph-name="Omacron" unicode="&#x14c;" horiz-adv-x="765" 
d="M200 733v62h363v-62h-363zM382 -12q-75 0 -137.5 26t-108 72t-70.5 109t-25 138t25 138t70.5 109t108 72t137.5 26t137.5 -26t108 -72t70.5 -109t25 -138t-25 -138t-70.5 -109t-108 -72t-137.5 -26zM382 92q50 0 91 18.5t70 50.5t44.5 76.5t15.5 95.5q0 52 -15.5 96
t-44.5 76t-70 50.5t-91 18.5q-51 0 -91.5 -18.5t-69.5 -50.5t-44.5 -76t-15.5 -96q0 -51 15.5 -95.5t44.5 -76.5t69.5 -50.5t91.5 -18.5z" />
    <glyph glyph-name="Oslash" unicode="&#xd8;" horiz-adv-x="765" 
d="M382 -12q-101 0 -179 46l-25 -34h-87l55 76q-50 47 -77.5 112.5t-27.5 144.5q0 75 25 138t70.5 109t108 72t137.5 26q48 0 90.5 -10.5t79.5 -30.5l22 30h87l-51 -71q53 -47 83 -114.5t30 -148.5q0 -75 -25 -138t-70.5 -109t-108 -72t-137.5 -26zM382 92q50 0 91 18.5
t70 50.5t44.5 76.5t15.5 95.5t-15.5 95.5t-44.5 76.5l-276 -383q24 -14 53 -22t62 -8zM161 333q0 -98 52 -164l275 379q-47 26 -106 26q-51 0 -91.5 -18.5t-69.5 -50.5t-44.5 -76t-15.5 -96z" />
    <glyph glyph-name="Oslashacute" unicode="&#x1fe;" horiz-adv-x="765" 
d="M397 723h-75l140 144h100zM382 -12q-101 0 -179 46l-25 -34h-87l55 76q-50 47 -77.5 112.5t-27.5 144.5q0 75 25 138t70.5 109t108 72t137.5 26q48 0 90.5 -10.5t79.5 -30.5l22 30h87l-51 -71q53 -47 83 -114.5t30 -148.5q0 -75 -25 -138t-70.5 -109t-108 -72t-137.5 -26
zM382 92q50 0 91 18.5t70 50.5t44.5 76.5t15.5 95.5t-15.5 95.5t-44.5 76.5l-276 -383q24 -14 53 -22t62 -8zM161 333q0 -98 52 -164l275 379q-47 26 -106 26q-51 0 -91.5 -18.5t-69.5 -50.5t-44.5 -76t-15.5 -96z" />
    <glyph glyph-name="Otilde" unicode="&#xd5;" horiz-adv-x="765" 
d="M382 -12q-75 0 -137.5 26t-108 72t-70.5 109t-25 138t25 138t70.5 109t108 72t137.5 26t137.5 -26t108 -72t70.5 -109t25 -138t-25 -138t-70.5 -109t-108 -72t-137.5 -26zM382 92q50 0 91 18.5t70 50.5t44.5 76.5t15.5 95.5q0 52 -15.5 96t-44.5 76t-70 50.5t-91 18.5
q-51 0 -91.5 -18.5t-69.5 -50.5t-44.5 -76t-15.5 -96q0 -51 15.5 -95.5t44.5 -76.5t69.5 -50.5t91.5 -18.5zM440 721q-26 0 -42 12t-28 27t-22.5 27t-26.5 12q-17 0 -29.5 -17t-12.5 -55h-57q0 62 26 98t77 36q26 0 42 -12t28 -27t22.5 -27t26.5 -12q17 0 29 17t12 55h58
q0 -62 -26 -98t-77 -36z" />
    <glyph glyph-name="uni1ECC" unicode="&#x1ecc;" horiz-adv-x="765" 
d="M382 -12q-75 0 -137.5 26t-108 72t-70.5 109t-25 138t25 138t70.5 109t108 72t137.5 26t137.5 -26t108 -72t70.5 -109t25 -138t-25 -138t-70.5 -109t-108 -72t-137.5 -26zM382 92q50 0 91 18.5t70 50.5t44.5 76.5t15.5 95.5q0 52 -15.5 96t-44.5 76t-70 50.5t-91 18.5
q-51 0 -91.5 -18.5t-69.5 -50.5t-44.5 -76t-15.5 -96q0 -51 15.5 -95.5t44.5 -76.5t69.5 -50.5t91.5 -18.5zM385 -190q-24 0 -41.5 17t-17.5 42q0 24 17.5 41.5t41.5 17.5t41 -17.5t17 -41.5q0 -25 -17 -42t-41 -17z" />
    <glyph glyph-name="uni1ECE" unicode="&#x1ece;" horiz-adv-x="765" 
d="M382 -12q-75 0 -137.5 26t-108 72t-70.5 109t-25 138t25 138t70.5 109t108 72t137.5 26t137.5 -26t108 -72t70.5 -109t25 -138t-25 -138t-70.5 -109t-108 -72t-137.5 -26zM382 92q50 0 91 18.5t70 50.5t44.5 76.5t15.5 95.5q0 52 -15.5 96t-44.5 76t-70 50.5t-91 18.5
q-51 0 -91.5 -18.5t-69.5 -50.5t-44.5 -76t-15.5 -96q0 -51 15.5 -95.5t44.5 -76.5t69.5 -50.5t91.5 -18.5zM304 764q8 26 28 41t49 15q30 0 53 -16.5t23 -54.5q0 -16 -4.5 -27.5t-12.5 -24.5h-48q21 22 21 50q0 18 -9 26.5t-23 8.5t-23 -8t-14 -22z" />
    <glyph glyph-name="uni1ED0" unicode="&#x1ed0;" horiz-adv-x="765" 
d="M454 682l-77 72l-75 -72h-66l93 108h96l96 -108h-67zM563 736h-75l140 108h100zM382 -12q-75 0 -137.5 26t-108 72t-70.5 109t-25 138t25 138t70.5 109t108 72t137.5 26t137.5 -26t108 -72t70.5 -109t25 -138t-25 -138t-70.5 -109t-108 -72t-137.5 -26zM382 92
q50 0 91 18.5t70 50.5t44.5 76.5t15.5 95.5q0 52 -15.5 96t-44.5 76t-70 50.5t-91 18.5q-51 0 -91.5 -18.5t-69.5 -50.5t-44.5 -76t-15.5 -96q0 -51 15.5 -95.5t44.5 -76.5t69.5 -50.5t91.5 -18.5z" />
    <glyph glyph-name="uni1ED2" unicode="&#x1ed2;" horiz-adv-x="765" 
d="M453 682l-77 72l-75 -72h-66l93 108h96l96 -108h-67zM382 -12q-75 0 -137.5 26t-108 72t-70.5 109t-25 138t25 138t70.5 109t108 72t137.5 26t137.5 -26t108 -72t70.5 -109t25 -138t-25 -138t-70.5 -109t-108 -72t-137.5 -26zM382 92q50 0 91 18.5t70 50.5t44.5 76.5
t15.5 95.5q0 52 -15.5 96t-44.5 76t-70 50.5t-91 18.5q-51 0 -91.5 -18.5t-69.5 -50.5t-44.5 -76t-15.5 -96q0 -51 15.5 -95.5t44.5 -76.5t69.5 -50.5t91.5 -18.5zM192 736l-165 108h100l140 -108h-75z" />
    <glyph glyph-name="uni1ED4" unicode="&#x1ed4;" horiz-adv-x="765" 
d="M452 682l-77 72l-75 -72h-66l93 108h96l96 -108h-67zM382 -12q-75 0 -137.5 26t-108 72t-70.5 109t-25 138t25 138t70.5 109t108 72t137.5 26t137.5 -26t108 -72t70.5 -109t25 -138t-25 -138t-70.5 -109t-108 -72t-137.5 -26zM382 92q50 0 91 18.5t70 50.5t44.5 76.5
t15.5 95.5q0 52 -15.5 96t-44.5 76t-70 50.5t-91 18.5q-51 0 -91.5 -18.5t-69.5 -50.5t-44.5 -76t-15.5 -96q0 -51 15.5 -95.5t44.5 -76.5t69.5 -50.5t91.5 -18.5zM449 794.5q8 19.5 28 30.75t49 11.25q30 0 53 -12.375t23 -40.875q0 -12 -4.5 -20.625t-12.5 -18.375h-48
q21 16.5 21 37.5q0 13.5 -9 19.875t-23 6.375t-23 -6t-14 -16.5z" />
    <glyph glyph-name="uni1ED6" unicode="&#x1ed6;" horiz-adv-x="765" 
d="M457 678l-77 48l-75 -48h-66l93 72h96l96 -72h-67zM382 -12q-75 0 -137.5 26t-108 72t-70.5 109t-25 138t25 138t70.5 109t108 72t137.5 26t137.5 -26t108 -72t70.5 -109t25 -138t-25 -138t-70.5 -109t-108 -72t-137.5 -26zM382 92q50 0 91 18.5t70 50.5t44.5 76.5
t15.5 95.5q0 52 -15.5 96t-44.5 76t-70 50.5t-91 18.5q-51 0 -91.5 -18.5t-69.5 -50.5t-44.5 -76t-15.5 -96q0 -51 15.5 -95.5t44.5 -76.5t69.5 -50.5t91.5 -18.5zM437 757q-26 0 -42 6t-28 13.5t-22.5 13.5t-26.5 6q-17 0 -29.5 -8.5t-12.5 -27.5h-57q0 31 26 49t77 18
q26 0 42 -6t28 -13.5t22.5 -13.5t26.5 -6q17 0 29 8.5t12 27.5h58q0 -31 -26 -49t-77 -18z" />
    <glyph glyph-name="uni1ED8" unicode="&#x1ed8;" horiz-adv-x="765" 
d="M460 723l-77 96l-75 -96h-66l93 144h96l96 -144h-67zM382 -12q-75 0 -137.5 26t-108 72t-70.5 109t-25 138t25 138t70.5 109t108 72t137.5 26t137.5 -26t108 -72t70.5 -109t25 -138t-25 -138t-70.5 -109t-108 -72t-137.5 -26zM382 92q50 0 91 18.5t70 50.5t44.5 76.5
t15.5 95.5q0 52 -15.5 96t-44.5 76t-70 50.5t-91 18.5q-51 0 -91.5 -18.5t-69.5 -50.5t-44.5 -76t-15.5 -96q0 -51 15.5 -95.5t44.5 -76.5t69.5 -50.5t91.5 -18.5zM385 -190q-24 0 -41.5 17t-17.5 42q0 24 17.5 41.5t41.5 17.5t41 -17.5t17 -41.5q0 -25 -17 -42t-41 -17z
" />
    <glyph glyph-name="Ohorn" unicode="&#x1a0;" horiz-adv-x="765" 
d="M382 -12q-75 0 -137.5 26t-108 72t-70.5 109t-25 138t25 138t70.5 109t108 72t137.5 26q79 0 144 -29t111 -80q17 14 29 33t16 36q-4 -2 -13 -2q-19 0 -31.5 13.5t-12.5 33.5q0 21 14.5 36t35.5 15q23 0 40 -18t17 -51q0 -39 -19 -73t-49 -57q28 -42 43.5 -93t15.5 -109
q0 -75 -25 -138t-70.5 -109t-108 -72t-137.5 -26zM382 92q50 0 91 18.5t70 50.5t44.5 76.5t15.5 95.5q0 52 -15.5 96t-44.5 76t-70 50.5t-91 18.5q-51 0 -91.5 -18.5t-69.5 -50.5t-44.5 -76t-15.5 -96q0 -51 15.5 -95.5t44.5 -76.5t69.5 -50.5t91.5 -18.5z" />
    <glyph glyph-name="uni1EDA" unicode="&#x1eda;" horiz-adv-x="765" 
d="M397 723h-75l140 144h100zM382 -12q-75 0 -137.5 26t-108 72t-70.5 109t-25 138t25 138t70.5 109t108 72t137.5 26q79 0 144 -29t111 -80q17 14 29 33t16 36q-4 -2 -13 -2q-19 0 -31.5 13.5t-12.5 33.5q0 21 14.5 36t35.5 15q23 0 40 -18t17 -51q0 -39 -19 -73t-49 -57
q28 -42 43.5 -93t15.5 -109q0 -75 -25 -138t-70.5 -109t-108 -72t-137.5 -26zM382 92q50 0 91 18.5t70 50.5t44.5 76.5t15.5 95.5q0 52 -15.5 96t-44.5 76t-70 50.5t-91 18.5q-51 0 -91.5 -18.5t-69.5 -50.5t-44.5 -76t-15.5 -96q0 -51 15.5 -95.5t44.5 -76.5t69.5 -50.5
t91.5 -18.5z" />
    <glyph glyph-name="uni1EDC" unicode="&#x1edc;" horiz-adv-x="765" 
d="M382 -12q-75 0 -137.5 26t-108 72t-70.5 109t-25 138t25 138t70.5 109t108 72t137.5 26q79 0 144 -29t111 -80q17 14 29 33t16 36q-4 -2 -13 -2q-19 0 -31.5 13.5t-12.5 33.5q0 21 14.5 36t35.5 15q23 0 40 -18t17 -51q0 -39 -19 -73t-49 -57q28 -42 43.5 -93t15.5 -109
q0 -75 -25 -138t-70.5 -109t-108 -72t-137.5 -26zM382 92q50 0 91 18.5t70 50.5t44.5 76.5t15.5 95.5q0 52 -15.5 96t-44.5 76t-70 50.5t-91 18.5q-51 0 -91.5 -18.5t-69.5 -50.5t-44.5 -76t-15.5 -96q0 -51 15.5 -95.5t44.5 -76.5t69.5 -50.5t91.5 -18.5zM369 723l-165 144
h100l140 -144h-75z" />
    <glyph glyph-name="uni1EDE" unicode="&#x1ede;" horiz-adv-x="765" 
d="M382 -12q-75 0 -137.5 26t-108 72t-70.5 109t-25 138t25 138t70.5 109t108 72t137.5 26q79 0 144 -29t111 -80q17 14 29 33t16 36q-4 -2 -13 -2q-19 0 -31.5 13.5t-12.5 33.5q0 21 14.5 36t35.5 15q23 0 40 -18t17 -51q0 -39 -19 -73t-49 -57q28 -42 43.5 -93t15.5 -109
q0 -75 -25 -138t-70.5 -109t-108 -72t-137.5 -26zM382 92q50 0 91 18.5t70 50.5t44.5 76.5t15.5 95.5q0 52 -15.5 96t-44.5 76t-70 50.5t-91 18.5q-51 0 -91.5 -18.5t-69.5 -50.5t-44.5 -76t-15.5 -96q0 -51 15.5 -95.5t44.5 -76.5t69.5 -50.5t91.5 -18.5zM305 764
q8 26 28 41t49 15q30 0 53 -16.5t23 -54.5q0 -16 -4.5 -27.5t-12.5 -24.5h-48q21 22 21 50q0 18 -9 26.5t-23 8.5t-23 -8t-14 -22z" />
    <glyph glyph-name="uni1EE0" unicode="&#x1ee0;" horiz-adv-x="765" 
d="M382 -12q-75 0 -137.5 26t-108 72t-70.5 109t-25 138t25 138t70.5 109t108 72t137.5 26q79 0 144 -29t111 -80q17 14 29 33t16 36q-4 -2 -13 -2q-19 0 -31.5 13.5t-12.5 33.5q0 21 14.5 36t35.5 15q23 0 40 -18t17 -51q0 -39 -19 -73t-49 -57q28 -42 43.5 -93t15.5 -109
q0 -75 -25 -138t-70.5 -109t-108 -72t-137.5 -26zM382 92q50 0 91 18.5t70 50.5t44.5 76.5t15.5 95.5q0 52 -15.5 96t-44.5 76t-70 50.5t-91 18.5q-51 0 -91.5 -18.5t-69.5 -50.5t-44.5 -76t-15.5 -96q0 -51 15.5 -95.5t44.5 -76.5t69.5 -50.5t91.5 -18.5zM440 721
q-26 0 -42 12t-28 27t-22.5 27t-26.5 12q-17 0 -29.5 -17t-12.5 -55h-57q0 62 26 98t77 36q26 0 42 -12t28 -27t22.5 -27t26.5 -12q17 0 29 17t12 55h58q0 -62 -26 -98t-77 -36z" />
    <glyph glyph-name="uni1EE2" unicode="&#x1ee2;" horiz-adv-x="765" 
d="M382 -12q-75 0 -137.5 26t-108 72t-70.5 109t-25 138t25 138t70.5 109t108 72t137.5 26q79 0 144 -29t111 -80q17 14 29 33t16 36q-4 -2 -13 -2q-19 0 -31.5 13.5t-12.5 33.5q0 21 14.5 36t35.5 15q23 0 40 -18t17 -51q0 -39 -19 -73t-49 -57q28 -42 43.5 -93t15.5 -109
q0 -75 -25 -138t-70.5 -109t-108 -72t-137.5 -26zM382 92q50 0 91 18.5t70 50.5t44.5 76.5t15.5 95.5q0 52 -15.5 96t-44.5 76t-70 50.5t-91 18.5q-51 0 -91.5 -18.5t-69.5 -50.5t-44.5 -76t-15.5 -96q0 -51 15.5 -95.5t44.5 -76.5t69.5 -50.5t91.5 -18.5zM385 -190
q-24 0 -41.5 17t-17.5 42q0 24 17.5 41.5t41.5 17.5t41 -17.5t17 -41.5q0 -25 -17 -42t-41 -17z" />
    <glyph glyph-name="OE" unicode="&#x152;" horiz-adv-x="1093" 
d="M588 0v96q-18 -27 -42.5 -47.5t-53 -34t-59.5 -20t-62 -6.5q-73 0 -133.5 26t-104 71.5t-68 109t-24.5 138.5t24.5 138t68 109t104 71.5t133.5 25.5q31 0 62 -6.5t59.5 -20t53 -33.5t42.5 -47v97h457v-103h-340v-173h333v-103h-333v-185h340v-103h-457zM588 439
q-26 67 -79.5 100.5t-122.5 33.5q-52 0 -93.5 -18t-71 -50t-45 -76t-15.5 -96t15.5 -96t45 -76.5t71 -50.5t93.5 -18q69 0 122.5 34.5t79.5 100.5v212z" />
    <glyph glyph-name="uni1E56" unicode="&#x1e56;" horiz-adv-x="608" 
d="M71 0v667h293q52 0 93 -17t68.5 -45.5t42 -66.5t14.5 -80t-14.5 -80t-42.5 -66.5t-68.5 -45.5t-92.5 -17h-176v-249h-117zM348 352q50 0 82 29t32 77t-32 77t-82 29h-160v-212h160zM304 715q-24 0 -41.5 17t-17.5 42q0 24 17.5 41.5t41.5 17.5t41 -17.5t17 -41.5
q0 -25 -17 -42t-41 -17z" />
    <glyph glyph-name="Racute" unicode="&#x154;" horiz-adv-x="628" 
d="M335 723h-75l140 144h100zM452 0l-148 249h-116v-249h-117v667h293q49 0 89.5 -15.5t69 -43t44 -66t15.5 -84.5q0 -45 -13.5 -79t-35.5 -58.5t-50.5 -39t-58.5 -19.5l163 -262h-135zM348 352q50 0 82 29t32 77t-32 77t-82 29h-160v-212h160z" />
    <glyph glyph-name="Rcaron" unicode="&#x158;" horiz-adv-x="628" 
d="M269 723l-96 144h66l78 -97l74 97h67l-93 -144h-96zM452 0l-148 249h-116v-249h-117v667h293q49 0 89.5 -15.5t69 -43t44 -66t15.5 -84.5q0 -45 -13.5 -79t-35.5 -58.5t-50.5 -39t-58.5 -19.5l163 -262h-135zM348 352q50 0 82 29t32 77t-32 77t-82 29h-160v-212h160z" />
    <glyph glyph-name="Rcommaaccent" unicode="&#x156;" horiz-adv-x="628" 
d="M381 -138q0 -44 -22 -81.5t-56 -61.5l-39 31q21 13 39 36.5t22 45.5q-4 -2 -14 -2q-20 0 -34 14t-14 37t16 39.5t39 16.5q25 0 44 -19.5t19 -55.5zM452 0l-148 249h-116v-249h-117v667h293q49 0 89.5 -15.5t69 -43t44 -66t15.5 -84.5q0 -45 -13.5 -79t-35.5 -58.5
t-50.5 -39t-58.5 -19.5l163 -262h-135zM348 352q50 0 82 29t32 77t-32 77t-82 29h-160v-212h160z" />
    <glyph glyph-name="Sacute" unicode="&#x15a;" horiz-adv-x="594" 
d="M309 723h-75l140 144h100zM299 -12q-93 0 -159.5 29t-111.5 77l65 90q35 -37 88 -64.5t123 -27.5q36 0 61.5 8t41.5 21t23.5 29t7.5 33q0 26 -16.5 43t-44 28.5t-62.5 20t-71.5 18.5t-71.5 23.5t-62.5 35t-44 53t-16.5 77.5q0 41 17.5 76.5t49.5 62t76.5 41.5t99.5 15
q78 0 140.5 -24t109.5 -69l-67 -87q-39 39 -89.5 57.5t-103.5 18.5q-52 0 -82.5 -22.5t-30.5 -60.5q0 -31 28.5 -47.5t72 -29t93.5 -25t93.5 -35t72 -60t28.5 -99.5q0 -42 -15 -79t-46.5 -65.5t-80.5 -45t-116 -16.5z" />
    <glyph glyph-name="Scaron" unicode="&#x160;" horiz-adv-x="594" 
d="M243 723l-96 144h66l78 -97l74 97h67l-93 -144h-96zM299 -12q-93 0 -159.5 29t-111.5 77l65 90q35 -37 88 -64.5t123 -27.5q36 0 61.5 8t41.5 21t23.5 29t7.5 33q0 26 -16.5 43t-44 28.5t-62.5 20t-71.5 18.5t-71.5 23.5t-62.5 35t-44 53t-16.5 77.5q0 41 17.5 76.5
t49.5 62t76.5 41.5t99.5 15q78 0 140.5 -24t109.5 -69l-67 -87q-39 39 -89.5 57.5t-103.5 18.5q-52 0 -82.5 -22.5t-30.5 -60.5q0 -31 28.5 -47.5t72 -29t93.5 -25t93.5 -35t72 -60t28.5 -99.5q0 -42 -15 -79t-46.5 -65.5t-80.5 -45t-116 -16.5z" />
    <glyph glyph-name="Scircumflex" unicode="&#x15c;" horiz-adv-x="594" 
d="M365 723l-77 96l-75 -96h-66l93 144h96l96 -144h-67zM299 -12q-93 0 -159.5 29t-111.5 77l65 90q35 -37 88 -64.5t123 -27.5q36 0 61.5 8t41.5 21t23.5 29t7.5 33q0 26 -16.5 43t-44 28.5t-62.5 20t-71.5 18.5t-71.5 23.5t-62.5 35t-44 53t-16.5 77.5q0 41 17.5 76.5
t49.5 62t76.5 41.5t99.5 15q78 0 140.5 -24t109.5 -69l-67 -87q-39 39 -89.5 57.5t-103.5 18.5q-52 0 -82.5 -22.5t-30.5 -60.5q0 -31 28.5 -47.5t72 -29t93.5 -25t93.5 -35t72 -60t28.5 -99.5q0 -42 -15 -79t-46.5 -65.5t-80.5 -45t-116 -16.5z" />
    <glyph glyph-name="Scedilla" unicode="&#x15e;" horiz-adv-x="594" 
d="M290 -194q-35 0 -63 9.5t-43 21.5l22 46q19 -15 40 -22t41 -7q22 0 39 9t17 27q0 30 -33 30q-21 0 -34 -15l-41 23l23 62q-77 6 -134 34t-96 70l65 90q35 -37 88 -64.5t123 -27.5q36 0 61.5 8t41.5 21t23.5 29t7.5 33q0 26 -16.5 43t-44 28.5t-62.5 20t-71.5 18.5
t-71.5 23.5t-62.5 35t-44 53t-16.5 77.5q0 41 17.5 76.5t49.5 62t76.5 41.5t99.5 15q78 0 140.5 -24t109.5 -69l-67 -87q-39 39 -89.5 57.5t-103.5 18.5q-52 0 -82.5 -22.5t-30.5 -60.5q0 -31 28.5 -47.5t72 -29t93.5 -25t93.5 -35t72 -60t28.5 -99.5q0 -41 -14.5 -77.5
t-44.5 -64.5t-76.5 -45t-110.5 -19l-16 -41q16 11 36 11q29 0 48 -19t19 -50q0 -19 -8.5 -34.5t-23.5 -26t-34.5 -16.5t-41.5 -6z" />
    <glyph glyph-name="Scommaaccent" unicode="&#x218;" horiz-adv-x="594" 
d="M358 -138q0 -44 -22 -81.5t-56 -61.5l-39 31q21 13 39 36.5t22 45.5q-4 -2 -14 -2q-20 0 -34 14t-14 37t16 39.5t39 16.5q25 0 44 -19.5t19 -55.5zM299 -12q-93 0 -159.5 29t-111.5 77l65 90q35 -37 88 -64.5t123 -27.5q36 0 61.5 8t41.5 21t23.5 29t7.5 33
q0 26 -16.5 43t-44 28.5t-62.5 20t-71.5 18.5t-71.5 23.5t-62.5 35t-44 53t-16.5 77.5q0 41 17.5 76.5t49.5 62t76.5 41.5t99.5 15q78 0 140.5 -24t109.5 -69l-67 -87q-39 39 -89.5 57.5t-103.5 18.5q-52 0 -82.5 -22.5t-30.5 -60.5q0 -31 28.5 -47.5t72 -29t93.5 -25
t93.5 -35t72 -60t28.5 -99.5q0 -42 -15 -79t-46.5 -65.5t-80.5 -45t-116 -16.5z" />
    <glyph glyph-name="uni1E60" unicode="&#x1e60;" horiz-adv-x="594" 
d="M299 -12q-93 0 -159.5 29t-111.5 77l65 90q35 -37 88 -64.5t123 -27.5q36 0 61.5 8t41.5 21t23.5 29t7.5 33q0 26 -16.5 43t-44 28.5t-62.5 20t-71.5 18.5t-71.5 23.5t-62.5 35t-44 53t-16.5 77.5q0 41 17.5 76.5t49.5 62t76.5 41.5t99.5 15q78 0 140.5 -24t109.5 -69
l-67 -87q-39 39 -89.5 57.5t-103.5 18.5q-52 0 -82.5 -22.5t-30.5 -60.5q0 -31 28.5 -47.5t72 -29t93.5 -25t93.5 -35t72 -60t28.5 -99.5q0 -42 -15 -79t-46.5 -65.5t-80.5 -45t-116 -16.5zM297 715q-24 0 -41.5 17t-17.5 42q0 24 17.5 41.5t41.5 17.5t41 -17.5t17 -41.5
q0 -25 -17 -42t-41 -17z" />
    <glyph glyph-name="Tbar" unicode="&#x166;" horiz-adv-x="577" 
d="M230 0v276h-141v62h141v226h-202v103h521v-103h-202v-226h141v-62h-141v-276h-117z" />
    <glyph glyph-name="Tcaron" unicode="&#x164;" horiz-adv-x="577" 
d="M242 723l-96 144h66l78 -97l74 97h67l-93 -144h-96zM230 0v564h-202v103h521v-103h-202v-564h-117z" />
    <glyph glyph-name="Tcommaaccent" unicode="&#x162;" horiz-adv-x="577" 
d="M353 -138q0 -44 -22 -81.5t-56 -61.5l-39 31q21 13 39 36.5t22 45.5q-4 -2 -14 -2q-20 0 -34 14t-14 37t16 39.5t39 16.5q25 0 44 -19.5t19 -55.5zM230 0v564h-202v103h521v-103h-202v-564h-117z" />
    <glyph glyph-name="uni021A" unicode="&#x21a;" horiz-adv-x="577" 
d="M353 -138q0 -44 -22 -81.5t-56 -61.5l-39 31q21 13 39 36.5t22 45.5q-4 -2 -14 -2q-20 0 -34 14t-14 37t16 39.5t39 16.5q25 0 44 -19.5t19 -55.5zM230 0v564h-202v103h521v-103h-202v-564h-117z" />
    <glyph glyph-name="uni1E6A" unicode="&#x1e6a;" horiz-adv-x="577" 
d="M230 0v564h-202v103h521v-103h-202v-564h-117zM288 715q-24 0 -41.5 17t-17.5 42q0 24 17.5 41.5t41.5 17.5t41 -17.5t17 -41.5q0 -25 -17 -42t-41 -17z" />
    <glyph glyph-name="Uacute" unicode="&#xda;" horiz-adv-x="719" 
d="M374 723h-75l140 144h100zM360 -12q-73 0 -127 20t-90 56t-54 86.5t-18 112.5v404h118v-400q0 -80 43 -127.5t128 -47.5q84 0 127 47.5t43 127.5v400h118v-403q0 -62 -18 -113t-54 -87t-90 -56t-126 -20z" />
    <glyph glyph-name="Ubreve" unicode="&#x16c;" horiz-adv-x="719" 
d="M360 -12q-73 0 -127 20t-90 56t-54 86.5t-18 112.5v404h118v-400q0 -80 43 -127.5t128 -47.5q84 0 127 47.5t43 127.5v400h118v-403q0 -62 -18 -113t-54 -87t-90 -56t-126 -20zM537 789q-30 -41 -75.5 -64.5t-99.5 -23.5t-99.5 23.5t-76.5 64.5l48 40q22 -30 54 -48
t74 -18q40 0 72.5 17.5t54.5 48.5l48 -40v0z" />
    <glyph glyph-name="Ucircumflex" unicode="&#xdb;" horiz-adv-x="719" 
d="M437 723l-77 96l-75 -96h-66l93 144h96l96 -144h-67zM360 -12q-73 0 -127 20t-90 56t-54 86.5t-18 112.5v404h118v-400q0 -80 43 -127.5t128 -47.5q84 0 127 47.5t43 127.5v400h118v-403q0 -62 -18 -113t-54 -87t-90 -56t-126 -20z" />
    <glyph glyph-name="Udieresis" unicode="&#xdc;" horiz-adv-x="719" 
d="M525 775q0 -25 -17.5 -42t-41.5 -17t-41.5 17t-17.5 42q0 24 17.5 41t41.5 17t41.5 -17t17.5 -41zM315 775q0 -25 -17 -42t-41 -17q-25 0 -42 17t-17 42q0 24 17 41t42 17q24 0 41 -17t17 -41zM360 -12q-73 0 -127 20t-90 56t-54 86.5t-18 112.5v404h118v-400
q0 -80 43 -127.5t128 -47.5q84 0 127 47.5t43 127.5v400h118v-403q0 -62 -18 -113t-54 -87t-90 -56t-126 -20z" />
    <glyph glyph-name="Ugrave" unicode="&#xd9;" horiz-adv-x="719" 
d="M360 -12q-73 0 -127 20t-90 56t-54 86.5t-18 112.5v404h118v-400q0 -80 43 -127.5t128 -47.5q84 0 127 47.5t43 127.5v400h118v-403q0 -62 -18 -113t-54 -87t-90 -56t-126 -20zM346 723l-165 144h100l140 -144h-75z" />
    <glyph glyph-name="Uhungarumlaut" unicode="&#x170;" horiz-adv-x="719" 
d="M360 -12q-73 0 -127 20t-90 56t-54 86.5t-18 112.5v404h118v-400q0 -80 43 -127.5t128 -47.5q84 0 127 47.5t43 127.5v400h118v-403q0 -62 -18 -113t-54 -87t-90 -56t-126 -20zM307 723h-63l90 144h88zM453 723h-63l90 144h88z" />
    <glyph glyph-name="Umacron" unicode="&#x16a;" horiz-adv-x="719" 
d="M360 -12q-73 0 -127 20t-90 56t-54 86.5t-18 112.5v404h118v-400q0 -80 43 -127.5t128 -47.5q84 0 127 47.5t43 127.5v400h118v-403q0 -62 -18 -113t-54 -87t-90 -56t-126 -20zM179 733v62h363v-62h-363z" />
    <glyph glyph-name="Uogonek" unicode="&#x172;" horiz-adv-x="719" 
d="M360 -12q-73 0 -127 20t-90 56t-54 86.5t-18 112.5v404h118v-400q0 -80 43 -127.5t128 -47.5q84 0 127 47.5t43 127.5v400h118v-403q0 -101 -46.5 -170.5t-141.5 -93.5q-73 -37 -73 -93q0 -24 11.5 -35t28.5 -11q19 0 30 10.5t17 27.5l45 -27q-12 -24 -34.5 -41
t-57.5 -17q-38 0 -66.5 21t-28.5 68t36 85h-8v0z" />
    <glyph glyph-name="Uring" unicode="&#x16e;" horiz-adv-x="719" 
d="M361 703q-21 0 -39.5 8t-32.5 22t-22 32.5t-8 39.5t8 39.5t22 33t32.5 22.5t39.5 8t39.5 -8t32 -22.5t21.5 -33t8 -39.5t-8 -39.5t-21.5 -32.5t-32 -22t-39.5 -8zM361 753q22 0 36.5 15.5t14.5 36.5q0 22 -14.5 37t-36.5 15q-21 0 -36.5 -15t-15.5 -37q0 -21 15.5 -36.5
t36.5 -15.5zM360 -12q-73 0 -127 20t-90 56t-54 86.5t-18 112.5v404h118v-400q0 -80 43 -127.5t128 -47.5q84 0 127 47.5t43 127.5v400h118v-403q0 -62 -18 -113t-54 -87t-90 -56t-126 -20z" />
    <glyph glyph-name="Utilde" unicode="&#x168;" horiz-adv-x="719" 
d="M360 -12q-73 0 -127 20t-90 56t-54 86.5t-18 112.5v404h118v-400q0 -80 43 -127.5t128 -47.5q84 0 127 47.5t43 127.5v400h118v-403q0 -62 -18 -113t-54 -87t-90 -56t-126 -20zM419 721q-26 0 -42 12t-28 27t-22.5 27t-26.5 12q-17 0 -29.5 -17t-12.5 -55h-57q0 62 26 98
t77 36q26 0 42 -12t28 -27t22.5 -27t26.5 -12q17 0 29 17t12 55h58q0 -62 -26 -98t-77 -36z" />
    <glyph glyph-name="uni1EE4" unicode="&#x1ee4;" horiz-adv-x="719" 
d="M360 -12q-73 0 -127 20t-90 56t-54 86.5t-18 112.5v404h118v-400q0 -80 43 -127.5t128 -47.5q84 0 127 47.5t43 127.5v400h118v-403q0 -62 -18 -113t-54 -87t-90 -56t-126 -20zM362 -190q-24 0 -41.5 17t-17.5 42q0 24 17.5 41.5t41.5 17.5t41 -17.5t17 -41.5
q0 -25 -17 -42t-41 -17z" />
    <glyph glyph-name="Uhorn" unicode="&#x1af;" horiz-adv-x="719" 
d="M760 727q0 -46 -29 -88.5t-83 -66.5v-308q0 -62 -18 -113t-54 -87t-90 -56t-126 -20q-73 0 -127 20t-90 56t-54 86.5t-18 112.5v404h118v-400q0 -80 43 -127.5t128 -47.5q84 0 127 47.5t43 127.5v400h118v-48q23 14 41 36t21 46q-4 -2 -13 -2q-19 0 -31.5 13t-12.5 34
q0 20 14.5 35t35.5 15q23 0 40 -18t17 -51z" />
    <glyph glyph-name="uni1EE6" unicode="&#x1ee6;" horiz-adv-x="719" 
d="M360 -12q-73 0 -127 20t-90 56t-54 86.5t-18 112.5v404h118v-400q0 -80 43 -127.5t128 -47.5q84 0 127 47.5t43 127.5v400h118v-403q0 -62 -18 -113t-54 -87t-90 -56t-126 -20zM284 764q8 26 28 41t49 15q30 0 53 -16.5t23 -54.5q0 -16 -4.5 -27.5t-12.5 -24.5h-48
q21 22 21 50q0 18 -9 26.5t-23 8.5t-23 -8t-14 -22z" />
    <glyph glyph-name="uni1EE8" unicode="&#x1ee8;" horiz-adv-x="719" 
d="M374 723h-75l140 144h100zM760 727q0 -46 -29 -88.5t-83 -66.5v-308q0 -62 -18 -113t-54 -87t-90 -56t-126 -20q-73 0 -127 20t-90 56t-54 86.5t-18 112.5v404h118v-400q0 -80 43 -127.5t128 -47.5q84 0 127 47.5t43 127.5v400h118v-48q23 14 41 36t21 46q-4 -2 -13 -2
q-19 0 -31.5 13t-12.5 34q0 20 14.5 35t35.5 15q23 0 40 -18t17 -51z" />
    <glyph glyph-name="uni1EEA" unicode="&#x1eea;" horiz-adv-x="719" 
d="M346 723l-165 144h100l140 -144h-75zM760 727q0 -46 -29 -88.5t-83 -66.5v-308q0 -62 -18 -113t-54 -87t-90 -56t-126 -20q-73 0 -127 20t-90 56t-54 86.5t-18 112.5v404h118v-400q0 -80 43 -127.5t128 -47.5q84 0 127 47.5t43 127.5v400h118v-48q23 14 41 36t21 46
q-4 -2 -13 -2q-19 0 -31.5 13t-12.5 34q0 20 14.5 35t35.5 15q23 0 40 -18t17 -51z" />
    <glyph glyph-name="uni1EEC" unicode="&#x1eec;" horiz-adv-x="719" 
d="M284 764q8 26 28 41t49 15q30 0 53 -16.5t23 -54.5q0 -16 -4.5 -27.5t-12.5 -24.5h-48q21 22 21 50q0 18 -9 26.5t-23 8.5t-23 -8t-14 -22zM760 727q0 -46 -29 -88.5t-83 -66.5v-308q0 -62 -18 -113t-54 -87t-90 -56t-126 -20q-73 0 -127 20t-90 56t-54 86.5t-18 112.5
v404h118v-400q0 -80 43 -127.5t128 -47.5q84 0 127 47.5t43 127.5v400h118v-48q23 14 41 36t21 46q-4 -2 -13 -2q-19 0 -31.5 13t-12.5 34q0 20 14.5 35t35.5 15q23 0 40 -18t17 -51z" />
    <glyph glyph-name="uni1EEE" unicode="&#x1eee;" horiz-adv-x="719" 
d="M760 727q0 -46 -29 -88.5t-83 -66.5v-308q0 -62 -18 -113t-54 -87t-90 -56t-126 -20q-73 0 -127 20t-90 56t-54 86.5t-18 112.5v404h118v-400q0 -80 43 -127.5t128 -47.5q84 0 127 47.5t43 127.5v400h118v-48q23 14 41 36t21 46q-4 -2 -13 -2q-19 0 -31.5 13t-12.5 34
q0 20 14.5 35t35.5 15q23 0 40 -18t17 -51zM418 721q-26 0 -42 12t-28 27t-22.5 27t-26.5 12q-17 0 -29.5 -17t-12.5 -55h-57q0 62 26 98t77 36q26 0 42 -12t28 -27t22.5 -27t26.5 -12q17 0 29 17t12 55h58q0 -62 -26 -98t-77 -36z" />
    <glyph glyph-name="uni1EF0" unicode="&#x1ef0;" horiz-adv-x="719" 
d="M362 -190q-24 0 -41.5 17t-17.5 42q0 24 17.5 41.5t41.5 17.5t41 -17.5t17 -41.5q0 -25 -17 -42t-41 -17zM760 727q0 -46 -29 -88.5t-83 -66.5v-308q0 -62 -18 -113t-54 -87t-90 -56t-126 -20q-73 0 -127 20t-90 56t-54 86.5t-18 112.5v404h118v-400q0 -80 43 -127.5
t128 -47.5q84 0 127 47.5t43 127.5v400h118v-48q23 14 41 36t21 46q-4 -2 -13 -2q-19 0 -31.5 13t-12.5 34q0 20 14.5 35t35.5 15q23 0 40 -18t17 -51z" />
    <glyph glyph-name="Wacute" unicode="&#x1e82;" horiz-adv-x="903" 
d="M465 723h-75l140 144h100zM581 0l-130 492l-129 -492h-125l-191 667h131l130 -514l138 514h93l138 -514l129 514h131l-190 -667h-125z" />
    <glyph glyph-name="Wcircumflex" unicode="&#x174;" horiz-adv-x="903" 
d="M527 723l-77 96l-75 -96h-66l93 144h96l96 -144h-67zM581 0l-130 492l-129 -492h-125l-191 667h131l130 -514l138 514h93l138 -514l129 514h131l-190 -667h-125z" />
    <glyph glyph-name="Wdieresis" unicode="&#x1e84;" horiz-adv-x="903" 
d="M615 775q0 -25 -17.5 -42t-41.5 -17t-41.5 17t-17.5 42q0 24 17.5 41t41.5 17t41.5 -17t17.5 -41zM405 775q0 -25 -17 -42t-41 -17q-25 0 -42 17t-17 42q0 24 17 41t42 17q24 0 41 -17t17 -41zM581 0l-130 492l-129 -492h-125l-191 667h131l130 -514l138 514h93l138 -514
l129 514h131l-190 -667h-125z" />
    <glyph glyph-name="Wgrave" unicode="&#x1e80;" horiz-adv-x="903" 
d="M581 0l-130 492l-129 -492h-125l-191 667h131l130 -514l138 514h93l138 -514l129 514h131l-190 -667h-125zM437 723l-165 144h100l140 -144h-75z" />
    <glyph glyph-name="Yacute" unicode="&#xdd;" horiz-adv-x="637" 
d="M260 0v277l-259 390h134l184 -286l182 286h134l-258 -390v-277h-117zM332 723h-75l140 144h100z" />
    <glyph glyph-name="Ycircumflex" unicode="&#x176;" horiz-adv-x="637" 
d="M395 723l-77 96l-75 -96h-66l93 144h96l96 -144h-67zM260 0v277l-259 390h134l184 -286l182 286h134l-258 -390v-277h-117z" />
    <glyph glyph-name="Ydieresis" unicode="&#x178;" horiz-adv-x="637" 
d="M483 775q0 -25 -17.5 -42t-41.5 -17t-41.5 17t-17.5 42q0 24 17.5 41t41.5 17t41.5 -17t17.5 -41zM273 775q0 -25 -17 -42t-41 -17q-25 0 -42 17t-17 42q0 24 17 41t42 17q24 0 41 -17t17 -41zM260 0v277l-259 390h134l184 -286l182 286h134l-258 -390v-277h-117z" />
    <glyph glyph-name="Ygrave" unicode="&#x1ef2;" horiz-adv-x="637" 
d="M260 0v277l-259 390h134l184 -286l182 286h134l-258 -390v-277h-117zM305 723l-165 144h100l140 -144h-75z" />
    <glyph glyph-name="Zacute" unicode="&#x179;" horiz-adv-x="589" 
d="M308 723h-75l140 144h100zM44 0v95l341 469h-341v103h493v-95l-341 -469h348v-103h-500z" />
    <glyph glyph-name="Zcaron" unicode="&#x17d;" horiz-adv-x="589" 
d="M243 723l-96 144h66l78 -97l74 97h67l-93 -144h-96zM44 0v95l341 469h-341v103h493v-95l-341 -469h348v-103h-500z" />
    <glyph glyph-name="Zdotaccent" unicode="&#x17b;" horiz-adv-x="589" 
d="M44 0v95l341 469h-341v103h493v-95l-341 -469h348v-103h-500zM290 715q-24 0 -41.5 17t-17.5 42q0 24 17.5 41.5t41.5 17.5t41 -17.5t17 -41.5q0 -25 -17 -42t-41 -17z" />
    <glyph glyph-name="Eth" unicode="&#xd0;" horiz-adv-x="736" 
d="M97 0v285h-88v86h88v296h248q78 0 142.5 -24.5t110 -69t71 -106t25.5 -134.5q0 -74 -25.5 -135t-71 -105t-110 -68.5t-142.5 -24.5h-248zM345 103q54 0 97 18t72 49.5t44.5 73.5t15.5 89q0 48 -15 90.5t-44 73.5t-71.5 49t-98.5 18h-131v-193h158v-86h-158v-182h131z" />
    <glyph glyph-name="Thorn" unicode="&#xde;" horiz-adv-x="608" 
d="M71 0v667h117v-113h176q52 0 93 -17t68.5 -45.5t42 -66.5t14.5 -81q0 -42 -14.5 -80t-42.5 -66t-68.5 -44.5t-92.5 -16.5h-176v-137h-117zM348 240q50 0 82 28.5t32 76.5t-32 77t-82 29h-160v-211h160z" />
    <glyph glyph-name="aacute" unicode="&#xe1;" horiz-adv-x="536" 
d="M363 0v52q-27 -31 -67.5 -47.5t-88.5 -16.5q-30 0 -60 10t-54 30t-39 50t-15 70q0 42 15 71.5t39 48.5t54 28t60 9q49 0 89.5 -15.5t66.5 -46.5v72q0 42 -31 66t-82 24q-81 0 -143 -61l-43 73q42 40 93.5 59t109.5 19q40 0 76.5 -9t64 -29.5t44 -54t16.5 -82.5v-320h-105
zM248 60q35 0 66 12.5t49 37.5v73q-18 25 -49 37.5t-66 12.5q-45 0 -74 -23.5t-29 -63.5q0 -39 29 -62.5t74 -23.5zM281 556h-75l140 144h100z" />
    <glyph glyph-name="abreve" unicode="&#x103;" horiz-adv-x="536" 
d="M363 0v52q-27 -31 -67.5 -47.5t-88.5 -16.5q-30 0 -60 10t-54 30t-39 50t-15 70q0 42 15 71.5t39 48.5t54 28t60 9q49 0 89.5 -15.5t66.5 -46.5v72q0 42 -31 66t-82 24q-81 0 -143 -61l-43 73q42 40 93.5 59t109.5 19q40 0 76.5 -9t64 -29.5t44 -54t16.5 -82.5v-320h-105
zM248 60q35 0 66 12.5t49 37.5v73q-18 25 -49 37.5t-66 12.5q-45 0 -74 -23.5t-29 -63.5q0 -39 29 -62.5t74 -23.5zM443 622q-30 -41 -75.5 -64.5t-99.5 -23.5t-99.5 23.5t-76.5 64.5l48 40q22 -30 54 -48t74 -18q40 0 72.5 17.5t54.5 48.5l48 -40v0z" />
    <glyph glyph-name="acircumflex" unicode="&#xe2;" horiz-adv-x="536" 
d="M363 0v52q-27 -31 -67.5 -47.5t-88.5 -16.5q-30 0 -60 10t-54 30t-39 50t-15 70q0 42 15 71.5t39 48.5t54 28t60 9q49 0 89.5 -15.5t66.5 -46.5v72q0 42 -31 66t-82 24q-81 0 -143 -61l-43 73q42 40 93.5 59t109.5 19q40 0 76.5 -9t64 -29.5t44 -54t16.5 -82.5v-320h-105
zM248 60q35 0 66 12.5t49 37.5v73q-18 25 -49 37.5t-66 12.5q-45 0 -74 -23.5t-29 -63.5q0 -39 29 -62.5t74 -23.5zM343 556l-77 96l-75 -96h-66l93 144h96l96 -144h-67z" />
    <glyph glyph-name="adieresis" unicode="&#xe4;" horiz-adv-x="536" 
d="M363 0v52q-27 -31 -67.5 -47.5t-88.5 -16.5q-30 0 -60 10t-54 30t-39 50t-15 70q0 42 15 71.5t39 48.5t54 28t60 9q49 0 89.5 -15.5t66.5 -46.5v72q0 42 -31 66t-82 24q-81 0 -143 -61l-43 73q42 40 93.5 59t109.5 19q40 0 76.5 -9t64 -29.5t44 -54t16.5 -82.5v-320h-105
zM248 60q35 0 66 12.5t49 37.5v73q-18 25 -49 37.5t-66 12.5q-45 0 -74 -23.5t-29 -63.5q0 -39 29 -62.5t74 -23.5zM431 608q0 -25 -17.5 -42t-41.5 -17t-41.5 17t-17.5 42q0 24 17.5 41t41.5 17t41.5 -17t17.5 -41zM221 608q0 -25 -17 -42t-41 -17q-25 0 -42 17t-17 42
q0 24 17 41t42 17q24 0 41 -17t17 -41z" />
    <glyph glyph-name="agrave" unicode="&#xe0;" horiz-adv-x="536" 
d="M363 0v52q-27 -31 -67.5 -47.5t-88.5 -16.5q-30 0 -60 10t-54 30t-39 50t-15 70q0 42 15 71.5t39 48.5t54 28t60 9q49 0 89.5 -15.5t66.5 -46.5v72q0 42 -31 66t-82 24q-81 0 -143 -61l-43 73q42 40 93.5 59t109.5 19q40 0 76.5 -9t64 -29.5t44 -54t16.5 -82.5v-320h-105
zM248 60q35 0 66 12.5t49 37.5v73q-18 25 -49 37.5t-66 12.5q-45 0 -74 -23.5t-29 -63.5q0 -39 29 -62.5t74 -23.5zM253 556l-165 144h100l140 -144h-75z" />
    <glyph glyph-name="amacron" unicode="&#x101;" horiz-adv-x="536" 
d="M363 0v52q-27 -31 -67.5 -47.5t-88.5 -16.5q-30 0 -60 10t-54 30t-39 50t-15 70q0 42 15 71.5t39 48.5t54 28t60 9q49 0 89.5 -15.5t66.5 -46.5v72q0 42 -31 66t-82 24q-81 0 -143 -61l-43 73q42 40 93.5 59t109.5 19q40 0 76.5 -9t64 -29.5t44 -54t16.5 -82.5v-320h-105
zM248 60q35 0 66 12.5t49 37.5v73q-18 25 -49 37.5t-66 12.5q-45 0 -74 -23.5t-29 -63.5q0 -39 29 -62.5t74 -23.5zM86 566v62h363v-62h-363z" />
    <glyph glyph-name="aogonek" unicode="&#x105;" horiz-adv-x="536" 
d="M527 -128q-12 -24 -34.5 -41t-57.5 -17q-38 0 -66.5 21t-28.5 68q0 28 12.5 52.5t35.5 44.5h-25v52q-27 -31 -67.5 -47.5t-88.5 -16.5q-30 0 -60 10t-54 30t-39 50t-15 70q0 42 15 71.5t39 48.5t54 28t60 9q49 0 89.5 -15.5t66.5 -46.5v72q0 42 -31 66t-82 24
q-81 0 -143 -61l-43 73q42 40 93.5 59t109.5 19q40 0 76.5 -9t64 -29.5t44 -54t16.5 -82.5v-320q-73 -37 -73 -93q0 -24 11.5 -35t28.5 -11q19 0 30 10.5t17 27.5zM248 60q35 0 66 12.5t49 37.5v73q-18 25 -49 37.5t-66 12.5q-45 0 -74 -23.5t-29 -63.5q0 -39 29 -62.5
t74 -23.5z" />
    <glyph glyph-name="aring" unicode="&#xe5;" horiz-adv-x="536" 
d="M363 0v52q-27 -31 -67.5 -47.5t-88.5 -16.5q-30 0 -60 10t-54 30t-39 50t-15 70q0 42 15 71.5t39 48.5t54 28t60 9q49 0 89.5 -15.5t66.5 -46.5v72q0 42 -31 66t-82 24q-81 0 -143 -61l-43 73q42 40 93.5 59t109.5 19q40 0 76.5 -9t64 -29.5t44 -54t16.5 -82.5v-320h-105
zM248 60q35 0 66 12.5t49 37.5v73q-18 25 -49 37.5t-66 12.5q-45 0 -74 -23.5t-29 -63.5q0 -39 29 -62.5t74 -23.5zM268 536q-21 0 -39.5 8t-32.5 22t-22 32.5t-8 39.5t8 39.5t22 33t32.5 22.5t39.5 8t39.5 -8t32 -22.5t21.5 -33t8 -39.5t-8 -39.5t-21.5 -32.5t-32 -22
t-39.5 -8zM268 586q22 0 36.5 15.5t14.5 36.5q0 22 -14.5 37t-36.5 15q-21 0 -36.5 -15t-15.5 -37q0 -21 15.5 -36.5t36.5 -15.5z" />
    <glyph glyph-name="atilde" unicode="&#xe3;" horiz-adv-x="536" 
d="M363 0v52q-27 -31 -67.5 -47.5t-88.5 -16.5q-30 0 -60 10t-54 30t-39 50t-15 70q0 42 15 71.5t39 48.5t54 28t60 9q49 0 89.5 -15.5t66.5 -46.5v72q0 42 -31 66t-82 24q-81 0 -143 -61l-43 73q42 40 93.5 59t109.5 19q40 0 76.5 -9t64 -29.5t44 -54t16.5 -82.5v-320h-105
zM248 60q35 0 66 12.5t49 37.5v73q-18 25 -49 37.5t-66 12.5q-45 0 -74 -23.5t-29 -63.5q0 -39 29 -62.5t74 -23.5zM325 554q-26 0 -42 12t-28 27t-22.5 27t-26.5 12q-17 0 -29.5 -17t-12.5 -55h-57q0 62 26 98t77 36q26 0 42 -12t28 -27t22.5 -27t26.5 -12q17 0 29 17
t12 55h58q0 -62 -26 -98t-77 -36z" />
    <glyph glyph-name="uni1EA1" unicode="&#x1ea1;" horiz-adv-x="536" 
d="M363 0v52q-27 -31 -67.5 -47.5t-88.5 -16.5q-30 0 -60 10t-54 30t-39 50t-15 70q0 42 15 71.5t39 48.5t54 28t60 9q49 0 89.5 -15.5t66.5 -46.5v72q0 42 -31 66t-82 24q-81 0 -143 -61l-43 73q42 40 93.5 59t109.5 19q40 0 76.5 -9t64 -29.5t44 -54t16.5 -82.5v-320h-105
zM248 60q35 0 66 12.5t49 37.5v73q-18 25 -49 37.5t-66 12.5q-45 0 -74 -23.5t-29 -63.5q0 -39 29 -62.5t74 -23.5zM268 -190q-24 0 -41.5 17t-17.5 42q0 24 17.5 41.5t41.5 17.5t41 -17.5t17 -41.5q0 -25 -17 -42t-41 -17z" />
    <glyph glyph-name="uni1EA3" unicode="&#x1ea3;" horiz-adv-x="536" 
d="M363 0v52q-27 -31 -67.5 -47.5t-88.5 -16.5q-30 0 -60 10t-54 30t-39 50t-15 70q0 42 15 71.5t39 48.5t54 28t60 9q49 0 89.5 -15.5t66.5 -46.5v72q0 42 -31 66t-82 24q-81 0 -143 -61l-43 73q42 40 93.5 59t109.5 19q40 0 76.5 -9t64 -29.5t44 -54t16.5 -82.5v-320h-105
zM248 60q35 0 66 12.5t49 37.5v73q-18 25 -49 37.5t-66 12.5q-45 0 -74 -23.5t-29 -63.5q0 -39 29 -62.5t74 -23.5zM191 595q8 26 28 41t49 15q30 0 53 -16.5t23 -54.5q0 -16 -4.5 -27.5t-12.5 -24.5h-48q21 22 21 50q0 18 -9 26.5t-23 8.5t-23 -8t-14 -22z" />
    <glyph glyph-name="uni1EA5" unicode="&#x1ea5;" horiz-adv-x="536" 
d="M363 0v52q-27 -31 -67.5 -47.5t-88.5 -16.5q-30 0 -60 10t-54 30t-39 50t-15 70q0 42 15 71.5t39 48.5t54 28t60 9q49 0 89.5 -15.5t66.5 -46.5v72q0 42 -31 66t-82 24q-81 0 -143 -61l-43 73q42 40 93.5 59t109.5 19q40 0 76.5 -9t64 -29.5t44 -54t16.5 -82.5v-320h-105
zM248 60q35 0 66 12.5t49 37.5v73q-18 25 -49 37.5t-66 12.5q-45 0 -74 -23.5t-29 -63.5q0 -39 29 -62.5t74 -23.5zM343 556l-77 96l-75 -96h-66l93 144h96l96 -144h-67zM448 626h-75l140 144h100z" />
    <glyph glyph-name="uni1EAD" unicode="&#x1ead;" horiz-adv-x="536" 
d="M363 0v52q-27 -31 -67.5 -47.5t-88.5 -16.5q-30 0 -60 10t-54 30t-39 50t-15 70q0 42 15 71.5t39 48.5t54 28t60 9q49 0 89.5 -15.5t66.5 -46.5v72q0 42 -31 66t-82 24q-81 0 -143 -61l-43 73q42 40 93.5 59t109.5 19q40 0 76.5 -9t64 -29.5t44 -54t16.5 -82.5v-320h-105
zM248 60q35 0 66 12.5t49 37.5v73q-18 25 -49 37.5t-66 12.5q-45 0 -74 -23.5t-29 -63.5q0 -39 29 -62.5t74 -23.5zM343 556l-77 96l-75 -96h-66l93 144h96l96 -144h-67zM268 -190q-24 0 -41.5 17t-17.5 42q0 24 17.5 41.5t41.5 17.5t41 -17.5t17 -41.5q0 -25 -17 -42
t-41 -17z" />
    <glyph glyph-name="uni1EA7" unicode="&#x1ea7;" horiz-adv-x="536" 
d="M363 0v52q-27 -31 -67.5 -47.5t-88.5 -16.5q-30 0 -60 10t-54 30t-39 50t-15 70q0 42 15 71.5t39 48.5t54 28t60 9q49 0 89.5 -15.5t66.5 -46.5v72q0 42 -31 66t-82 24q-81 0 -143 -61l-43 73q42 40 93.5 59t109.5 19q40 0 76.5 -9t64 -29.5t44 -54t16.5 -82.5v-320h-105
zM248 60q35 0 66 12.5t49 37.5v73q-18 25 -49 37.5t-66 12.5q-45 0 -74 -23.5t-29 -63.5q0 -39 29 -62.5t74 -23.5zM343 556l-77 96l-75 -96h-66l93 144h96l96 -144h-67zM87 626l-165 144h100l140 -144h-75z" />
    <glyph glyph-name="uni1EA9" unicode="&#x1ea9;" horiz-adv-x="536" 
d="M363 0v52q-27 -31 -67.5 -47.5t-88.5 -16.5q-30 0 -60 10t-54 30t-39 50t-15 70q0 42 15 71.5t39 48.5t54 28t60 9q49 0 89.5 -15.5t66.5 -46.5v72q0 42 -31 66t-82 24q-81 0 -143 -61l-43 73q42 40 93.5 59t109.5 19q40 0 76.5 -9t64 -29.5t44 -54t16.5 -82.5v-320h-105
zM248 60q35 0 66 12.5t49 37.5v73q-18 25 -49 37.5t-66 12.5q-45 0 -74 -23.5t-29 -63.5q0 -39 29 -62.5t74 -23.5zM343 556l-77 96l-75 -96h-66l93 144h96l96 -144h-67zM288 734q8 26 28 41t49 15q30 0 53 -16.5t23 -54.5q0 -16 -4.5 -27.5t-12.5 -24.5h-48q21 22 21 50
q0 18 -9 26.5t-23 8.5t-23 -8t-14 -22z" />
    <glyph glyph-name="uni1EAF" unicode="&#x1eaf;" horiz-adv-x="536" 
d="M363 0v52q-27 -31 -67.5 -47.5t-88.5 -16.5q-30 0 -60 10t-54 30t-39 50t-15 70q0 42 15 71.5t39 48.5t54 28t60 9q49 0 89.5 -15.5t66.5 -46.5v72q0 42 -31 66t-82 24q-81 0 -143 -61l-43 73q42 40 93.5 59t109.5 19q40 0 76.5 -9t64 -29.5t44 -54t16.5 -82.5v-320h-105
zM248 60q35 0 66 12.5t49 37.5v73q-18 25 -49 37.5t-66 12.5q-45 0 -74 -23.5t-29 -63.5q0 -39 29 -62.5t74 -23.5zM284 629h-75l140 144h100zM443 607q-30 -41 -75.5 -64.5t-99.5 -23.5t-99.5 23.5t-76.5 64.5l48 40q22 -30 54 -48t74 -18q40 0 72.5 17.5t54.5 48.5l48 -40
v0z" />
    <glyph glyph-name="uni1EAB" unicode="&#x1eab;" horiz-adv-x="536" 
d="M363 0v52q-27 -31 -67.5 -47.5t-88.5 -16.5q-30 0 -60 10t-54 30t-39 50t-15 70q0 42 15 71.5t39 48.5t54 28t60 9q49 0 89.5 -15.5t66.5 -46.5v72q0 42 -31 66t-82 24q-81 0 -143 -61l-43 73q42 40 93.5 59t109.5 19q40 0 76.5 -9t64 -29.5t44 -54t16.5 -82.5v-320h-105
zM248 60q35 0 66 12.5t49 37.5v73q-18 25 -49 37.5t-66 12.5q-45 0 -74 -23.5t-29 -63.5q0 -39 29 -62.5t74 -23.5zM343 524l-77 96l-75 -96h-66l93 144h96l96 -144h-67zM325 682q-26 0 -42 12t-28 27t-22.5 27t-26.5 12q-17 0 -29.5 -17t-12.5 -55h-57q0 62 26 98t77 36
q26 0 42 -12t28 -27t22.5 -27t26.5 -12q17 0 29 17t12 55h58q0 -62 -26 -98t-77 -36z" />
    <glyph glyph-name="uni1EB1" unicode="&#x1eb1;" horiz-adv-x="536" 
d="M363 0v52q-27 -31 -67.5 -47.5t-88.5 -16.5q-30 0 -60 10t-54 30t-39 50t-15 70q0 42 15 71.5t39 48.5t54 28t60 9q49 0 89.5 -15.5t66.5 -46.5v72q0 42 -31 66t-82 24q-81 0 -143 -61l-43 73q42 40 93.5 59t109.5 19q40 0 76.5 -9t64 -29.5t44 -54t16.5 -82.5v-320h-105
zM248 60q35 0 66 12.5t49 37.5v73q-18 25 -49 37.5t-66 12.5q-45 0 -74 -23.5t-29 -63.5q0 -39 29 -62.5t74 -23.5zM249 629l-165 144h100l140 -144h-75zM443 610q-30 -41 -75.5 -64.5t-99.5 -23.5t-99.5 23.5t-76.5 64.5l48 40q22 -30 54 -48t74 -18q40 0 72.5 17.5
t54.5 48.5l48 -40v0z" />
    <glyph glyph-name="uni1EB3" unicode="&#x1eb3;" horiz-adv-x="536" 
d="M363 0v52q-27 -31 -67.5 -47.5t-88.5 -16.5q-30 0 -60 10t-54 30t-39 50t-15 70q0 42 15 71.5t39 48.5t54 28t60 9q49 0 89.5 -15.5t66.5 -46.5v72q0 42 -31 66t-82 24q-81 0 -143 -61l-43 73q42 40 93.5 59t109.5 19q40 0 76.5 -9t64 -29.5t44 -54t16.5 -82.5v-320h-105
zM248 60q35 0 66 12.5t49 37.5v73q-18 25 -49 37.5t-66 12.5q-45 0 -74 -23.5t-29 -63.5q0 -39 29 -62.5t74 -23.5zM191 700q8 26 28 41t49 15q30 0 53 -16.5t23 -54.5q0 -16 -4.5 -27.5t-12.5 -24.5h-48q21 22 21 50q0 18 -9 26.5t-23 8.5t-23 -8t-14 -22zM443 610
q-30 -41 -75.5 -64.5t-99.5 -23.5t-99.5 23.5t-76.5 64.5l48 40q22 -30 54 -48t74 -18q40 0 72.5 17.5t54.5 48.5l48 -40v0z" />
    <glyph glyph-name="uni1EB5" unicode="&#x1eb5;" horiz-adv-x="536" 
d="M363 0v52q-27 -31 -67.5 -47.5t-88.5 -16.5q-30 0 -60 10t-54 30t-39 50t-15 70q0 42 15 71.5t39 48.5t54 28t60 9q49 0 89.5 -15.5t66.5 -46.5v72q0 42 -31 66t-82 24q-81 0 -143 -61l-43 73q42 40 93.5 59t109.5 19q40 0 76.5 -9t64 -29.5t44 -54t16.5 -82.5v-320h-105
zM248 60q35 0 66 12.5t49 37.5v73q-18 25 -49 37.5t-66 12.5q-45 0 -74 -23.5t-29 -63.5q0 -39 29 -62.5t74 -23.5zM443 610q-30 -41 -75.5 -64.5t-99.5 -23.5t-99.5 23.5t-76.5 64.5l48 40q22 -30 54 -48t74 -18q40 0 72.5 17.5t54.5 48.5l48 -40v0zM325 658q-26 0 -42 12
t-28 27t-22.5 27t-26.5 12q-17 0 -29.5 -17t-12.5 -55h-57q0 62 26 98t77 36q26 0 42 -12t28 -27t22.5 -27t26.5 -12q17 0 29 17t12 55h58q0 -62 -26 -98t-77 -36z" />
    <glyph glyph-name="uni1EB7" unicode="&#x1eb7;" horiz-adv-x="536" 
d="M363 0v52q-27 -31 -67.5 -47.5t-88.5 -16.5q-30 0 -60 10t-54 30t-39 50t-15 70q0 42 15 71.5t39 48.5t54 28t60 9q49 0 89.5 -15.5t66.5 -46.5v72q0 42 -31 66t-82 24q-81 0 -143 -61l-43 73q42 40 93.5 59t109.5 19q40 0 76.5 -9t64 -29.5t44 -54t16.5 -82.5v-320h-105
zM248 60q35 0 66 12.5t49 37.5v73q-18 25 -49 37.5t-66 12.5q-45 0 -74 -23.5t-29 -63.5q0 -39 29 -62.5t74 -23.5zM268 -190q-24 0 -41.5 17t-17.5 42q0 24 17.5 41.5t41.5 17.5t41 -17.5t17 -41.5q0 -25 -17 -42t-41 -17zM441 622q-30 -41 -75.5 -64.5t-99.5 -23.5
t-99.5 23.5t-76.5 64.5l48 40q22 -30 54 -48t74 -18q40 0 72.5 17.5t54.5 48.5l48 -40v0z" />
    <glyph glyph-name="ae" unicode="&#xe6;" horiz-adv-x="878" 
d="M491 207q3 -27 13.5 -51t28.5 -42t43 -28t57 -10q33 0 68.5 13.5t58.5 39.5l48 -71q-36 -35 -85 -52.5t-95 -17.5q-61 0 -109.5 22t-80.5 76q-29 -43 -83 -70.5t-120 -27.5q-38 0 -73.5 10t-62.5 29.5t-43.5 49.5t-16.5 70q0 39 14.5 69t38.5 49.5t56 29.5t68 10
q51 0 95.5 -15t74.5 -45v71q0 42 -34.5 65.5t-88.5 23.5q-45 0 -83 -14.5t-73 -46.5l-43 73q43 40 95.5 59t112.5 19q66 0 111 -24t63 -69q13 19 29.5 36t37.5 29.5t48 20t62 7.5q51 0 91.5 -19.5t69 -55t43.5 -83.5t15 -105v-25h-351zM740 281q-1 21 -8.5 44t-22.5 41.5
t-38 30.5t-56 12q-31 0 -53.5 -11.5t-38 -30t-24 -41.5t-9.5 -45h250zM386 182q-21 24 -55.5 37.5t-72.5 13.5q-49 0 -81 -20t-32 -59t32 -58.5t81 -19.5q26 0 49.5 9t41 23t27.5 32t10 35v7z" />
    <glyph glyph-name="aeacute" unicode="&#x1fd;" horiz-adv-x="878" 
d="M433 556h-75l140 144h100zM491 207q3 -27 13.5 -51t28.5 -42t43 -28t57 -10q33 0 68.5 13.5t58.5 39.5l48 -71q-36 -35 -85 -52.5t-95 -17.5q-61 0 -109.5 22t-80.5 76q-29 -43 -83 -70.5t-120 -27.5q-38 0 -73.5 10t-62.5 29.5t-43.5 49.5t-16.5 70q0 39 14.5 69
t38.5 49.5t56 29.5t68 10q51 0 95.5 -15t74.5 -45v71q0 42 -34.5 65.5t-88.5 23.5q-45 0 -83 -14.5t-73 -46.5l-43 73q43 40 95.5 59t112.5 19q66 0 111 -24t63 -69q13 19 29.5 36t37.5 29.5t48 20t62 7.5q51 0 91.5 -19.5t69 -55t43.5 -83.5t15 -105v-25h-351zM740 281
q-1 21 -8.5 44t-22.5 41.5t-38 30.5t-56 12q-31 0 -53.5 -11.5t-38 -30t-24 -41.5t-9.5 -45h250zM386 182q-21 24 -55.5 37.5t-72.5 13.5q-49 0 -81 -20t-32 -59t32 -58.5t81 -19.5q26 0 49.5 9t41 23t27.5 32t10 35v7z" />
    <glyph glyph-name="aacute.alt1" horiz-adv-x="581" 
d="M298 556h-75l140 144h100zM408 0v66q-28 -36 -68 -57t-87 -21t-86 17t-68 49.5t-45 79.5t-16 107q0 58 16 105t44.5 80t68 51t86.5 18q45 0 85 -20.5t69 -58.5v67h106v-483h-105zM283 81q38 0 72.5 18.5t52.5 45.5v191q-18 27 -52.5 46t-72.5 19q-63 0 -99.5 -44.5
t-36.5 -115.5q0 -35 9.5 -64.5t27.5 -50.5t43 -33t56 -12z" />
    <glyph glyph-name="abreve.alt1" horiz-adv-x="581" 
d="M408 0v66q-28 -36 -68 -57t-87 -21t-86 17t-68 49.5t-45 79.5t-16 107q0 58 16 105t44.5 80t68 51t86.5 18q45 0 85 -20.5t69 -58.5v67h106v-483h-105zM283 81q38 0 72.5 18.5t52.5 45.5v191q-18 27 -52.5 46t-72.5 19q-63 0 -99.5 -44.5t-36.5 -115.5q0 -35 9.5 -64.5
t27.5 -50.5t43 -33t56 -12zM474 622q-30 -41 -75.5 -64.5t-99.5 -23.5t-99.5 23.5t-76.5 64.5l48 40q22 -30 54 -48t74 -18q40 0 72.5 17.5t54.5 48.5l48 -40v0z" />
    <glyph glyph-name="acircumflex.alt1" horiz-adv-x="581" 
d="M374 556l-77 96l-75 -96h-66l93 144h96l96 -144h-67zM408 0v66q-28 -36 -68 -57t-87 -21t-86 17t-68 49.5t-45 79.5t-16 107q0 58 16 105t44.5 80t68 51t86.5 18q45 0 85 -20.5t69 -58.5v67h106v-483h-105zM283 81q38 0 72.5 18.5t52.5 45.5v191q-18 27 -52.5 46
t-72.5 19q-63 0 -99.5 -44.5t-36.5 -115.5q0 -35 9.5 -64.5t27.5 -50.5t43 -33t56 -12z" />
    <glyph glyph-name="adieresis.alt1" horiz-adv-x="581" 
d="M462 608q0 -25 -17.5 -42t-41.5 -17t-41.5 17t-17.5 42q0 24 17.5 41t41.5 17t41.5 -17t17.5 -41zM252 608q0 -25 -17 -42t-41 -17q-25 0 -42 17t-17 42q0 24 17 41t42 17q24 0 41 -17t17 -41zM408 0v66q-28 -36 -68 -57t-87 -21t-86 17t-68 49.5t-45 79.5t-16 107
q0 58 16 105t44.5 80t68 51t86.5 18q45 0 85 -20.5t69 -58.5v67h106v-483h-105zM283 81q38 0 72.5 18.5t52.5 45.5v191q-18 27 -52.5 46t-72.5 19q-63 0 -99.5 -44.5t-36.5 -115.5q0 -35 9.5 -64.5t27.5 -50.5t43 -33t56 -12z" />
    <glyph glyph-name="agrave.alt1" horiz-adv-x="581" 
d="M408 0v66q-28 -36 -68 -57t-87 -21t-86 17t-68 49.5t-45 79.5t-16 107q0 58 16 105t44.5 80t68 51t86.5 18q45 0 85 -20.5t69 -58.5v67h106v-483h-105zM283 81q38 0 72.5 18.5t52.5 45.5v191q-18 27 -52.5 46t-72.5 19q-63 0 -99.5 -44.5t-36.5 -115.5q0 -35 9.5 -64.5
t27.5 -50.5t43 -33t56 -12zM270 556l-165 144h100l140 -144h-75z" />
    <glyph glyph-name="amacron.alt1" horiz-adv-x="581" 
d="M117 566v62h363v-62h-363zM408 0v66q-28 -36 -68 -57t-87 -21t-86 17t-68 49.5t-45 79.5t-16 107q0 58 16 105t44.5 80t68 51t86.5 18q45 0 85 -20.5t69 -58.5v67h106v-483h-105zM283 81q38 0 72.5 18.5t52.5 45.5v191q-18 27 -52.5 46t-72.5 19q-63 0 -99.5 -44.5
t-36.5 -115.5q0 -35 9.5 -64.5t27.5 -50.5t43 -33t56 -12z" />
    <glyph glyph-name="aogonek.alt1" horiz-adv-x="581" 
d="M513 0q-73 -37 -73 -93q0 -24 11.5 -35t28.5 -11q19 0 30 10.5t17 27.5l45 -27q-12 -24 -34.5 -41t-57.5 -17q-38 0 -66.5 21t-28.5 68q0 28 12.5 52.5t35.5 44.5h-25v66q-28 -36 -68 -57t-87 -21t-86 17t-68 49.5t-45 79.5t-16 107q0 58 16 105t44.5 80t68 51t86.5 18
q45 0 85 -20.5t69 -58.5v67h106v-483zM283 81q38 0 72.5 18.5t52.5 45.5v191q-18 27 -52.5 46t-72.5 19q-63 0 -99.5 -44.5t-36.5 -115.5q0 -35 9.5 -64.5t27.5 -50.5t43 -33t56 -12z" />
    <glyph glyph-name="aring.alt1" horiz-adv-x="581" 
d="M299 536q-21 0 -39.5 8t-32.5 22t-22 32.5t-8 39.5t8 39.5t22 33t32.5 22.5t39.5 8t39.5 -8t32 -22.5t21.5 -33t8 -39.5t-8 -39.5t-21.5 -32.5t-32 -22t-39.5 -8zM299 586q22 0 36.5 15.5t14.5 36.5q0 22 -14.5 37t-36.5 15q-21 0 -36.5 -15t-15.5 -37q0 -21 15.5 -36.5
t36.5 -15.5zM408 0v66q-28 -36 -68 -57t-87 -21t-86 17t-68 49.5t-45 79.5t-16 107q0 58 16 105t44.5 80t68 51t86.5 18q45 0 85 -20.5t69 -58.5v67h106v-483h-105zM283 81q38 0 72.5 18.5t52.5 45.5v191q-18 27 -52.5 46t-72.5 19q-63 0 -99.5 -44.5t-36.5 -115.5
q0 -35 9.5 -64.5t27.5 -50.5t43 -33t56 -12z" />
    <glyph glyph-name="atilde.alt1" horiz-adv-x="581" 
d="M408 0v66q-28 -36 -68 -57t-87 -21t-86 17t-68 49.5t-45 79.5t-16 107q0 58 16 105t44.5 80t68 51t86.5 18q45 0 85 -20.5t69 -58.5v67h106v-483h-105zM283 81q38 0 72.5 18.5t52.5 45.5v191q-18 27 -52.5 46t-72.5 19q-63 0 -99.5 -44.5t-36.5 -115.5q0 -35 9.5 -64.5
t27.5 -50.5t43 -33t56 -12zM356 554q-26 0 -42 12t-28 27t-22.5 27t-26.5 12q-17 0 -29.5 -17t-12.5 -55h-57q0 62 26 98t77 36q26 0 42 -12t28 -27t22.5 -27t26.5 -12q17 0 29 17t12 55h58q0 -62 -26 -98t-77 -36z" />
    <glyph glyph-name="uni1EA1.alt1" horiz-adv-x="581" 
d="M408 0v66q-28 -36 -68 -57t-87 -21t-86 17t-68 49.5t-45 79.5t-16 107q0 58 16 105t44.5 80t68 51t86.5 18q45 0 85 -20.5t69 -58.5v67h106v-483h-105zM283 81q38 0 72.5 18.5t52.5 45.5v191q-18 27 -52.5 46t-72.5 19q-63 0 -99.5 -44.5t-36.5 -115.5q0 -35 9.5 -64.5
t27.5 -50.5t43 -33t56 -12zM299 -190q-24 0 -41.5 17t-17.5 42q0 24 17.5 41.5t41.5 17.5t41 -17.5t17 -41.5q0 -25 -17 -42t-41 -17z" />
    <glyph glyph-name="uni1EA3.alt1" horiz-adv-x="581" 
d="M408 0v66q-28 -36 -68 -57t-87 -21t-86 17t-68 49.5t-45 79.5t-16 107q0 58 16 105t44.5 80t68 51t86.5 18q45 0 85 -20.5t69 -58.5v67h106v-483h-105zM283 81q38 0 72.5 18.5t52.5 45.5v191q-18 27 -52.5 46t-72.5 19q-63 0 -99.5 -44.5t-36.5 -115.5q0 -35 9.5 -64.5
t27.5 -50.5t43 -33t56 -12zM222 595q8 26 28 41t49 15q30 0 53 -16.5t23 -54.5q0 -16 -4.5 -27.5t-12.5 -24.5h-48q21 22 21 50q0 18 -9 26.5t-23 8.5t-23 -8t-14 -22z" />
    <glyph glyph-name="uni1EA5.alt1" horiz-adv-x="581" 
d="M374 556l-77 96l-75 -96h-66l93 144h96l96 -144h-67zM476 626h-75l140 144h100zM408 0v66q-28 -36 -68 -57t-87 -21t-86 17t-68 49.5t-45 79.5t-16 107q0 58 16 105t44.5 80t68 51t86.5 18q45 0 85 -20.5t69 -58.5v67h106v-483h-105zM283 81q38 0 72.5 18.5t52.5 45.5
v191q-18 27 -52.5 46t-72.5 19q-63 0 -99.5 -44.5t-36.5 -115.5q0 -35 9.5 -64.5t27.5 -50.5t43 -33t56 -12z" />
    <glyph glyph-name="uni1EAD.alt1" horiz-adv-x="581" 
d="M375 556l-77 96l-75 -96h-66l93 144h96l96 -144h-67zM408 0v66q-28 -36 -68 -57t-87 -21t-86 17t-68 49.5t-45 79.5t-16 107q0 58 16 105t44.5 80t68 51t86.5 18q45 0 85 -20.5t69 -58.5v67h106v-483h-105zM283 81q38 0 72.5 18.5t52.5 45.5v191q-18 27 -52.5 46
t-72.5 19q-63 0 -99.5 -44.5t-36.5 -115.5q0 -35 9.5 -64.5t27.5 -50.5t43 -33t56 -12zM299 -190q-24 0 -41.5 17t-17.5 42q0 24 17.5 41.5t41.5 17.5t41 -17.5t17 -41.5q0 -25 -17 -42t-41 -17z" />
    <glyph glyph-name="uni1EA7.alt1" horiz-adv-x="581" 
d="M374 556l-77 96l-75 -96h-66l93 144h96l96 -144h-67zM408 0v66q-28 -36 -68 -57t-87 -21t-86 17t-68 49.5t-45 79.5t-16 107q0 58 16 105t44.5 80t68 51t86.5 18q45 0 85 -20.5t69 -58.5v67h106v-483h-105zM283 81q38 0 72.5 18.5t52.5 45.5v191q-18 27 -52.5 46
t-72.5 19q-63 0 -99.5 -44.5t-36.5 -115.5q0 -35 9.5 -64.5t27.5 -50.5t43 -33t56 -12zM118 626l-165 144h100l140 -144h-75z" />
    <glyph glyph-name="uni1EA9.alt1" horiz-adv-x="581" 
d="M374 556l-77 96l-75 -96h-66l93 144h96l96 -144h-67zM408 0v66q-28 -36 -68 -57t-87 -21t-86 17t-68 49.5t-45 79.5t-16 107q0 58 16 105t44.5 80t68 51t86.5 18q45 0 85 -20.5t69 -58.5v67h106v-483h-105zM283 81q38 0 72.5 18.5t52.5 45.5v191q-18 27 -52.5 46
t-72.5 19q-63 0 -99.5 -44.5t-36.5 -115.5q0 -35 9.5 -64.5t27.5 -50.5t43 -33t56 -12zM319 734q8 26 28 41t49 15q30 0 53 -16.5t23 -54.5q0 -16 -4.5 -27.5t-12.5 -24.5h-48q21 22 21 50q0 18 -9 26.5t-23 8.5t-23 -8t-14 -22z" />
    <glyph glyph-name="uni1EAF.alt1" horiz-adv-x="581" 
d="M312 629h-75l140 144h100zM408 0v66q-28 -36 -68 -57t-87 -21t-86 17t-68 49.5t-45 79.5t-16 107q0 58 16 105t44.5 80t68 51t86.5 18q45 0 85 -20.5t69 -58.5v67h106v-483h-105zM283 81q38 0 72.5 18.5t52.5 45.5v191q-18 27 -52.5 46t-72.5 19q-63 0 -99.5 -44.5
t-36.5 -115.5q0 -35 9.5 -64.5t27.5 -50.5t43 -33t56 -12zM474 607q-30 -41 -75.5 -64.5t-99.5 -23.5t-99.5 23.5t-76.5 64.5l48 40q22 -30 54 -48t74 -18q40 0 72.5 17.5t54.5 48.5l48 -40v0z" />
    <glyph glyph-name="uni1EAB.alt1" horiz-adv-x="581" 
d="M374 524l-77 96l-75 -96h-66l93 144h96l96 -144h-67zM408 0v66q-28 -36 -68 -57t-87 -21t-86 17t-68 49.5t-45 79.5t-16 107q0 58 16 105t44.5 80t68 51t86.5 18q45 0 85 -20.5t69 -58.5v67h106v-483h-105zM283 81q38 0 72.5 18.5t52.5 45.5v191q-18 27 -52.5 46
t-72.5 19q-63 0 -99.5 -44.5t-36.5 -115.5q0 -35 9.5 -64.5t27.5 -50.5t43 -33t56 -12zM353 682q-26 0 -42 12t-28 27t-22.5 27t-26.5 12q-17 0 -29.5 -17t-12.5 -55h-57q0 62 26 98t77 36q26 0 42 -12t28 -27t22.5 -27t26.5 -12q17 0 29 17t12 55h58q0 -62 -26 -98t-77 -36
z" />
    <glyph glyph-name="uni1EB1.alt1" horiz-adv-x="581" 
d="M408 0v66q-28 -36 -68 -57t-87 -21t-86 17t-68 49.5t-45 79.5t-16 107q0 58 16 105t44.5 80t68 51t86.5 18q45 0 85 -20.5t69 -58.5v67h106v-483h-105zM283 81q38 0 72.5 18.5t52.5 45.5v191q-18 27 -52.5 46t-72.5 19q-63 0 -99.5 -44.5t-36.5 -115.5q0 -35 9.5 -64.5
t27.5 -50.5t43 -33t56 -12zM277 629l-165 144h100l140 -144h-75zM474 610q-30 -41 -75.5 -64.5t-99.5 -23.5t-99.5 23.5t-76.5 64.5l48 40q22 -30 54 -48t74 -18q40 0 72.5 17.5t54.5 48.5l48 -40v0z" />
    <glyph glyph-name="uni1EB3.alt1" horiz-adv-x="581" 
d="M408 0v66q-28 -36 -68 -57t-87 -21t-86 17t-68 49.5t-45 79.5t-16 107q0 58 16 105t44.5 80t68 51t86.5 18q45 0 85 -20.5t69 -58.5v67h106v-483h-105zM283 81q38 0 72.5 18.5t52.5 45.5v191q-18 27 -52.5 46t-72.5 19q-63 0 -99.5 -44.5t-36.5 -115.5q0 -35 9.5 -64.5
t27.5 -50.5t43 -33t56 -12zM222 700q8 26 28 41t49 15q30 0 53 -16.5t23 -54.5q0 -16 -4.5 -27.5t-12.5 -24.5h-48q21 22 21 50q0 18 -9 26.5t-23 8.5t-23 -8t-14 -22zM474 610q-30 -41 -75.5 -64.5t-99.5 -23.5t-99.5 23.5t-76.5 64.5l48 40q22 -30 54 -48t74 -18
q40 0 72.5 17.5t54.5 48.5l48 -40v0z" />
    <glyph glyph-name="uni1EB5.alt1" horiz-adv-x="581" 
d="M474 610q-30 -41 -75.5 -64.5t-99.5 -23.5t-99.5 23.5t-76.5 64.5l48 40q22 -30 54 -48t74 -18q40 0 72.5 17.5t54.5 48.5l48 -40v0zM408 0v66q-28 -36 -68 -57t-87 -21t-86 17t-68 49.5t-45 79.5t-16 107q0 58 16 105t44.5 80t68 51t86.5 18q45 0 85 -20.5t69 -58.5v67
h106v-483h-105zM283 81q38 0 72.5 18.5t52.5 45.5v191q-18 27 -52.5 46t-72.5 19q-63 0 -99.5 -44.5t-36.5 -115.5q0 -35 9.5 -64.5t27.5 -50.5t43 -33t56 -12zM356 660q-26 0 -42 12t-28 27t-22.5 27t-26.5 12q-17 0 -29.5 -17t-12.5 -55h-57q0 62 26 98t77 36q26 0 42 -12
t28 -27t22.5 -27t26.5 -12q17 0 29 17t12 55h58q0 -62 -26 -98t-77 -36z" />
    <glyph glyph-name="uni1EB7.alt1" horiz-adv-x="581" 
d="M408 0v66q-28 -36 -68 -57t-87 -21t-86 17t-68 49.5t-45 79.5t-16 107q0 58 16 105t44.5 80t68 51t86.5 18q45 0 85 -20.5t69 -58.5v67h106v-483h-105zM283 81q38 0 72.5 18.5t52.5 45.5v191q-18 27 -52.5 46t-72.5 19q-63 0 -99.5 -44.5t-36.5 -115.5q0 -35 9.5 -64.5
t27.5 -50.5t43 -33t56 -12zM299 -190q-24 0 -41.5 17t-17.5 42q0 24 17.5 41.5t41.5 17.5t41 -17.5t17 -41.5q0 -25 -17 -42t-41 -17zM474 622q-30 -41 -75.5 -64.5t-99.5 -23.5t-99.5 23.5t-76.5 64.5l48 40q22 -30 54 -48t74 -18q40 0 72.5 17.5t54.5 48.5l48 -40v0z" />
    <glyph glyph-name="ae.alt1" horiz-adv-x="922" 
d="M283 81q38 0 72.5 18.5t52.5 45.5v191q-18 27 -52.5 46t-72.5 19q-63 0 -99.5 -44.5t-36.5 -115.5q0 -35 9.5 -64.5t27.5 -50.5t43 -33t56 -12zM513 0h-105v66q-28 -36 -68 -57t-87 -21t-86 17t-68 49.5t-45 79.5t-16 107q0 58 16 105t44.5 80t68 51t86.5 18
q45 0 85 -20.5t69 -58.5v67h106v-83q25 42 65.5 68.5t98.5 26.5q48 0 86.5 -19.5t66 -55t42 -83.5t14.5 -105v-25h-373q3 -27 14.5 -51t31 -42t46.5 -28t61 -10q36 0 74 13.5t64 39.5l47 -71q-29 -30 -72 -50t-94 -20q-67 0 -108.5 28t-63.5 66v-82zM785 281q-1 21 -9.5 44
t-25 41.5t-41.5 30.5t-61 12q-33 0 -58 -11.5t-41.5 -30t-25.5 -41.5t-10 -45h272z" />
    <glyph glyph-name="aeacute.alt1" horiz-adv-x="922" 
d="M283 81q38 0 72.5 18.5t52.5 45.5v191q-18 27 -52.5 46t-72.5 19q-63 0 -99.5 -44.5t-36.5 -115.5q0 -35 9.5 -64.5t27.5 -50.5t43 -33t56 -12zM513 0h-105v66q-28 -36 -68 -57t-87 -21t-86 17t-68 49.5t-45 79.5t-16 107q0 58 16 105t44.5 80t68 51t86.5 18
q45 0 85 -20.5t69 -58.5v67h106v-83q25 42 65.5 68.5t98.5 26.5q48 0 86.5 -19.5t66 -55t42 -83.5t14.5 -105v-25h-373q3 -27 14.5 -51t31 -42t46.5 -28t61 -10q36 0 74 13.5t64 39.5l47 -71q-29 -30 -72 -50t-94 -20q-67 0 -108.5 28t-63.5 66v-82zM785 281q-1 21 -9.5 44
t-25 41.5t-41.5 30.5t-61 12q-33 0 -58 -11.5t-41.5 -30t-25.5 -41.5t-10 -45h272zM476 556h-75l140 144h100z" />
    <glyph glyph-name="uni1E03" unicode="&#x1e03;" horiz-adv-x="581" 
d="M173 145q17 -27 52 -45.5t72 -18.5q31 0 56.5 12t43.5 33t27.5 50.5t9.5 64.5t-9.5 64.5t-27.5 51t-43.5 33.5t-56.5 12q-18 0 -36.5 -5.5t-35 -14.5t-30 -21t-22.5 -25v-191zM68 0v667h105v-251q29 38 69 58.5t86 20.5t85.5 -18t68 -51t44.5 -80t16 -105q0 -60 -16 -107
t-44.5 -79.5t-68 -49.5t-85.5 -17q-48 0 -87.5 21t-67.5 57v-66h-105zM297 715q-24 0 -41.5 17t-17.5 42q0 24 17.5 41.5t41.5 17.5t41 -17.5t17 -41.5q0 -25 -17 -42t-41 -17z" />
    <glyph glyph-name="cacute" unicode="&#x107;" horiz-adv-x="497" 
d="M301 556h-75l140 144h100zM288 -12q-55 0 -101 19t-79 53t-51.5 80.5t-18.5 101.5t18.5 101t51.5 80t79 53t101 19q71 0 115 -25.5t70 -60.5l-69 -64q-41 57 -111 57q-33 0 -60 -12t-46 -33t-29.5 -50.5t-10.5 -64.5t10.5 -64.5t29.5 -51t46 -33.5t60 -12q69 0 111 57
l69 -64q-26 -35 -70 -60.5t-115 -25.5z" />
    <glyph glyph-name="ccedilla" unicode="&#xe7;" horiz-adv-x="497" 
d="M290 -192q-35 0 -63 9.5t-43 21.5l22 46q19 -15 40 -22t41 -7q22 0 39 9t17 27q0 30 -33 30q-21 0 -34 -15l-41 23l22 60q-49 5 -89 25.5t-69 54t-45 77.5t-16 95q0 55 18.5 101t51.5 80t79 53t101 19q71 0 115 -25.5t70 -60.5l-69 -64q-41 57 -111 57q-33 0 -60 -12
t-46 -33t-29.5 -50.5t-10.5 -64.5t10.5 -64.5t29.5 -51t46 -33.5t60 -12q69 0 111 57l69 -64q-23 -32 -62.5 -56t-99.5 -29l-16 -40q16 11 36 11q29 0 48 -19t19 -50q0 -19 -8.5 -34.5t-23.5 -26t-34.5 -16.5t-41.5 -6z" />
    <glyph glyph-name="ccircumflex" unicode="&#x109;" horiz-adv-x="497" 
d="M364 556l-77 96l-75 -96h-66l93 144h96l96 -144h-67zM288 -12q-55 0 -101 19t-79 53t-51.5 80.5t-18.5 101.5t18.5 101t51.5 80t79 53t101 19q71 0 115 -25.5t70 -60.5l-69 -64q-41 57 -111 57q-33 0 -60 -12t-46 -33t-29.5 -50.5t-10.5 -64.5t10.5 -64.5t29.5 -51
t46 -33.5t60 -12q69 0 111 57l69 -64q-26 -35 -70 -60.5t-115 -25.5z" />
    <glyph glyph-name="cdotaccent" unicode="&#x10b;" horiz-adv-x="497" 
d="M288 -12q-55 0 -101 19t-79 53t-51.5 80.5t-18.5 101.5t18.5 101t51.5 80t79 53t101 19q71 0 115 -25.5t70 -60.5l-69 -64q-41 57 -111 57q-33 0 -60 -12t-46 -33t-29.5 -50.5t-10.5 -64.5t10.5 -64.5t29.5 -51t46 -33.5t60 -12q69 0 111 57l69 -64q-26 -35 -70 -60.5
t-115 -25.5zM289 548q-24 0 -41.5 17t-17.5 42q0 24 17.5 41.5t41.5 17.5t41 -17.5t17 -41.5q0 -25 -17 -42t-41 -17z" />
    <glyph glyph-name="ccaron" unicode="&#x10d;" horiz-adv-x="497" 
d="M242 556l-96 144h66l78 -97l74 97h67l-93 -144h-96zM288 -12q-55 0 -101 19t-79 53t-51.5 80.5t-18.5 101.5t18.5 101t51.5 80t79 53t101 19q71 0 115 -25.5t70 -60.5l-69 -64q-41 57 -111 57q-33 0 -60 -12t-46 -33t-29.5 -50.5t-10.5 -64.5t10.5 -64.5t29.5 -51
t46 -33.5t60 -12q69 0 111 57l69 -64q-26 -35 -70 -60.5t-115 -25.5z" />
    <glyph glyph-name="dcaron" unicode="&#x10f;" horiz-adv-x="670" 
d="M675 604q0 -44 -22 -81.5t-56 -61.5l-39 31q21 13 39 36.5t22 45.5q-4 -2 -14 -2q-20 0 -34 14t-14 37t16 39.5t39 16.5q25 0 44 -19.5t19 -55.5zM408 0v66q-28 -36 -68 -57t-87 -21t-86 17t-68 49.5t-45 79.5t-16 107q0 58 16 105t44.5 80t68 51t86.5 18
q45 0 85.5 -20.5t69.5 -58.5v251h105v-667h-105zM283 81q38 0 72.5 18.5t52.5 45.5v192q-18 27 -52.5 46t-72.5 19q-63 0 -99.5 -45t-36.5 -116q0 -35 9.5 -64.5t27.5 -50.5t43 -33t56 -12z" />
    <glyph glyph-name="dcroat" unicode="&#x111;" horiz-adv-x="585" 
d="M408 0v66q-28 -36 -68 -57t-87 -21t-86 17t-68 49.5t-45 79.5t-16 107q0 58 16 105t44.5 80t68 51t86.5 18q45 0 85.5 -20.5t69.5 -58.5v115h-150v62h150v74h105v-74h63v-62h-63v-531h-105zM283 81q38 0 72.5 18.5t52.5 45.5v192q-18 27 -52.5 46t-72.5 19
q-63 0 -99.5 -45t-36.5 -116q0 -35 9.5 -64.5t27.5 -50.5t43 -33t56 -12z" />
    <glyph glyph-name="uni1E0B" unicode="&#x1e0b;" horiz-adv-x="581" 
d="M408 0v66q-28 -36 -68 -57t-87 -21t-86 17t-68 49.5t-45 79.5t-16 107q0 58 16 105t44.5 80t68 51t86.5 18q45 0 85.5 -20.5t69.5 -58.5v251h105v-667h-105zM283 81q38 0 72.5 18.5t52.5 45.5v192q-18 27 -52.5 46t-72.5 19q-63 0 -99.5 -45t-36.5 -116q0 -35 9.5 -64.5
t27.5 -50.5t43 -33t56 -12zM285 715q-24 0 -41.5 17t-17.5 42q0 24 17.5 41.5t41.5 17.5t41 -17.5t17 -41.5q0 -25 -17 -42t-41 -17z" />
    <glyph glyph-name="eacute" unicode="&#xe9;" horiz-adv-x="557" 
d="M298 556h-75l140 144h100zM291 -12q-54 0 -100.5 18t-80.5 51.5t-53 80.5t-19 104q0 52 18 98.5t50.5 80.5t77.5 54t99 20t98 -19.5t75 -55t48 -83.5t17 -105v-25h-373q3 -27 14.5 -51.5t31 -42.5t47 -28.5t61.5 -10.5q35 0 73 13.5t64 39.5l48 -69q-36 -35 -87 -52.5
t-109 -17.5zM419 281q-1 21 -9 44t-24.5 41.5t-41.5 30.5t-61 12q-34 0 -58.5 -11.5t-41 -30t-25.5 -41.5t-11 -45h272z" />
    <glyph glyph-name="ebreve" unicode="&#x115;" horiz-adv-x="557" 
d="M291 -12q-54 0 -100.5 18t-80.5 51.5t-53 80.5t-19 104q0 52 18 98.5t50.5 80.5t77.5 54t99 20t98 -19.5t75 -55t48 -83.5t17 -105v-25h-373q3 -27 14.5 -51.5t31 -42.5t47 -28.5t61.5 -10.5q35 0 73 13.5t64 39.5l48 -69q-36 -35 -87 -52.5t-109 -17.5zM419 281
q-1 21 -9 44t-24.5 41.5t-41.5 30.5t-61 12q-34 0 -58.5 -11.5t-41 -30t-25.5 -41.5t-11 -45h272zM460 622q-30 -41 -75.5 -64.5t-99.5 -23.5t-99.5 23.5t-76.5 64.5l48 40q22 -30 54 -48t74 -18q40 0 72.5 17.5t54.5 48.5l48 -40v0z" />
    <glyph glyph-name="ecircumflex" unicode="&#xea;" horiz-adv-x="557" 
d="M360 556l-77 96l-75 -96h-66l93 144h96l96 -144h-67zM291 -12q-54 0 -100.5 18t-80.5 51.5t-53 80.5t-19 104q0 52 18 98.5t50.5 80.5t77.5 54t99 20t98 -19.5t75 -55t48 -83.5t17 -105v-25h-373q3 -27 14.5 -51.5t31 -42.5t47 -28.5t61.5 -10.5q35 0 73 13.5t64 39.5
l48 -69q-36 -35 -87 -52.5t-109 -17.5zM419 281q-1 21 -9 44t-24.5 41.5t-41.5 30.5t-61 12q-34 0 -58.5 -11.5t-41 -30t-25.5 -41.5t-11 -45h272z" />
    <glyph glyph-name="edieresis" unicode="&#xeb;" horiz-adv-x="557" 
d="M448 608q0 -25 -17.5 -42t-41.5 -17t-41.5 17t-17.5 42q0 24 17.5 41t41.5 17t41.5 -17t17.5 -41zM238 608q0 -25 -17 -42t-41 -17q-25 0 -42 17t-17 42q0 24 17 41t42 17q24 0 41 -17t17 -41zM291 -12q-54 0 -100.5 18t-80.5 51.5t-53 80.5t-19 104q0 52 18 98.5
t50.5 80.5t77.5 54t99 20t98 -19.5t75 -55t48 -83.5t17 -105v-25h-373q3 -27 14.5 -51.5t31 -42.5t47 -28.5t61.5 -10.5q35 0 73 13.5t64 39.5l48 -69q-36 -35 -87 -52.5t-109 -17.5zM419 281q-1 21 -9 44t-24.5 41.5t-41.5 30.5t-61 12q-34 0 -58.5 -11.5t-41 -30
t-25.5 -41.5t-11 -45h272z" />
    <glyph glyph-name="edotaccent" unicode="&#x117;" horiz-adv-x="557" 
d="M291 -12q-54 0 -100.5 18t-80.5 51.5t-53 80.5t-19 104q0 52 18 98.5t50.5 80.5t77.5 54t99 20t98 -19.5t75 -55t48 -83.5t17 -105v-25h-373q3 -27 14.5 -51.5t31 -42.5t47 -28.5t61.5 -10.5q35 0 73 13.5t64 39.5l48 -69q-36 -35 -87 -52.5t-109 -17.5zM419 281
q-1 21 -9 44t-24.5 41.5t-41.5 30.5t-61 12q-34 0 -58.5 -11.5t-41 -30t-25.5 -41.5t-11 -45h272zM285 548q-24 0 -41.5 17t-17.5 42q0 24 17.5 41.5t41.5 17.5t41 -17.5t17 -41.5q0 -25 -17 -42t-41 -17z" />
    <glyph glyph-name="egrave" unicode="&#xe8;" horiz-adv-x="557" 
d="M291 -12q-54 0 -100.5 18t-80.5 51.5t-53 80.5t-19 104q0 52 18 98.5t50.5 80.5t77.5 54t99 20t98 -19.5t75 -55t48 -83.5t17 -105v-25h-373q3 -27 14.5 -51.5t31 -42.5t47 -28.5t61.5 -10.5q35 0 73 13.5t64 39.5l48 -69q-36 -35 -87 -52.5t-109 -17.5zM419 281
q-1 21 -9 44t-24.5 41.5t-41.5 30.5t-61 12q-34 0 -58.5 -11.5t-41 -30t-25.5 -41.5t-11 -45h272zM270 556l-165 144h100l140 -144h-75z" />
    <glyph glyph-name="emacron" unicode="&#x113;" horiz-adv-x="557" 
d="M291 -12q-54 0 -100.5 18t-80.5 51.5t-53 80.5t-19 104q0 52 18 98.5t50.5 80.5t77.5 54t99 20t98 -19.5t75 -55t48 -83.5t17 -105v-25h-373q3 -27 14.5 -51.5t31 -42.5t47 -28.5t61.5 -10.5q35 0 73 13.5t64 39.5l48 -69q-36 -35 -87 -52.5t-109 -17.5zM419 281
q-1 21 -9 44t-24.5 41.5t-41.5 30.5t-61 12q-34 0 -58.5 -11.5t-41 -30t-25.5 -41.5t-11 -45h272zM103 566v62h363v-62h-363z" />
    <glyph glyph-name="eogonek" unicode="&#x119;" horiz-adv-x="557" 
d="M440 -128q-12 -24 -34.5 -41t-57.5 -17q-38 0 -66.5 21t-28.5 68t36 85q-54 0 -100 18.5t-79.5 51.5t-52.5 80t-19 104q0 52 18 98.5t50.5 80.5t77.5 54t99 20t98 -19.5t75 -55t48 -83.5t17 -105v-25h-373q3 -27 14.5 -51.5t31 -42.5t47 -28.5t61.5 -10.5q35 0 73 13.5
t64 39.5l48 -69q-42 -41 -106 -58q-73 -37 -73 -93q0 -24 11.5 -35t28.5 -11q19 0 30 10.5t17 27.5zM419 281q-1 21 -9 44t-24.5 41.5t-41.5 30.5t-61 12q-34 0 -58.5 -11.5t-41 -30t-25.5 -41.5t-11 -45h272z" />
    <glyph glyph-name="ecaron" unicode="&#x11b;" horiz-adv-x="557" 
d="M237 556l-96 144h66l78 -97l74 97h67l-93 -144h-96zM291 -12q-54 0 -100.5 18t-80.5 51.5t-53 80.5t-19 104q0 52 18 98.5t50.5 80.5t77.5 54t99 20t98 -19.5t75 -55t48 -83.5t17 -105v-25h-373q3 -27 14.5 -51.5t31 -42.5t47 -28.5t61.5 -10.5q35 0 73 13.5t64 39.5
l48 -69q-36 -35 -87 -52.5t-109 -17.5zM419 281q-1 21 -9 44t-24.5 41.5t-41.5 30.5t-61 12q-34 0 -58.5 -11.5t-41 -30t-25.5 -41.5t-11 -45h272z" />
    <glyph glyph-name="uni1EB9" unicode="&#x1eb9;" horiz-adv-x="557" 
d="M291 -12q-54 0 -100.5 18t-80.5 51.5t-53 80.5t-19 104q0 52 18 98.5t50.5 80.5t77.5 54t99 20t98 -19.5t75 -55t48 -83.5t17 -105v-25h-373q3 -27 14.5 -51.5t31 -42.5t47 -28.5t61.5 -10.5q35 0 73 13.5t64 39.5l48 -69q-36 -35 -87 -52.5t-109 -17.5zM419 281
q-1 21 -9 44t-24.5 41.5t-41.5 30.5t-61 12q-34 0 -58.5 -11.5t-41 -30t-25.5 -41.5t-11 -45h272zM285 -190q-24 0 -41.5 17t-17.5 42q0 24 17.5 41.5t41.5 17.5t41 -17.5t17 -41.5q0 -25 -17 -42t-41 -17z" />
    <glyph glyph-name="uni1EBB" unicode="&#x1ebb;" horiz-adv-x="557" 
d="M291 -12q-54 0 -100.5 18t-80.5 51.5t-53 80.5t-19 104q0 52 18 98.5t50.5 80.5t77.5 54t99 20t98 -19.5t75 -55t48 -83.5t17 -105v-25h-373q3 -27 14.5 -51.5t31 -42.5t47 -28.5t61.5 -10.5q35 0 73 13.5t64 39.5l48 -69q-36 -35 -87 -52.5t-109 -17.5zM419 281
q-1 21 -9 44t-24.5 41.5t-41.5 30.5t-61 12q-34 0 -58.5 -11.5t-41 -30t-25.5 -41.5t-11 -45h272zM207 595q8 26 28 41t49 15q30 0 53 -16.5t23 -54.5q0 -16 -4.5 -27.5t-12.5 -24.5h-48q21 22 21 50q0 18 -9 26.5t-23 8.5t-23 -8t-14 -22z" />
    <glyph glyph-name="uni1EBD" unicode="&#x1ebd;" horiz-adv-x="557" 
d="M291 -12q-54 0 -100.5 18t-80.5 51.5t-53 80.5t-19 104q0 52 18 98.5t50.5 80.5t77.5 54t99 20t98 -19.5t75 -55t48 -83.5t17 -105v-25h-373q3 -27 14.5 -51.5t31 -42.5t47 -28.5t61.5 -10.5q35 0 73 13.5t64 39.5l48 -69q-36 -35 -87 -52.5t-109 -17.5zM419 281
q-1 21 -9 44t-24.5 41.5t-41.5 30.5t-61 12q-34 0 -58.5 -11.5t-41 -30t-25.5 -41.5t-11 -45h272zM341 554q-26 0 -42 12t-28 27t-22.5 27t-26.5 12q-17 0 -29.5 -17t-12.5 -55h-57q0 62 26 98t77 36q26 0 42 -12t28 -27t22.5 -27t26.5 -12q17 0 29 17t12 55h58
q0 -62 -26 -98t-77 -36z" />
    <glyph glyph-name="uni1EBF" unicode="&#x1ebf;" horiz-adv-x="557" 
d="M359 556l-77 96l-75 -96h-66l93 144h96l96 -144h-67zM461 626h-75l140 144h100zM291 -12q-54 0 -100.5 18t-80.5 51.5t-53 80.5t-19 104q0 52 18 98.5t50.5 80.5t77.5 54t99 20t98 -19.5t75 -55t48 -83.5t17 -105v-25h-373q3 -27 14.5 -51.5t31 -42.5t47 -28.5
t61.5 -10.5q35 0 73 13.5t64 39.5l48 -69q-36 -35 -87 -52.5t-109 -17.5zM419 281q-1 21 -9 44t-24.5 41.5t-41.5 30.5t-61 12q-34 0 -58.5 -11.5t-41 -30t-25.5 -41.5t-11 -45h272z" />
    <glyph glyph-name="uni1EC1" unicode="&#x1ec1;" horiz-adv-x="557" 
d="M359 556l-77 96l-75 -96h-66l93 144h96l96 -144h-67zM291 -12q-54 0 -100.5 18t-80.5 51.5t-53 80.5t-19 104q0 52 18 98.5t50.5 80.5t77.5 54t99 20t98 -19.5t75 -55t48 -83.5t17 -105v-25h-373q3 -27 14.5 -51.5t31 -42.5t47 -28.5t61.5 -10.5q35 0 73 13.5t64 39.5
l48 -69q-36 -35 -87 -52.5t-109 -17.5zM419 281q-1 21 -9 44t-24.5 41.5t-41.5 30.5t-61 12q-34 0 -58.5 -11.5t-41 -30t-25.5 -41.5t-11 -45h272zM103 626l-165 144h100l140 -144h-75z" />
    <glyph glyph-name="uni1EC3" unicode="&#x1ec3;" horiz-adv-x="557" 
d="M359 556l-77 96l-75 -96h-66l93 144h96l96 -144h-67zM291 -12q-54 0 -100.5 18t-80.5 51.5t-53 80.5t-19 104q0 52 18 98.5t50.5 80.5t77.5 54t99 20t98 -19.5t75 -55t48 -83.5t17 -105v-25h-373q3 -27 14.5 -51.5t31 -42.5t47 -28.5t61.5 -10.5q35 0 73 13.5t64 39.5
l48 -69q-36 -35 -87 -52.5t-109 -17.5zM419 281q-1 21 -9 44t-24.5 41.5t-41.5 30.5t-61 12q-34 0 -58.5 -11.5t-41 -30t-25.5 -41.5t-11 -45h272zM304 734q8 26 28 41t49 15q30 0 53 -16.5t23 -54.5q0 -16 -4.5 -27.5t-12.5 -24.5h-48q21 22 21 50q0 18 -9 26.5t-23 8.5
t-23 -8t-14 -22z" />
    <glyph glyph-name="uni1EC5" unicode="&#x1ec5;" horiz-adv-x="557" 
d="M359 524l-77 96l-75 -96h-66l93 144h96l96 -144h-67zM291 -12q-54 0 -100.5 18t-80.5 51.5t-53 80.5t-19 104q0 52 18 98.5t50.5 80.5t77.5 54t99 20t98 -19.5t75 -55t48 -83.5t17 -105v-25h-373q3 -27 14.5 -51.5t31 -42.5t47 -28.5t61.5 -10.5q35 0 73 13.5t64 39.5
l48 -69q-36 -35 -87 -52.5t-109 -17.5zM419 281q-1 21 -9 44t-24.5 41.5t-41.5 30.5t-61 12q-34 0 -58.5 -11.5t-41 -30t-25.5 -41.5t-11 -45h272zM341 682q-26 0 -42 12t-28 27t-22.5 27t-26.5 12q-17 0 -29.5 -17t-12.5 -55h-57q0 62 26 98t77 36q26 0 42 -12t28 -27
t22.5 -27t26.5 -12q17 0 29 17t12 55h58q0 -62 -26 -98t-77 -36z" />
    <glyph glyph-name="uni1EC7" unicode="&#x1ec7;" horiz-adv-x="557" 
d="M360 556l-77 96l-75 -96h-66l93 144h96l96 -144h-67zM291 -12q-54 0 -100.5 18t-80.5 51.5t-53 80.5t-19 104q0 52 18 98.5t50.5 80.5t77.5 54t99 20t98 -19.5t75 -55t48 -83.5t17 -105v-25h-373q3 -27 14.5 -51.5t31 -42.5t47 -28.5t61.5 -10.5q35 0 73 13.5t64 39.5
l48 -69q-36 -35 -87 -52.5t-109 -17.5zM419 281q-1 21 -9 44t-24.5 41.5t-41.5 30.5t-61 12q-34 0 -58.5 -11.5t-41 -30t-25.5 -41.5t-11 -45h272zM285 -190q-24 0 -41.5 17t-17.5 42q0 24 17.5 41.5t41.5 17.5t41 -17.5t17 -41.5q0 -25 -17 -42t-41 -17z" />
    <glyph glyph-name="fl.alt1" horiz-adv-x="594" 
d="M93 0v391h-80v92h80v27q0 81 43 124t110 43q51 0 84 -19l-23 -78q-16 11 -42 11q-31 0 -49 -20t-18 -61v-27h98v-92h-98v-391h-105zM500 -12q-62 0 -93 32t-31 92v555h105v-529q0 -25 11.5 -41t34.5 -16q15 0 27.5 5t18.5 12l25 -79q-14 -14 -38 -22.5t-60 -8.5z" />
    <glyph glyph-name="f_f_l.alt1" horiz-adv-x="902" 
d="M401 0v391h-80v92h80v27q0 81 43 124t110 43q51 0 84 -19l-23 -78q-16 11 -42 11q-31 0 -49 -20t-18 -61v-27h98v-92h-98v-391h-105zM809 -12q-62 0 -93 32t-31 92v555h105v-529q0 -25 11.5 -41t34.5 -16q15 0 27.5 5t18.5 12l25 -79q-14 -14 -38 -22.5t-60 -8.5zM93 0
v391h-80v92h80v27q0 79 42 123t111 44q32 0 62.5 -9.5t53.5 -32.5l-41 -65q-11 10 -24.5 15.5t-31.5 5.5q-31 0 -49 -20t-18 -61v-27h98v-92h-98v-391h-105z" />
    <glyph glyph-name="uni1E1F" unicode="&#x1e1f;" horiz-adv-x="308" 
d="M247 715q-24 0 -41.5 17t-17.5 42q0 24 17.5 41.5t41.5 17.5t41 -17.5t17 -41.5q0 -25 -17 -42t-41 -17zM93 0v391h-80v92h80v27q0 79 42 123t111 44q32 0 62.5 -9.5t53.5 -32.5l-41 -65q-11 10 -24.5 15.5t-31.5 5.5q-31 0 -49 -20t-18 -61v-27h98v-92h-98v-391h-105z
" />
    <glyph glyph-name="gcircumflex" unicode="&#x11d;" horiz-adv-x="580" 
d="M370 556l-77 96l-75 -96h-66l93 144h96l96 -144h-67zM264 -196q-62 0 -109.5 15.5t-92.5 56.5l49 76q29 -34 67 -48t86 -14q26 0 51.5 6.5t46 22t33 40.5t12.5 62v58q-28 -36 -67.5 -58t-87.5 -22q-46 0 -85.5 16.5t-68 48t-44.5 77.5t-16 106q0 58 16 104.5t44.5 78
t67.5 48.5t86 17q46 0 86 -20.5t69 -58.5v67h105v-458q0 -65 -22 -108t-57.5 -68t-79.5 -35t-89 -10zM283 92q18 0 36.5 5t35 14t30 20.5t22.5 25.5v180q-9 13 -22.5 25t-30 21t-35 14t-36.5 5q-63 0 -99.5 -42.5t-36.5 -112.5t36.5 -112.5t99.5 -42.5z" />
    <glyph glyph-name="gbreve" unicode="&#x11f;" horiz-adv-x="580" 
d="M264 -196q-62 0 -109.5 15.5t-92.5 56.5l49 76q29 -34 67 -48t86 -14q26 0 51.5 6.5t46 22t33 40.5t12.5 62v58q-28 -36 -67.5 -58t-87.5 -22q-46 0 -85.5 16.5t-68 48t-44.5 77.5t-16 106q0 58 16 104.5t44.5 78t67.5 48.5t86 17q46 0 86 -20.5t69 -58.5v67h105v-458
q0 -65 -22 -108t-57.5 -68t-79.5 -35t-89 -10zM283 92q18 0 36.5 5t35 14t30 20.5t22.5 25.5v180q-9 13 -22.5 25t-30 21t-35 14t-36.5 5q-63 0 -99.5 -42.5t-36.5 -112.5t36.5 -112.5t99.5 -42.5zM469 622q-30 -41 -75.5 -64.5t-99.5 -23.5t-99.5 23.5t-76.5 64.5l48 40
q22 -30 54 -48t74 -18q40 0 72.5 17.5t54.5 48.5l48 -40v0z" />
    <glyph glyph-name="gdotaccent" unicode="&#x121;" horiz-adv-x="580" 
d="M264 -196q-62 0 -109.5 15.5t-92.5 56.5l49 76q29 -34 67 -48t86 -14q26 0 51.5 6.5t46 22t33 40.5t12.5 62v58q-28 -36 -67.5 -58t-87.5 -22q-46 0 -85.5 16.5t-68 48t-44.5 77.5t-16 106q0 58 16 104.5t44.5 78t67.5 48.5t86 17q46 0 86 -20.5t69 -58.5v67h105v-458
q0 -65 -22 -108t-57.5 -68t-79.5 -35t-89 -10zM283 92q18 0 36.5 5t35 14t30 20.5t22.5 25.5v180q-9 13 -22.5 25t-30 21t-35 14t-36.5 5q-63 0 -99.5 -42.5t-36.5 -112.5t36.5 -112.5t99.5 -42.5zM294 548q-24 0 -41.5 17t-17.5 42q0 24 17.5 41.5t41.5 17.5t41 -17.5
t17 -41.5q0 -25 -17 -42t-41 -17z" />
    <glyph glyph-name="gcommaaccent" unicode="&#x123;" horiz-adv-x="580" 
d="M236 611q0 47 20.5 86.5t54.5 62.5l39 -31q-10 -6 -20 -15t-18.5 -19.5t-14.5 -22t-7 -22.5q1 0 2.5 0.5t3.5 0.5q20 0 37 -15t17 -38t-16.5 -39.5t-40.5 -16.5q-19 0 -38 15.5t-19 53.5zM264 -196q-62 0 -109.5 15.5t-92.5 56.5l49 76q29 -34 67 -48t86 -14
q26 0 51.5 6.5t46 22t33 40.5t12.5 62v58q-28 -36 -67.5 -58t-87.5 -22q-46 0 -85.5 16.5t-68 48t-44.5 77.5t-16 106q0 58 16 104.5t44.5 78t67.5 48.5t86 17q46 0 86 -20.5t69 -58.5v67h105v-458q0 -65 -22 -108t-57.5 -68t-79.5 -35t-89 -10zM283 92q18 0 36.5 5t35 14
t30 20.5t22.5 25.5v180q-9 13 -22.5 25t-30 21t-35 14t-36.5 5q-63 0 -99.5 -42.5t-36.5 -112.5t36.5 -112.5t99.5 -42.5z" />
    <glyph glyph-name="hbar" unicode="&#x127;" horiz-adv-x="571" 
d="M176 531v-114q12 14 29.5 28t39.5 25t47.5 18t54.5 7q78 0 117 -39t39 -114v-342h-105v304q0 56 -27 77t-71 21q-40 0 -72.5 -20t-51.5 -45v-337h-105v531h-62v62h62v74h105v-74h151v-62h-151z" />
    <glyph glyph-name="hcircumflex" unicode="&#x125;" horiz-adv-x="568" 
d="M360 723l-77 96l-75 -96h-66l93 144h96l96 -144h-67zM395 0v304q0 56 -27 77t-71 21q-40 0 -72.5 -20t-51.5 -45v-337h-105v667h105v-250q12 14 29.5 28t39.5 25t47.5 18t54.5 7q78 0 117 -39t39 -114v-342h-105z" />
    <glyph glyph-name="uni1E23" unicode="&#x1e23;" horiz-adv-x="568" 
d="M395 0v304q0 56 -27 77t-71 21q-40 0 -72.5 -20t-51.5 -45v-337h-105v667h105v-250q12 14 29.5 28t39.5 25t47.5 18t54.5 7q78 0 117 -39t39 -114v-342h-105zM284 715q-24 0 -41.5 17t-17.5 42q0 24 17.5 41.5t41.5 17.5t41 -17.5t17 -41.5q0 -25 -17 -42t-41 -17z" />
    <glyph glyph-name="dotlessi" unicode="&#x131;" horiz-adv-x="241" 
d="M68 0v483h105v-483h-105z" />
    <glyph glyph-name="iacute" unicode="&#xed;" horiz-adv-x="241" 
d="M135 556h-75l140 144h100zM68 0v483h105v-483h-105z" />
    <glyph glyph-name="ibreve" unicode="&#x12d;" horiz-adv-x="241" 
d="M68 0v483h105v-483h-105zM297 622q-30 -41 -75.5 -64.5t-99.5 -23.5t-99.5 23.5t-76.5 64.5l48 40q22 -30 54 -48t74 -18q40 0 72.5 17.5t54.5 48.5l48 -40v0z" />
    <glyph glyph-name="icircumflex" unicode="&#xee;" horiz-adv-x="241" 
d="M197 556l-77 96l-75 -96h-66l93 144h96l96 -144h-67zM68 0v483h105v-483h-105z" />
    <glyph glyph-name="idieresis" unicode="&#xef;" horiz-adv-x="241" 
d="M285 608q0 -25 -17.5 -42t-41.5 -17t-41.5 17t-17.5 42q0 24 17.5 41t41.5 17t41.5 -17t17.5 -41zM75 608q0 -25 -17 -42t-41 -17q-25 0 -42 17t-17 42q0 24 17 41t42 17q24 0 41 -17t17 -41zM68 0v483h105v-483h-105z" />
    <glyph glyph-name="igrave" unicode="&#xec;" horiz-adv-x="241" 
d="M68 0v483h105v-483h-105zM107 556l-165 144h100l140 -144h-75z" />
    <glyph glyph-name="imacron" unicode="&#x12b;" horiz-adv-x="241" 
d="M68 0v483h105v-483h-105zM-60 566v62h363v-62h-363z" />
    <glyph glyph-name="iogonek" unicode="&#x12f;" horiz-adv-x="241" 
d="M232 -128q-12 -24 -34.5 -41t-57.5 -17q-38 0 -66.5 21t-28.5 68q0 28 12.5 52.5t35.5 44.5h-25v483h105v-483q-73 -37 -73 -93q0 -24 11.5 -35t28.5 -11q19 0 30 10.5t17 27.5zM120 542q-26 0 -45.5 19t-19.5 46t19.5 46t45.5 19q27 0 46 -19t19 -46t-19 -46t-46 -19z
" />
    <glyph glyph-name="itilde" unicode="&#x129;" horiz-adv-x="241" 
d="M68 0v483h105v-483h-105zM179 554q-26 0 -42 12t-28 27t-22.5 27t-26.5 12q-17 0 -29.5 -17t-12.5 -55h-57q0 62 26 98t77 36q26 0 42 -12t28 -27t22.5 -27t26.5 -12q17 0 29 17t12 55h58q0 -62 -26 -98t-77 -36z" />
    <glyph glyph-name="uni1EC9" unicode="&#x1ec9;" horiz-adv-x="241" 
d="M68 0v483h105v-483h-105zM44 595q8 26 28 41t49 15q30 0 53 -16.5t23 -54.5q0 -16 -4.5 -27.5t-12.5 -24.5h-48q21 22 21 50q0 18 -9 26.5t-23 8.5t-23 -8t-14 -22z" />
    <glyph glyph-name="uni1ECB" unicode="&#x1ecb;" horiz-adv-x="241" 
d="M120 542q-26 0 -45.5 19t-19.5 46t19.5 46t45.5 19q27 0 46 -19t19 -46t-19 -46t-46 -19zM68 0v483h105v-483h-105zM121 -190q-24 0 -41.5 17t-17.5 42q0 24 17.5 41.5t41.5 17.5t41 -17.5t17 -41.5q0 -25 -17 -42t-41 -17z" />
    <glyph glyph-name="ij" unicode="&#x133;" horiz-adv-x="482" 
d="M120 542q-26 0 -45.5 19t-19.5 46t19.5 46t45.5 19q27 0 46 -19t19 -46t-19 -46t-46 -19zM68 0v483h105v-483h-105zM361 542q-26 0 -45.5 19t-19.5 46t19.5 46t45.5 19q27 0 46 -19t19 -46t-19 -46t-46 -19zM254 -196q-42 0 -65.5 8.5t-48.5 26.5l31 78q14 -12 29 -19.5
t38 -7.5q31 0 51 19.5t20 62.5v511h105v-511q0 -78 -40 -123t-120 -45z" />
    <glyph glyph-name="uni0237" unicode="&#x237;" horiz-adv-x="241" 
d="M13 -196q-42 0 -65.5 8.5t-48.5 26.5l31 78q14 -12 29 -19.5t38 -7.5q31 0 51 19.5t20 62.5v511h105v-511q0 -78 -40 -123t-120 -45z" />
    <glyph glyph-name="jcircumflex" unicode="&#x135;" horiz-adv-x="241" 
d="M199 556l-77 96l-75 -96h-66l93 144h96l96 -144h-67zM13 -196q-42 0 -65.5 8.5t-48.5 26.5l31 78q14 -12 29 -19.5t38 -7.5q31 0 51 19.5t20 62.5v511h105v-511q0 -78 -40 -123t-120 -45z" />
    <glyph glyph-name="kcommaaccent" unicode="&#x137;" horiz-adv-x="526" 
d="M328 -138q0 -44 -22 -81.5t-56 -61.5l-39 31q21 13 39 36.5t22 45.5q-4 -2 -14 -2q-20 0 -34 14t-14 37t16 39.5t39 16.5q25 0 44 -19.5t19 -55.5zM388 0l-148 199l-67 -69v-130h-105v667h105v-417l213 233h130l-201 -219l205 -264h-132z" />
    <glyph glyph-name="kgreenlandic" unicode="&#x138;" horiz-adv-x="526" 
d="M388 0l-148 199l-67 -69v-130h-105v483h105v-233l213 233h130l-201 -219l205 -264h-132z" />
    <glyph glyph-name="lacute" unicode="&#x13a;" horiz-adv-x="241" 
d="M135 723h-75l140 144h100zM68 0v667h105v-667h-105z" />
    <glyph glyph-name="lcommaaccent" unicode="&#x13c;" horiz-adv-x="241" 
d="M186 -138q0 -44 -22 -81.5t-56 -61.5l-39 31q21 13 39 36.5t22 45.5q-4 -2 -14 -2q-20 0 -34 14t-14 37t16 39.5t39 16.5q25 0 44 -19.5t19 -55.5zM68 0v667h105v-667h-105z" />
    <glyph glyph-name="lcaron" unicode="&#x13e;" horiz-adv-x="327" 
d="M346 605q0 -44 -22 -81.5t-56 -61.5l-39 31q21 13 39 36.5t22 45.5q-4 -2 -14 -2q-20 0 -34 14t-14 37t16 39.5t39 16.5q25 0 44 -19.5t19 -55.5zM68 0v667h105v-667h-105z" />
    <glyph glyph-name="ldot" unicode="&#x140;" horiz-adv-x="351" 
d="M68 0v667h105v-667h-105zM365 244q0 -28 -20.5 -48.5t-49.5 -20.5t-49.5 20.5t-20.5 48.5q0 29 20.5 49.5t49.5 20.5t49.5 -20.5t20.5 -49.5z" />
    <glyph glyph-name="lslash" unicode="&#x142;" horiz-adv-x="299" 
d="M9 293l88 50v324h105v-263l87 50v-79l-87 -50v-325h-105v264l-88 -50v79z" />
    <glyph glyph-name="lacute.alt1" horiz-adv-x="285" 
d="M135 723h-75l140 144h100zM192 -12q-62 0 -93 32t-31 92v555h105v-529q0 -25 11.5 -41t34.5 -16q15 0 27.5 5t18.5 12l25 -79q-14 -14 -38 -22.5t-60 -8.5z" />
    <glyph glyph-name="lcommaaccent.alt1" horiz-adv-x="285" 
d="M196 -138q0 -44 -22 -81.5t-56 -61.5l-39 31q21 13 39 36.5t22 45.5q-4 -2 -14 -2q-20 0 -34 14t-14 37t16 39.5t39 16.5q25 0 44 -19.5t19 -55.5zM192 -12q-62 0 -93 32t-31 92v555h105v-529q0 -25 11.5 -41t34.5 -16q15 0 27.5 5t18.5 12l25 -79q-14 -14 -38 -22.5
t-60 -8.5z" />
    <glyph glyph-name="lcaron.alt1" horiz-adv-x="327" 
d="M346 605q0 -44 -22 -81.5t-56 -61.5l-39 31q21 13 39 36.5t22 45.5q-4 -2 -14 -2q-20 0 -34 14t-14 37t16 39.5t39 16.5q25 0 44 -19.5t19 -55.5zM192 -12q-62 0 -93 32t-31 92v555h105v-529q0 -25 11.5 -41t34.5 -16q15 0 27.5 5t18.5 12l25 -79q-14 -14 -38 -22.5
t-60 -8.5z" />
    <glyph glyph-name="ldot.alt1" horiz-adv-x="351" 
d="M192 -12q-62 0 -93 32t-31 92v555h105v-529q0 -25 11.5 -41t34.5 -16q15 0 27.5 5t18.5 12l25 -79q-14 -14 -38 -22.5t-60 -8.5zM365 244q0 -28 -20.5 -48.5t-49.5 -20.5t-49.5 20.5t-20.5 48.5q0 29 20.5 49.5t49.5 20.5t49.5 -20.5t20.5 -49.5z" />
    <glyph glyph-name="lslash.alt1" horiz-adv-x="314" 
d="M9 293l87 50v324h105v-264l88 51v-79l-88 -51v-186q0 -25 11.5 -41t34.5 -16q15 0 27.5 5t18.5 12l25 -79q-14 -14 -38 -22.5t-60 -8.5q-62 0 -93 32t-31 92v152l-87 -50v79z" />
    <glyph glyph-name="nacute" unicode="&#x144;" 
d="M297 556h-75l140 144h100zM394 0v302q0 56 -26.5 78t-70.5 22q-41 0 -73.5 -20t-50.5 -45v-337h-105v483h105v-66q12 14 29.5 28t39 25t47 18t54.5 7q78 0 117 -40t39 -115v-340h-105z" />
    <glyph glyph-name="napostrophe" unicode="&#x149;" 
d="M170 680q0 -44 -22 -81.5t-56 -61.5l-39 31q21 13 39 36.5t22 45.5q-4 -2 -14 -2q-20 0 -34 14t-14 37t16 39.5t39 16.5q25 0 44 -19.5t19 -55.5zM394 0v302q0 56 -26.5 78t-70.5 22q-41 0 -73.5 -20t-50.5 -45v-337h-105v483h105v-66q12 14 29.5 28t39 25t47 18t54.5 7
q78 0 117 -40t39 -115v-340h-105z" />
    <glyph glyph-name="ncaron" unicode="&#x148;" 
d="M238 556l-96 144h66l78 -97l74 97h67l-93 -144h-96zM394 0v302q0 56 -26.5 78t-70.5 22q-41 0 -73.5 -20t-50.5 -45v-337h-105v483h105v-66q12 14 29.5 28t39 25t47 18t54.5 7q78 0 117 -40t39 -115v-340h-105z" />
    <glyph glyph-name="ncommaaccent" unicode="&#x146;" 
d="M344 -138q0 -44 -22 -81.5t-56 -61.5l-39 31q21 13 39 36.5t22 45.5q-4 -2 -14 -2q-20 0 -34 14t-14 37t16 39.5t39 16.5q25 0 44 -19.5t19 -55.5zM394 0v302q0 56 -26.5 78t-70.5 22q-41 0 -73.5 -20t-50.5 -45v-337h-105v483h105v-66q12 14 29.5 28t39 25t47 18t54.5 7
q78 0 117 -40t39 -115v-340h-105z" />
    <glyph glyph-name="ntilde" unicode="&#xf1;" 
d="M394 0v302q0 56 -26.5 78t-70.5 22q-41 0 -73.5 -20t-50.5 -45v-337h-105v483h105v-66q12 14 29.5 28t39 25t47 18t54.5 7q78 0 117 -40t39 -115v-340h-105zM342 554q-26 0 -42 12t-28 27t-22.5 27t-26.5 12q-17 0 -29.5 -17t-12.5 -55h-57q0 62 26 98t77 36q26 0 42 -12
t28 -27t22.5 -27t26.5 -12q17 0 29 17t12 55h58q0 -62 -26 -98t-77 -36z" />
    <glyph glyph-name="eng" unicode="&#x14b;" 
d="M499 -28q0 -78 -39.5 -123t-120.5 -45q-21 0 -36.5 2t-28.5 6.5t-24.5 11t-23.5 15.5l31 85q14 -12 29 -19.5t37 -7.5q32 0 51.5 18.5t19.5 56.5v330q0 56 -26.5 78t-70.5 22q-41 0 -73.5 -20t-50.5 -45v-337h-105v483h105v-66q12 14 29.5 28t39 25t47 18t54.5 7
q78 0 117 -40t39 -115v-368z" />
    <glyph glyph-name="oacute" unicode="&#xf3;" horiz-adv-x="573" 
d="M301 556h-75l140 144h100zM286 -12q-57 0 -103 20t-78.5 54.5t-49.5 81t-17 98.5t17 98t49.5 80.5t78.5 54.5t103 20q58 0 104 -20t78.5 -54.5t49.5 -80.5t17 -98t-17 -98.5t-49.5 -81t-78.5 -54.5t-104 -20zM286 81q34 0 60 13t44 35t27 51.5t9 61.5t-9 61t-27 51
t-44 35t-60 13q-33 0 -59 -13t-44 -35t-27 -51t-9 -61t9 -61.5t27 -51.5t44 -35t59 -13z" />
    <glyph glyph-name="obreve" unicode="&#x14f;" horiz-adv-x="573" 
d="M286 -12q-57 0 -103 20t-78.5 54.5t-49.5 81t-17 98.5t17 98t49.5 80.5t78.5 54.5t103 20q58 0 104 -20t78.5 -54.5t49.5 -80.5t17 -98t-17 -98.5t-49.5 -81t-78.5 -54.5t-104 -20zM286 81q34 0 60 13t44 35t27 51.5t9 61.5t-9 61t-27 51t-44 35t-60 13q-33 0 -59 -13
t-44 -35t-27 -51t-9 -61t9 -61.5t27 -51.5t44 -35t59 -13zM462 622q-30 -41 -75.5 -64.5t-99.5 -23.5t-99.5 23.5t-76.5 64.5l48 40q22 -30 54 -48t74 -18q40 0 72.5 17.5t54.5 48.5l48 -40v0z" />
    <glyph glyph-name="ocircumflex" unicode="&#xf4;" horiz-adv-x="573" 
d="M362 556l-77 96l-75 -96h-66l93 144h96l96 -144h-67zM286 -12q-57 0 -103 20t-78.5 54.5t-49.5 81t-17 98.5t17 98t49.5 80.5t78.5 54.5t103 20q58 0 104 -20t78.5 -54.5t49.5 -80.5t17 -98t-17 -98.5t-49.5 -81t-78.5 -54.5t-104 -20zM286 81q34 0 60 13t44 35t27 51.5
t9 61.5t-9 61t-27 51t-44 35t-60 13q-33 0 -59 -13t-44 -35t-27 -51t-9 -61t9 -61.5t27 -51.5t44 -35t59 -13z" />
    <glyph glyph-name="odieresis" unicode="&#xf6;" horiz-adv-x="573" 
d="M450 608q0 -25 -17.5 -42t-41.5 -17t-41.5 17t-17.5 42q0 24 17.5 41t41.5 17t41.5 -17t17.5 -41zM240 608q0 -25 -17 -42t-41 -17q-25 0 -42 17t-17 42q0 24 17 41t42 17q24 0 41 -17t17 -41zM286 -12q-57 0 -103 20t-78.5 54.5t-49.5 81t-17 98.5t17 98t49.5 80.5
t78.5 54.5t103 20q58 0 104 -20t78.5 -54.5t49.5 -80.5t17 -98t-17 -98.5t-49.5 -81t-78.5 -54.5t-104 -20zM286 81q34 0 60 13t44 35t27 51.5t9 61.5t-9 61t-27 51t-44 35t-60 13q-33 0 -59 -13t-44 -35t-27 -51t-9 -61t9 -61.5t27 -51.5t44 -35t59 -13z" />
    <glyph glyph-name="ograve" unicode="&#xf2;" horiz-adv-x="573" 
d="M286 -12q-57 0 -103 20t-78.5 54.5t-49.5 81t-17 98.5t17 98t49.5 80.5t78.5 54.5t103 20q58 0 104 -20t78.5 -54.5t49.5 -80.5t17 -98t-17 -98.5t-49.5 -81t-78.5 -54.5t-104 -20zM286 81q34 0 60 13t44 35t27 51.5t9 61.5t-9 61t-27 51t-44 35t-60 13q-33 0 -59 -13
t-44 -35t-27 -51t-9 -61t9 -61.5t27 -51.5t44 -35t59 -13zM273 556l-165 144h100l140 -144h-75z" />
    <glyph glyph-name="ohungarumlaut" unicode="&#x151;" horiz-adv-x="573" 
d="M232 556h-63l90 144h88zM378 556h-63l90 144h88zM286 -12q-57 0 -103 20t-78.5 54.5t-49.5 81t-17 98.5t17 98t49.5 80.5t78.5 54.5t103 20q58 0 104 -20t78.5 -54.5t49.5 -80.5t17 -98t-17 -98.5t-49.5 -81t-78.5 -54.5t-104 -20zM286 81q34 0 60 13t44 35t27 51.5
t9 61.5t-9 61t-27 51t-44 35t-60 13q-33 0 -59 -13t-44 -35t-27 -51t-9 -61t9 -61.5t27 -51.5t44 -35t59 -13z" />
    <glyph glyph-name="omacron" unicode="&#x14d;" horiz-adv-x="573" 
d="M105 566v62h363v-62h-363zM286 -12q-57 0 -103 20t-78.5 54.5t-49.5 81t-17 98.5t17 98t49.5 80.5t78.5 54.5t103 20q58 0 104 -20t78.5 -54.5t49.5 -80.5t17 -98t-17 -98.5t-49.5 -81t-78.5 -54.5t-104 -20zM286 81q34 0 60 13t44 35t27 51.5t9 61.5t-9 61t-27 51
t-44 35t-60 13q-33 0 -59 -13t-44 -35t-27 -51t-9 -61t9 -61.5t27 -51.5t44 -35t59 -13z" />
    <glyph glyph-name="oslash" unicode="&#xf8;" horiz-adv-x="573" 
d="M50 0l53 64q-32 35 -48.5 80.5t-16.5 97.5t17 98t49.5 80.5t78.5 54.5t103 20q41 0 76 -10.5t64 -28.5l22 27h69l-50 -61q33 -35 50.5 -81t17.5 -99q0 -52 -17 -98.5t-49.5 -81t-78.5 -54.5t-104 -20q-84 0 -143 42l-25 -30h-68zM286 81q34 0 60 13t44 35t27 51.5t9 61.5
q0 27 -6.5 52.5t-20.5 45.5l-193 -233q17 -12 36.5 -19t43.5 -7zM147 242q0 -55 24 -95l191 232q-16 11 -34.5 17t-41.5 6q-33 0 -59 -13t-44 -35t-27 -51t-9 -61z" />
    <glyph glyph-name="oslashacute" unicode="&#x1ff;" horiz-adv-x="573" 
d="M301 556h-75l140 144h100zM50 0l53 64q-32 35 -48.5 80.5t-16.5 97.5t17 98t49.5 80.5t78.5 54.5t103 20q41 0 76 -10.5t64 -28.5l22 27h69l-50 -61q33 -35 50.5 -81t17.5 -99q0 -52 -17 -98.5t-49.5 -81t-78.5 -54.5t-104 -20q-84 0 -143 42l-25 -30h-68zM286 81
q34 0 60 13t44 35t27 51.5t9 61.5q0 27 -6.5 52.5t-20.5 45.5l-193 -233q17 -12 36.5 -19t43.5 -7zM147 242q0 -55 24 -95l191 232q-16 11 -34.5 17t-41.5 6q-33 0 -59 -13t-44 -35t-27 -51t-9 -61z" />
    <glyph glyph-name="otilde" unicode="&#xf5;" horiz-adv-x="573" 
d="M286 -12q-57 0 -103 20t-78.5 54.5t-49.5 81t-17 98.5t17 98t49.5 80.5t78.5 54.5t103 20q58 0 104 -20t78.5 -54.5t49.5 -80.5t17 -98t-17 -98.5t-49.5 -81t-78.5 -54.5t-104 -20zM286 81q34 0 60 13t44 35t27 51.5t9 61.5t-9 61t-27 51t-44 35t-60 13q-33 0 -59 -13
t-44 -35t-27 -51t-9 -61t9 -61.5t27 -51.5t44 -35t59 -13zM344 554q-26 0 -42 12t-28 27t-22.5 27t-26.5 12q-17 0 -29.5 -17t-12.5 -55h-57q0 62 26 98t77 36q26 0 42 -12t28 -27t22.5 -27t26.5 -12q17 0 29 17t12 55h58q0 -62 -26 -98t-77 -36z" />
    <glyph glyph-name="uni1ECD" unicode="&#x1ecd;" horiz-adv-x="573" 
d="M286 -12q-57 0 -103 20t-78.5 54.5t-49.5 81t-17 98.5t17 98t49.5 80.5t78.5 54.5t103 20q58 0 104 -20t78.5 -54.5t49.5 -80.5t17 -98t-17 -98.5t-49.5 -81t-78.5 -54.5t-104 -20zM286 81q34 0 60 13t44 35t27 51.5t9 61.5t-9 61t-27 51t-44 35t-60 13q-33 0 -59 -13
t-44 -35t-27 -51t-9 -61t9 -61.5t27 -51.5t44 -35t59 -13zM287 -190q-24 0 -41.5 17t-17.5 42q0 24 17.5 41.5t41.5 17.5t41 -17.5t17 -41.5q0 -25 -17 -42t-41 -17z" />
    <glyph glyph-name="uni1ECF" unicode="&#x1ecf;" horiz-adv-x="573" 
d="M286 -12q-57 0 -103 20t-78.5 54.5t-49.5 81t-17 98.5t17 98t49.5 80.5t78.5 54.5t103 20q58 0 104 -20t78.5 -54.5t49.5 -80.5t17 -98t-17 -98.5t-49.5 -81t-78.5 -54.5t-104 -20zM286 81q34 0 60 13t44 35t27 51.5t9 61.5t-9 61t-27 51t-44 35t-60 13q-33 0 -59 -13
t-44 -35t-27 -51t-9 -61t9 -61.5t27 -51.5t44 -35t59 -13zM210 595q8 26 28 41t49 15q30 0 53 -16.5t23 -54.5q0 -16 -4.5 -27.5t-12.5 -24.5h-48q21 22 21 50q0 18 -9 26.5t-23 8.5t-23 -8t-14 -22z" />
    <glyph glyph-name="uni1ED1" unicode="&#x1ed1;" horiz-adv-x="573" 
d="M362 556l-77 96l-75 -96h-66l93 144h96l96 -144h-67zM465 626h-75l140 144h100zM286 -12q-57 0 -103 20t-78.5 54.5t-49.5 81t-17 98.5t17 98t49.5 80.5t78.5 54.5t103 20q58 0 104 -20t78.5 -54.5t49.5 -80.5t17 -98t-17 -98.5t-49.5 -81t-78.5 -54.5t-104 -20zM286 81
q34 0 60 13t44 35t27 51.5t9 61.5t-9 61t-27 51t-44 35t-60 13q-33 0 -59 -13t-44 -35t-27 -51t-9 -61t9 -61.5t27 -51.5t44 -35t59 -13z" />
    <glyph glyph-name="uni1ED3" unicode="&#x1ed3;" horiz-adv-x="573" 
d="M362 556l-77 96l-75 -96h-66l93 144h96l96 -144h-67zM286 -12q-57 0 -103 20t-78.5 54.5t-49.5 81t-17 98.5t17 98t49.5 80.5t78.5 54.5t103 20q58 0 104 -20t78.5 -54.5t49.5 -80.5t17 -98t-17 -98.5t-49.5 -81t-78.5 -54.5t-104 -20zM286 81q34 0 60 13t44 35t27 51.5
t9 61.5t-9 61t-27 51t-44 35t-60 13q-33 0 -59 -13t-44 -35t-27 -51t-9 -61t9 -61.5t27 -51.5t44 -35t59 -13zM106 626l-165 144h100l140 -144h-75z" />
    <glyph glyph-name="uni1ED5" unicode="&#x1ed5;" horiz-adv-x="573" 
d="M362 556l-77 96l-75 -96h-66l93 144h96l96 -144h-67zM286 -12q-57 0 -103 20t-78.5 54.5t-49.5 81t-17 98.5t17 98t49.5 80.5t78.5 54.5t103 20q58 0 104 -20t78.5 -54.5t49.5 -80.5t17 -98t-17 -98.5t-49.5 -81t-78.5 -54.5t-104 -20zM286 81q34 0 60 13t44 35t27 51.5
t9 61.5t-9 61t-27 51t-44 35t-60 13q-33 0 -59 -13t-44 -35t-27 -51t-9 -61t9 -61.5t27 -51.5t44 -35t59 -13zM307 734q8 26 28 41t49 15q30 0 53 -16.5t23 -54.5q0 -16 -4.5 -27.5t-12.5 -24.5h-48q21 22 21 50q0 18 -9 26.5t-23 8.5t-23 -8t-14 -22z" />
    <glyph glyph-name="uni1ED7" unicode="&#x1ed7;" horiz-adv-x="573" 
d="M362 524l-77 96l-75 -96h-66l93 144h96l96 -144h-67zM286 -12q-57 0 -103 20t-78.5 54.5t-49.5 81t-17 98.5t17 98t49.5 80.5t78.5 54.5t103 20q58 0 104 -20t78.5 -54.5t49.5 -80.5t17 -98t-17 -98.5t-49.5 -81t-78.5 -54.5t-104 -20zM286 81q34 0 60 13t44 35t27 51.5
t9 61.5t-9 61t-27 51t-44 35t-60 13q-33 0 -59 -13t-44 -35t-27 -51t-9 -61t9 -61.5t27 -51.5t44 -35t59 -13zM344 682q-26 0 -42 12t-28 27t-22.5 27t-26.5 12q-17 0 -29.5 -17t-12.5 -55h-57q0 62 26 98t77 36q26 0 42 -12t28 -27t22.5 -27t26.5 -12q17 0 29 17t12 55h58
q0 -62 -26 -98t-77 -36z" />
    <glyph glyph-name="uni1ED9" unicode="&#x1ed9;" horiz-adv-x="573" 
d="M362 556l-77 96l-75 -96h-66l93 144h96l96 -144h-67zM286 -12q-57 0 -103 20t-78.5 54.5t-49.5 81t-17 98.5t17 98t49.5 80.5t78.5 54.5t103 20q58 0 104 -20t78.5 -54.5t49.5 -80.5t17 -98t-17 -98.5t-49.5 -81t-78.5 -54.5t-104 -20zM286 81q34 0 60 13t44 35t27 51.5
t9 61.5t-9 61t-27 51t-44 35t-60 13q-33 0 -59 -13t-44 -35t-27 -51t-9 -61t9 -61.5t27 -51.5t44 -35t59 -13zM287 -190q-24 0 -41.5 17t-17.5 42q0 24 17.5 41.5t41.5 17.5t41 -17.5t17 -41.5q0 -25 -17 -42t-41 -17z" />
    <glyph glyph-name="ohorn" unicode="&#x1a1;" horiz-adv-x="573" 
d="M541 531q0 -37 -17.5 -69t-44.5 -55q56 -68 56 -165q0 -52 -17 -98.5t-49.5 -81t-78.5 -54.5t-104 -20q-57 0 -103 20t-78.5 54.5t-49.5 81t-17 98.5t17 98t49.5 80.5t78.5 54.5t103 20q50 0 91 -15.5t72 -41.5q16 14 27.5 32t14.5 35q-4 -2 -13 -2q-19 0 -31.5 13
t-12.5 34q0 20 14.5 35t35.5 15q23 0 40 -18t17 -51zM286 81q34 0 60 13t44 35t27 51.5t9 61.5t-9 61t-27 51t-44 35t-60 13q-33 0 -59 -13t-44 -35t-27 -51t-9 -61t9 -61.5t27 -51.5t44 -35t59 -13z" />
    <glyph glyph-name="uni1EDB" unicode="&#x1edb;" horiz-adv-x="573" 
d="M301 556h-75l140 144h100zM541 531q0 -37 -17.5 -69t-44.5 -55q56 -68 56 -165q0 -52 -17 -98.5t-49.5 -81t-78.5 -54.5t-104 -20q-57 0 -103 20t-78.5 54.5t-49.5 81t-17 98.5t17 98t49.5 80.5t78.5 54.5t103 20q50 0 91 -15.5t72 -41.5q16 14 27.5 32t14.5 35
q-4 -2 -13 -2q-19 0 -31.5 13t-12.5 34q0 20 14.5 35t35.5 15q23 0 40 -18t17 -51zM286 81q34 0 60 13t44 35t27 51.5t9 61.5t-9 61t-27 51t-44 35t-60 13q-33 0 -59 -13t-44 -35t-27 -51t-9 -61t9 -61.5t27 -51.5t44 -35t59 -13z" />
    <glyph glyph-name="uni1EDD" unicode="&#x1edd;" horiz-adv-x="573" 
d="M541 531q0 -37 -17.5 -69t-44.5 -55q56 -68 56 -165q0 -52 -17 -98.5t-49.5 -81t-78.5 -54.5t-104 -20q-57 0 -103 20t-78.5 54.5t-49.5 81t-17 98.5t17 98t49.5 80.5t78.5 54.5t103 20q50 0 91 -15.5t72 -41.5q16 14 27.5 32t14.5 35q-4 -2 -13 -2q-19 0 -31.5 13
t-12.5 34q0 20 14.5 35t35.5 15q23 0 40 -18t17 -51zM286 81q34 0 60 13t44 35t27 51.5t9 61.5t-9 61t-27 51t-44 35t-60 13q-33 0 -59 -13t-44 -35t-27 -51t-9 -61t9 -61.5t27 -51.5t44 -35t59 -13zM273 556l-165 144h100l140 -144h-75z" />
    <glyph glyph-name="uni1EDF" unicode="&#x1edf;" horiz-adv-x="573" 
d="M541 531q0 -37 -17.5 -69t-44.5 -55q56 -68 56 -165q0 -52 -17 -98.5t-49.5 -81t-78.5 -54.5t-104 -20q-57 0 -103 20t-78.5 54.5t-49.5 81t-17 98.5t17 98t49.5 80.5t78.5 54.5t103 20q50 0 91 -15.5t72 -41.5q16 14 27.5 32t14.5 35q-4 -2 -13 -2q-19 0 -31.5 13
t-12.5 34q0 20 14.5 35t35.5 15q23 0 40 -18t17 -51zM286 81q34 0 60 13t44 35t27 51.5t9 61.5t-9 61t-27 51t-44 35t-60 13q-33 0 -59 -13t-44 -35t-27 -51t-9 -61t9 -61.5t27 -51.5t44 -35t59 -13zM210 595q8 26 28 41t49 15q30 0 53 -16.5t23 -54.5q0 -16 -4.5 -27.5
t-12.5 -24.5h-48q21 22 21 50q0 18 -9 26.5t-23 8.5t-23 -8t-14 -22z" />
    <glyph glyph-name="uni1EE1" unicode="&#x1ee1;" horiz-adv-x="573" 
d="M541 531q0 -37 -17.5 -69t-44.5 -55q56 -68 56 -165q0 -52 -17 -98.5t-49.5 -81t-78.5 -54.5t-104 -20q-57 0 -103 20t-78.5 54.5t-49.5 81t-17 98.5t17 98t49.5 80.5t78.5 54.5t103 20q50 0 91 -15.5t72 -41.5q16 14 27.5 32t14.5 35q-4 -2 -13 -2q-19 0 -31.5 13
t-12.5 34q0 20 14.5 35t35.5 15q23 0 40 -18t17 -51zM286 81q34 0 60 13t44 35t27 51.5t9 61.5t-9 61t-27 51t-44 35t-60 13q-33 0 -59 -13t-44 -35t-27 -51t-9 -61t9 -61.5t27 -51.5t44 -35t59 -13zM344 554q-26 0 -42 12t-28 27t-22.5 27t-26.5 12q-17 0 -29.5 -17
t-12.5 -55h-57q0 62 26 98t77 36q26 0 42 -12t28 -27t22.5 -27t26.5 -12q17 0 29 17t12 55h58q0 -62 -26 -98t-77 -36z" />
    <glyph glyph-name="uni1EE3" unicode="&#x1ee3;" horiz-adv-x="573" 
d="M541 531q0 -37 -17.5 -69t-44.5 -55q56 -68 56 -165q0 -52 -17 -98.5t-49.5 -81t-78.5 -54.5t-104 -20q-57 0 -103 20t-78.5 54.5t-49.5 81t-17 98.5t17 98t49.5 80.5t78.5 54.5t103 20q50 0 91 -15.5t72 -41.5q16 14 27.5 32t14.5 35q-4 -2 -13 -2q-19 0 -31.5 13
t-12.5 34q0 20 14.5 35t35.5 15q23 0 40 -18t17 -51zM286 81q34 0 60 13t44 35t27 51.5t9 61.5t-9 61t-27 51t-44 35t-60 13q-33 0 -59 -13t-44 -35t-27 -51t-9 -61t9 -61.5t27 -51.5t44 -35t59 -13zM287 -190q-24 0 -41.5 17t-17.5 42q0 24 17.5 41.5t41.5 17.5t41 -17.5
t17 -41.5q0 -25 -17 -42t-41 -17z" />
    <glyph glyph-name="oe" unicode="&#x153;" horiz-adv-x="944" 
d="M536 207q3 -27 14.5 -51.5t31 -42.5t46.5 -28.5t61 -10.5q36 0 74 13.5t64 39.5l48 -69q-37 -35 -88 -52.5t-108 -17.5q-43 0 -75.5 11.5t-56.5 29.5t-40.5 39t-27.5 40q-11 -18 -27 -39t-39 -39t-54.5 -30t-72.5 -12q-57 0 -103 20t-78.5 54.5t-49.5 81t-17 98.5t17 98
t49.5 80.5t78.5 54.5t103 20q41 0 72.5 -12t55 -30.5t39.5 -39.5t27 -39q10 18 26.5 39.5t39.5 39.5t54 30t71 12q54 0 98 -19.5t75 -55t47.5 -83.5t16.5 -105v-25h-372zM807 281q-1 21 -9.5 44t-25 41.5t-41.5 30.5t-61 12q-33 0 -58 -11.5t-41.5 -30t-25.5 -41.5t-10 -45
h272zM426 242q0 34 -9.5 63t-27.5 50.5t-44 34t-59 12.5q-32 0 -57.5 -12.5t-43.5 -34t-28 -50.5t-10 -63t10 -63.5t28 -51.5t43.5 -34.5t57.5 -12.5q33 0 59 12.5t44 34.5t27.5 51.5t9.5 63.5z" />
    <glyph glyph-name="uni1E57" unicode="&#x1e57;" horiz-adv-x="578" 
d="M328 -12q-46 0 -86 20t-69 59v-251h-105v667h105v-66q27 36 67 57t88 21q47 0 86 -17t67.5 -49.5t44.5 -79.5t16 -107t-16 -107t-44.5 -79.5t-67.5 -50t-86 -17.5zM297 81q63 0 99.5 45t36.5 116q0 35 -9.5 64.5t-27.5 50.5t-43 33t-56 12q-18 0 -36.5 -5t-35 -14
t-30 -21t-22.5 -25v-191q9 -13 22.5 -25t30 -21t35 -14t36.5 -5zM296 548q-24 0 -41.5 17t-17.5 42q0 24 17.5 41.5t41.5 17.5t41 -17.5t17 -41.5q0 -25 -17 -42t-41 -17z" />
    <glyph glyph-name="racute" unicode="&#x155;" horiz-adv-x="347" 
d="M213 556h-75l140 144h100zM68 0v483h105v-71q27 35 68 58.5t89 23.5v-104q-14 3 -33 3q-17 0 -35 -5t-35.5 -14t-31.5 -20.5t-22 -24.5v-329h-105z" />
    <glyph glyph-name="rcaron" unicode="&#x159;" horiz-adv-x="347" 
d="M151 556l-96 144h66l78 -97l74 97h67l-93 -144h-96zM68 0v483h105v-71q27 35 68 58.5t89 23.5v-104q-14 3 -33 3q-17 0 -35 -5t-35.5 -14t-31.5 -20.5t-22 -24.5v-329h-105z" />
    <glyph glyph-name="rcommaaccent" unicode="&#x157;" horiz-adv-x="347" 
d="M238 -138q0 -44 -22 -81.5t-56 -61.5l-39 31q21 13 39 36.5t22 45.5q-4 -2 -14 -2q-20 0 -34 14t-14 37t16 39.5t39 16.5q25 0 44 -19.5t19 -55.5zM68 0v483h105v-71q27 35 68 58.5t89 23.5v-104q-14 3 -33 3q-17 0 -35 -5t-35.5 -14t-31.5 -20.5t-22 -24.5v-329h-105z
" />
    <glyph glyph-name="sacute" unicode="&#x15b;" horiz-adv-x="472" 
d="M248 556h-75l140 144h100zM233 -12q-62 0 -115.5 19t-91.5 56l48 76q13 -13 31 -25.5t40 -22t45.5 -15t47.5 -5.5q48 0 71.5 18t23.5 47q0 24 -21.5 36t-54 20t-70.5 16t-70.5 24t-54 43t-21.5 73q0 30 12.5 56.5t36.5 46.5t59.5 32t81.5 12q62 0 108.5 -19.5t79.5 -48.5
l-44 -74q-22 25 -60 41.5t-83 16.5q-42 0 -66 -16.5t-24 -42.5q0 -22 21.5 -32.5t54 -18.5t70.5 -16.5t70.5 -25t54 -45t21.5 -76.5q0 -32 -13 -59.5t-38.5 -47.5t-63 -31.5t-86.5 -11.5z" />
    <glyph glyph-name="scaron" unicode="&#x161;" horiz-adv-x="472" 
d="M187 556l-96 144h66l78 -97l74 97h67l-93 -144h-96zM233 -12q-62 0 -115.5 19t-91.5 56l48 76q13 -13 31 -25.5t40 -22t45.5 -15t47.5 -5.5q48 0 71.5 18t23.5 47q0 24 -21.5 36t-54 20t-70.5 16t-70.5 24t-54 43t-21.5 73q0 30 12.5 56.5t36.5 46.5t59.5 32t81.5 12
q62 0 108.5 -19.5t79.5 -48.5l-44 -74q-22 25 -60 41.5t-83 16.5q-42 0 -66 -16.5t-24 -42.5q0 -22 21.5 -32.5t54 -18.5t70.5 -16.5t70.5 -25t54 -45t21.5 -76.5q0 -32 -13 -59.5t-38.5 -47.5t-63 -31.5t-86.5 -11.5z" />
    <glyph glyph-name="scircumflex" unicode="&#x15d;" horiz-adv-x="472" 
d="M309 556l-77 96l-75 -96h-66l93 144h96l96 -144h-67zM233 -12q-62 0 -115.5 19t-91.5 56l48 76q13 -13 31 -25.5t40 -22t45.5 -15t47.5 -5.5q48 0 71.5 18t23.5 47q0 24 -21.5 36t-54 20t-70.5 16t-70.5 24t-54 43t-21.5 73q0 30 12.5 56.5t36.5 46.5t59.5 32t81.5 12
q62 0 108.5 -19.5t79.5 -48.5l-44 -74q-22 25 -60 41.5t-83 16.5q-42 0 -66 -16.5t-24 -42.5q0 -22 21.5 -32.5t54 -18.5t70.5 -16.5t70.5 -25t54 -45t21.5 -76.5q0 -32 -13 -59.5t-38.5 -47.5t-63 -31.5t-86.5 -11.5z" />
    <glyph glyph-name="scedilla" unicode="&#x15f;" horiz-adv-x="472" 
d="M232 -194q-35 0 -63 9.5t-43 21.5l22 46q19 -15 40 -22t41 -7q22 0 39 9t17 27q0 30 -33 30q-21 0 -34 -15l-41 23l23 61q-52 5 -97 23.5t-77 50.5l48 76q13 -13 31 -25.5t40 -22t45.5 -15t47.5 -5.5q48 0 71.5 18t23.5 47q0 24 -21.5 36t-54 20t-70.5 16t-70.5 24
t-54 43t-21.5 73q0 30 12.5 56.5t36.5 46.5t59.5 32t81.5 12q62 0 108.5 -19.5t79.5 -48.5l-44 -74q-22 25 -60 41.5t-83 16.5q-42 0 -66 -16.5t-24 -42.5q0 -22 21.5 -32.5t54 -18.5t70.5 -16.5t70.5 -25t54 -45t21.5 -76.5q0 -61 -46 -102.5t-134 -46.5l-17 -42
q16 11 36 11q29 0 48 -19t19 -50q0 -19 -8.5 -34.5t-23.5 -26t-34.5 -16.5t-41.5 -6z" />
    <glyph glyph-name="scommaaccent" unicode="&#x219;" horiz-adv-x="472" 
d="M304 -138q0 -44 -22 -81.5t-56 -61.5l-39 31q21 13 39 36.5t22 45.5q-4 -2 -14 -2q-20 0 -34 14t-14 37t16 39.5t39 16.5q25 0 44 -19.5t19 -55.5zM233 -12q-62 0 -115.5 19t-91.5 56l48 76q13 -13 31 -25.5t40 -22t45.5 -15t47.5 -5.5q48 0 71.5 18t23.5 47
q0 24 -21.5 36t-54 20t-70.5 16t-70.5 24t-54 43t-21.5 73q0 30 12.5 56.5t36.5 46.5t59.5 32t81.5 12q62 0 108.5 -19.5t79.5 -48.5l-44 -74q-22 25 -60 41.5t-83 16.5q-42 0 -66 -16.5t-24 -42.5q0 -22 21.5 -32.5t54 -18.5t70.5 -16.5t70.5 -25t54 -45t21.5 -76.5
q0 -32 -13 -59.5t-38.5 -47.5t-63 -31.5t-86.5 -11.5z" />
    <glyph glyph-name="uni1E61" unicode="&#x1e61;" horiz-adv-x="472" 
d="M233 -12q-62 0 -115.5 19t-91.5 56l48 76q13 -13 31 -25.5t40 -22t45.5 -15t47.5 -5.5q48 0 71.5 18t23.5 47q0 24 -21.5 36t-54 20t-70.5 16t-70.5 24t-54 43t-21.5 73q0 30 12.5 56.5t36.5 46.5t59.5 32t81.5 12q62 0 108.5 -19.5t79.5 -48.5l-44 -74q-22 25 -60 41.5
t-83 16.5q-42 0 -66 -16.5t-24 -42.5q0 -22 21.5 -32.5t54 -18.5t70.5 -16.5t70.5 -25t54 -45t21.5 -76.5q0 -32 -13 -59.5t-38.5 -47.5t-63 -31.5t-86.5 -11.5zM236 548q-24 0 -41.5 17t-17.5 42q0 24 17.5 41.5t41.5 17.5t41 -17.5t17 -41.5q0 -25 -17 -42t-41 -17z" />
    <glyph glyph-name="germandbls" unicode="&#xdf;" horiz-adv-x="623" 
d="M606 140q0 -32 -13 -59.5t-38 -48t-61.5 -32.5t-82.5 -12q-36 0 -64.5 6t-51 16.5t-41 25t-35.5 30.5l47 73q21 -27 59.5 -47t85.5 -20q48 0 71 19.5t23 45.5q0 23 -20 35.5t-50.5 21.5t-65.5 17.5t-65.5 24t-50.5 42t-20 71.5q0 27 10 46.5t24.5 34.5t32 27t32 23
t24.5 22t10 24q0 14 -7.5 25t-20 18.5t-28 11t-31.5 3.5q-45 0 -75.5 -26t-30.5 -73v-485h-105v485q0 39 14.5 74t42 61.5t67 41.5t89.5 15q37 0 72 -9.5t61.5 -27t42.5 -43t16 -57.5q0 -28 -10.5 -48t-25.5 -35t-33.5 -27t-33.5 -23.5t-25.5 -24.5t-10.5 -30q0 -21 20 -32
t50.5 -18.5t65.5 -15.5t65.5 -24.5t50.5 -45t20 -76.5z" />
    <glyph glyph-name="longs" unicode="&#x17f;" horiz-adv-x="308" 
d="M93 0v391h-80v92h80v27q0 79 42 123t111 44q32 0 62.5 -9.5t53.5 -32.5l-41 -72q-11 10 -24.5 15.5t-31.5 5.5q-31 0 -49 -19.5t-18 -54.5v-510h-105z" />
    <glyph glyph-name="tbar" unicode="&#x167;" horiz-adv-x="319" 
d="M213 -12q-61 0 -92.5 32t-31.5 92v104h-80v62h80v113h-80v92h80v132h105v-132h98v-92h-98v-113h69v-62h-69v-78q0 -25 11.5 -41t34.5 -16q15 0 28 5t19 12l25 -79q-14 -14 -38 -22.5t-61 -8.5z" />
    <glyph glyph-name="tcaron" unicode="&#x165;" horiz-adv-x="351" 
d="M369 680q0 -44 -22 -81.5t-56 -61.5l-39 31q21 13 39 36.5t22 45.5q-4 -2 -14 -2q-20 0 -34 14t-14 37t16 39.5t39 16.5q25 0 44 -19.5t19 -55.5zM213 -12q-61 0 -92.5 32t-31.5 92v279h-80v92h80v132h105v-132h98v-92h-98v-253q0 -25 11.5 -41t34.5 -16q15 0 28 5t19 12
l25 -79q-14 -14 -38 -22.5t-61 -8.5z" />
    <glyph glyph-name="tcommaaccent" unicode="&#x163;" horiz-adv-x="319" 
d="M224 -138q0 -44 -22 -81.5t-56 -61.5l-39 31q21 13 39 36.5t22 45.5q-4 -2 -14 -2q-20 0 -34 14t-14 37t16 39.5t39 16.5q25 0 44 -19.5t19 -55.5zM213 -12q-61 0 -92.5 32t-31.5 92v279h-80v92h80v132h105v-132h98v-92h-98v-253q0 -25 11.5 -41t34.5 -16q15 0 28 5
t19 12l25 -79q-14 -14 -38 -22.5t-61 -8.5z" />
    <glyph glyph-name="uni021B" unicode="&#x21b;" horiz-adv-x="319" 
d="M224 -138q0 -44 -22 -81.5t-56 -61.5l-39 31q21 13 39 36.5t22 45.5q-4 -2 -14 -2q-20 0 -34 14t-14 37t16 39.5t39 16.5q25 0 44 -19.5t19 -55.5zM213 -12q-61 0 -92.5 32t-31.5 92v279h-80v92h80v132h105v-132h98v-92h-98v-253q0 -25 11.5 -41t34.5 -16q15 0 28 5
t19 12l25 -79q-14 -14 -38 -22.5t-61 -8.5z" />
    <glyph glyph-name="uni1E6B" unicode="&#x1e6b;" horiz-adv-x="319" 
d="M213 -12q-61 0 -92.5 32t-31.5 92v279h-80v92h80v132h105v-132h98v-92h-98v-253q0 -25 11.5 -41t34.5 -16q15 0 28 5t19 12l25 -79q-14 -14 -38 -22.5t-61 -8.5zM147 715q-24 0 -41.5 17t-17.5 42q0 24 17.5 41.5t41.5 17.5t41 -17.5t17 -41.5q0 -25 -17 -42t-41 -17z
" />
    <glyph glyph-name="uacute" unicode="&#xfa;" 
d="M297 556h-75l140 144h100zM394 0v64q-26 -29 -70 -52.5t-101 -23.5q-78 0 -116.5 39t-38.5 114v342h105v-304q0 -56 26.5 -77t70.5 -21q40 0 72.5 19t51.5 44v339h105v-483h-105z" />
    <glyph glyph-name="ubreve" unicode="&#x16d;" 
d="M394 0v64q-26 -29 -70 -52.5t-101 -23.5q-78 0 -116.5 39t-38.5 114v342h105v-304q0 -56 26.5 -77t70.5 -21q40 0 72.5 19t51.5 44v339h105v-483h-105zM459 622q-30 -41 -75.5 -64.5t-99.5 -23.5t-99.5 23.5t-76.5 64.5l48 40q22 -30 54 -48t74 -18q40 0 72.5 17.5
t54.5 48.5l48 -40v0z" />
    <glyph glyph-name="ucircumflex" unicode="&#xfb;" 
d="M359 556l-77 96l-75 -96h-66l93 144h96l96 -144h-67zM394 0v64q-26 -29 -70 -52.5t-101 -23.5q-78 0 -116.5 39t-38.5 114v342h105v-304q0 -56 26.5 -77t70.5 -21q40 0 72.5 19t51.5 44v339h105v-483h-105z" />
    <glyph glyph-name="udieresis" unicode="&#xfc;" 
d="M446 608q0 -25 -17.5 -42t-41.5 -17t-41.5 17t-17.5 42q0 24 17.5 41t41.5 17t41.5 -17t17.5 -41zM236 608q0 -25 -17 -42t-41 -17q-25 0 -42 17t-17 42q0 24 17 41t42 17q24 0 41 -17t17 -41zM394 0v64q-26 -29 -70 -52.5t-101 -23.5q-78 0 -116.5 39t-38.5 114v342h105
v-304q0 -56 26.5 -77t70.5 -21q40 0 72.5 19t51.5 44v339h105v-483h-105z" />
    <glyph glyph-name="ugrave" unicode="&#xf9;" 
d="M394 0v64q-26 -29 -70 -52.5t-101 -23.5q-78 0 -116.5 39t-38.5 114v342h105v-304q0 -56 26.5 -77t70.5 -21q40 0 72.5 19t51.5 44v339h105v-483h-105zM269 556l-165 144h100l140 -144h-75z" />
    <glyph glyph-name="uhungarumlaut" unicode="&#x171;" 
d="M394 0v64q-26 -29 -70 -52.5t-101 -23.5q-78 0 -116.5 39t-38.5 114v342h105v-304q0 -56 26.5 -77t70.5 -21q40 0 72.5 19t51.5 44v339h105v-483h-105zM229 556h-63l90 144h88zM375 556h-63l90 144h88z" />
    <glyph glyph-name="umacron" unicode="&#x16b;" 
d="M394 0v64q-26 -29 -70 -52.5t-101 -23.5q-78 0 -116.5 39t-38.5 114v342h105v-304q0 -56 26.5 -77t70.5 -21q40 0 72.5 19t51.5 44v339h105v-483h-105zM101 566v62h363v-62h-363z" />
    <glyph glyph-name="uogonek" unicode="&#x173;" 
d="M499 0q-73 -37 -73 -93q0 -24 11.5 -35t28.5 -11q19 0 30 10.5t17 27.5l45 -27q-12 -24 -34.5 -41t-57.5 -17q-38 0 -66.5 21t-28.5 68q0 28 12.5 52.5t35.5 44.5h-25v64q-26 -29 -70 -52.5t-101 -23.5q-78 0 -116.5 39t-38.5 114v342h105v-304q0 -56 26.5 -77t70.5 -21
q40 0 72.5 19t51.5 44v339h105v-483v0z" />
    <glyph glyph-name="uring" unicode="&#x16f;" 
d="M284 536q-21 0 -39.5 8t-32.5 22t-22 32.5t-8 39.5t8 39.5t22 33t32.5 22.5t39.5 8t39.5 -8t32 -22.5t21.5 -33t8 -39.5t-8 -39.5t-21.5 -32.5t-32 -22t-39.5 -8zM284 586q22 0 36.5 15.5t14.5 36.5q0 22 -14.5 37t-36.5 15q-21 0 -36.5 -15t-15.5 -37q0 -21 15.5 -36.5
t36.5 -15.5zM394 0v64q-26 -29 -70 -52.5t-101 -23.5q-78 0 -116.5 39t-38.5 114v342h105v-304q0 -56 26.5 -77t70.5 -21q40 0 72.5 19t51.5 44v339h105v-483h-105z" />
    <glyph glyph-name="utilde" unicode="&#x169;" 
d="M394 0v64q-26 -29 -70 -52.5t-101 -23.5q-78 0 -116.5 39t-38.5 114v342h105v-304q0 -56 26.5 -77t70.5 -21q40 0 72.5 19t51.5 44v339h105v-483h-105zM341 554q-26 0 -42 12t-28 27t-22.5 27t-26.5 12q-17 0 -29.5 -17t-12.5 -55h-57q0 62 26 98t77 36q26 0 42 -12
t28 -27t22.5 -27t26.5 -12q17 0 29 17t12 55h58q0 -62 -26 -98t-77 -36z" />
    <glyph glyph-name="uni1EE5" unicode="&#x1ee5;" 
d="M394 0v64q-26 -29 -70 -52.5t-101 -23.5q-78 0 -116.5 39t-38.5 114v342h105v-304q0 -56 26.5 -77t70.5 -21q40 0 72.5 19t51.5 44v339h105v-483h-105zM285 -190q-24 0 -41.5 17t-17.5 42q0 24 17.5 41.5t41.5 17.5t41 -17.5t17 -41.5q0 -25 -17 -42t-41 -17z" />
    <glyph glyph-name="uhorn" unicode="&#x1b0;" 
d="M394 0v64q-26 -29 -70 -52.5t-101 -23.5q-78 0 -116.5 39t-38.5 114v342h105v-304q0 -56 26.5 -77t70.5 -21q40 0 72.5 19t51.5 44v339h105v-31q14 14 24 30t12 33q-1 -1 -5 -1.5t-7 -0.5q-20 0 -32.5 13t-12.5 34q0 20 14.5 35t35.5 15q23 0 40.5 -18t17.5 -51
q0 -40 -22.5 -78t-64.5 -64v-399h-105z" />
    <glyph glyph-name="uni1EE7" unicode="&#x1ee7;" 
d="M394 0v64q-26 -29 -70 -52.5t-101 -23.5q-78 0 -116.5 39t-38.5 114v342h105v-304q0 -56 26.5 -77t70.5 -21q40 0 72.5 19t51.5 44v339h105v-483h-105zM207 595q8 26 28 41t49 15q30 0 53 -16.5t23 -54.5q0 -16 -4.5 -27.5t-12.5 -24.5h-48q21 22 21 50q0 18 -9 26.5
t-23 8.5t-23 -8t-14 -22z" />
    <glyph glyph-name="uni1EE9" unicode="&#x1ee9;" 
d="M297 556h-75l140 144h100zM394 0v64q-26 -29 -70 -52.5t-101 -23.5q-78 0 -116.5 39t-38.5 114v342h105v-304q0 -56 26.5 -77t70.5 -21q40 0 72.5 19t51.5 44v339h105v-31q14 14 24 30t12 33q-1 -1 -5 -1.5t-7 -0.5q-20 0 -32.5 13t-12.5 34q0 20 14.5 35t35.5 15
q23 0 40.5 -18t17.5 -51q0 -40 -22.5 -78t-64.5 -64v-399h-105z" />
    <glyph glyph-name="uni1EEB" unicode="&#x1eeb;" 
d="M269 556l-165 144h100l140 -144h-75zM394 0v64q-26 -29 -70 -52.5t-101 -23.5q-78 0 -116.5 39t-38.5 114v342h105v-304q0 -56 26.5 -77t70.5 -21q40 0 72.5 19t51.5 44v339h105v-31q14 14 24 30t12 33q-1 -1 -5 -1.5t-7 -0.5q-20 0 -32.5 13t-12.5 34q0 20 14.5 35
t35.5 15q23 0 40.5 -18t17.5 -51q0 -40 -22.5 -78t-64.5 -64v-399h-105z" />
    <glyph glyph-name="uni1EED" unicode="&#x1eed;" 
d="M207 595q8 26 28 41t49 15q30 0 53 -16.5t23 -54.5q0 -16 -4.5 -27.5t-12.5 -24.5h-48q21 22 21 50q0 18 -9 26.5t-23 8.5t-23 -8t-14 -22zM394 0v64q-26 -29 -70 -52.5t-101 -23.5q-78 0 -116.5 39t-38.5 114v342h105v-304q0 -56 26.5 -77t70.5 -21q40 0 72.5 19
t51.5 44v339h105v-31q14 14 24 30t12 33q-1 -1 -5 -1.5t-7 -0.5q-20 0 -32.5 13t-12.5 34q0 20 14.5 35t35.5 15q23 0 40.5 -18t17.5 -51q0 -40 -22.5 -78t-64.5 -64v-399h-105z" />
    <glyph glyph-name="uni1EEF" unicode="&#x1eef;" 
d="M394 0v64q-26 -29 -70 -52.5t-101 -23.5q-78 0 -116.5 39t-38.5 114v342h105v-304q0 -56 26.5 -77t70.5 -21q40 0 72.5 19t51.5 44v339h105v-31q14 14 24 30t12 33q-1 -1 -5 -1.5t-7 -0.5q-20 0 -32.5 13t-12.5 34q0 20 14.5 35t35.5 15q23 0 40.5 -18t17.5 -51
q0 -40 -22.5 -78t-64.5 -64v-399h-105zM341 554q-26 0 -42 12t-28 27t-22.5 27t-26.5 12q-17 0 -29.5 -17t-12.5 -55h-57q0 62 26 98t77 36q26 0 42 -12t28 -27t22.5 -27t26.5 -12q17 0 29 17t12 55h58q0 -62 -26 -98t-77 -36z" />
    <glyph glyph-name="uni1EF1" unicode="&#x1ef1;" 
d="M285 -190q-24 0 -41.5 17t-17.5 42q0 24 17.5 41.5t41.5 17.5t41 -17.5t17 -41.5q0 -25 -17 -42t-41 -17zM394 0v64q-26 -29 -70 -52.5t-101 -23.5q-78 0 -116.5 39t-38.5 114v342h105v-304q0 -56 26.5 -77t70.5 -21q40 0 72.5 19t51.5 44v339h105v-31q14 14 24 30t12 33
q-1 -1 -5 -1.5t-7 -0.5q-20 0 -32.5 13t-12.5 34q0 20 14.5 35t35.5 15q23 0 40.5 -18t17.5 -51q0 -40 -22.5 -78t-64.5 -64v-399h-105z" />
    <glyph glyph-name="wacute" unicode="&#x1e83;" horiz-adv-x="754" 
d="M391 556h-75l140 144h100zM489 0l-112 354l-112 -354h-110l-150 483h109l102 -351l115 351h92l115 -351l102 351h109l-150 -483h-110z" />
    <glyph glyph-name="wcircumflex" unicode="&#x175;" horiz-adv-x="754" 
d="M453 556l-77 96l-75 -96h-66l93 144h96l96 -144h-67zM489 0l-112 354l-112 -354h-110l-150 483h109l102 -351l115 351h92l115 -351l102 351h109l-150 -483h-110z" />
    <glyph glyph-name="wdieresis" unicode="&#x1e85;" horiz-adv-x="754" 
d="M540 608q0 -25 -17.5 -42t-41.5 -17t-41.5 17t-17.5 42q0 24 17.5 41t41.5 17t41.5 -17t17.5 -41zM330 608q0 -25 -17 -42t-41 -17q-25 0 -42 17t-17 42q0 24 17 41t42 17q24 0 41 -17t17 -41zM489 0l-112 354l-112 -354h-110l-150 483h109l102 -351l115 351h92l115 -351
l102 351h109l-150 -483h-110z" />
    <glyph glyph-name="wgrave" unicode="&#x1e81;" horiz-adv-x="754" 
d="M489 0l-112 354l-112 -354h-110l-150 483h109l102 -351l115 351h92l115 -351l102 351h109l-150 -483h-110zM363 556l-165 144h100l140 -144h-75z" />
    <glyph glyph-name="yacute" unicode="&#xfd;" horiz-adv-x="503" 
d="M63 -95q8 -4 19.5 -6t20.5 -2q25 0 41.5 9t27.5 33l24 55l-198 489h112l141 -362l141 362h113l-233 -570q-25 -62 -67 -85t-99 -24q-11 0 -29.5 2t-29.5 5zM265 556h-75l140 144h100z" />
    <glyph glyph-name="ycircumflex" unicode="&#x177;" horiz-adv-x="503" 
d="M63 -95q8 -4 19.5 -6t20.5 -2q25 0 41.5 9t27.5 33l24 55l-198 489h112l141 -362l141 362h113l-233 -570q-25 -62 -67 -85t-99 -24q-11 0 -29.5 2t-29.5 5zM327 556l-77 96l-75 -96h-66l93 144h96l96 -144h-67z" />
    <glyph glyph-name="ydieresis" unicode="&#xff;" horiz-adv-x="503" 
d="M63 -95q8 -4 19.5 -6t20.5 -2q25 0 41.5 9t27.5 33l24 55l-198 489h112l141 -362l141 362h113l-233 -570q-25 -62 -67 -85t-99 -24q-11 0 -29.5 2t-29.5 5zM415 608q0 -25 -17.5 -42t-41.5 -17t-41.5 17t-17.5 42q0 24 17.5 41t41.5 17t41.5 -17t17.5 -41zM205 608
q0 -25 -17 -42t-41 -17q-25 0 -42 17t-17 42q0 24 17 41t42 17q24 0 41 -17t17 -41z" />
    <glyph glyph-name="ygrave" unicode="&#x1ef3;" horiz-adv-x="503" 
d="M63 -95q8 -4 19.5 -6t20.5 -2q25 0 41.5 9t27.5 33l24 55l-198 489h112l141 -362l141 362h113l-233 -570q-25 -62 -67 -85t-99 -24q-11 0 -29.5 2t-29.5 5zM237 556l-165 144h100l140 -144h-75z" />
    <glyph glyph-name="yacute.alt1" 
d="M297 556h-75l140 144h100zM257 -196q-61 0 -108 17.5t-87 54.5l49 76q27 -33 66 -47.5t80 -14.5q65 0 101 34.5t36 99.5v56q-26 -29 -70 -52.5t-101 -23.5q-78 0 -116.5 39t-38.5 114v326h105v-288q0 -56 26.5 -77t70.5 -21q40 0 72.5 19t51.5 44v323h105v-459
q0 -54 -18.5 -95.5t-50.5 -69t-76.5 -41.5t-96.5 -14z" />
    <glyph glyph-name="ycircumflex.alt1" 
d="M360 556l-77 96l-75 -96h-66l93 144h96l96 -144h-67zM257 -196q-61 0 -108 17.5t-87 54.5l49 76q27 -33 66 -47.5t80 -14.5q65 0 101 34.5t36 99.5v56q-26 -29 -70 -52.5t-101 -23.5q-78 0 -116.5 39t-38.5 114v326h105v-288q0 -56 26.5 -77t70.5 -21q40 0 72.5 19
t51.5 44v323h105v-459q0 -54 -18.5 -95.5t-50.5 -69t-76.5 -41.5t-96.5 -14z" />
    <glyph glyph-name="ydieresis.alt1" 
d="M448 608q0 -25 -17.5 -42t-41.5 -17t-41.5 17t-17.5 42q0 24 17.5 41t41.5 17t41.5 -17t17.5 -41zM238 608q0 -25 -17 -42t-41 -17q-25 0 -42 17t-17 42q0 24 17 41t42 17q24 0 41 -17t17 -41zM257 -196q-61 0 -108 17.5t-87 54.5l49 76q27 -33 66 -47.5t80 -14.5
q65 0 101 34.5t36 99.5v56q-26 -29 -70 -52.5t-101 -23.5q-78 0 -116.5 39t-38.5 114v326h105v-288q0 -56 26.5 -77t70.5 -21q40 0 72.5 19t51.5 44v323h105v-459q0 -54 -18.5 -95.5t-50.5 -69t-76.5 -41.5t-96.5 -14z" />
    <glyph glyph-name="ygrave.alt1" 
d="M257 -196q-61 0 -108 17.5t-87 54.5l49 76q27 -33 66 -47.5t80 -14.5q65 0 101 34.5t36 99.5v56q-26 -29 -70 -52.5t-101 -23.5q-78 0 -116.5 39t-38.5 114v326h105v-288q0 -56 26.5 -77t70.5 -21q40 0 72.5 19t51.5 44v323h105v-459q0 -54 -18.5 -95.5t-50.5 -69
t-76.5 -41.5t-96.5 -14zM269 556l-165 144h100l140 -144h-75z" />
    <glyph glyph-name="zacute" unicode="&#x17a;" horiz-adv-x="476" 
d="M251 556h-75l140 144h100zM46 0v79l239 312h-239v92h379v-77l-241 -315h245v-91h-383z" />
    <glyph glyph-name="zcaron" unicode="&#x17e;" horiz-adv-x="476" 
d="M188 556l-96 144h66l78 -97l74 97h67l-93 -144h-96zM46 0v79l239 312h-239v92h379v-77l-241 -315h245v-91h-383z" />
    <glyph glyph-name="zdotaccent" unicode="&#x17c;" horiz-adv-x="476" 
d="M46 0v79l239 312h-239v92h379v-77l-241 -315h245v-91h-383zM236 548q-24 0 -41.5 17t-17.5 42q0 24 17.5 41.5t41.5 17.5t41 -17.5t17 -41.5q0 -25 -17 -42t-41 -17z" />
    <glyph glyph-name="eth" unicode="&#xf0;" horiz-adv-x="573" 
d="M89 533l112 49q-17 11 -33.5 21t-33.5 21l57 85q64 -38 118 -79l105 46l22 -51l-78 -35q80 -71 128.5 -154.5t48.5 -185.5q0 -57 -17 -105.5t-49.5 -83t-78.5 -54t-104 -19.5q-56 0 -101.5 18t-78 50t-50.5 76t-18 96t16.5 96t45.5 76t68.5 50t86.5 18q99 0 159 -91
q-23 48 -65 89t-93 79l-145 -64zM286 81q34 0 60 12t44 32t27 46.5t9 56.5t-9 56.5t-27 46.5t-44 32t-60 12q-33 0 -59 -12t-44 -32t-27 -46.5t-9 -56.5t9 -56.5t27 -46.5t44 -32t59 -12z" />
    <glyph glyph-name="thorn" unicode="&#xfe;" horiz-adv-x="578" 
d="M328 -12q-46 0 -86 20t-69 59v-251h-105v851h105v-250q27 36 67 57t88 21q47 0 86 -17t67.5 -49.5t44.5 -79.5t16 -107t-16 -107t-44.5 -79.5t-67.5 -50t-86 -17.5zM297 81q63 0 99.5 45t36.5 116q0 35 -9.5 64.5t-27.5 50.5t-43 33t-56 12q-18 0 -36.5 -5t-35 -14
t-30 -21t-22.5 -25v-191q9 -13 22.5 -25t30 -21t35 -14t36.5 -5z" />
    <glyph glyph-name="Aacute.smcp" unicode="&#xf7e1;" horiz-adv-x="586" 
d="M307 606h-75l140 144h100zM359 550l227 -550h-122l-42 103h-258l-41 -103h-123l227 550h132zM293 438l-97 -240h194z" />
    <glyph glyph-name="Abreve.smcp" unicode="&#xf66d;" horiz-adv-x="586" 
d="M359 550l227 -550h-122l-42 103h-258l-41 -103h-123l227 550h132zM293 438l-97 -240h194zM469 672q-30 -41 -75.5 -64.5t-99.5 -23.5t-99.5 23.5t-76.5 64.5l48 40q22 -30 54 -48t74 -18q40 0 72.5 17.5t54.5 48.5l48 -40v0z" />
    <glyph glyph-name="Acircumflex.smcp" unicode="&#xf7e2;" horiz-adv-x="586" 
d="M370 606l-77 96l-75 -96h-66l93 144h96l96 -144h-67zM359 550l227 -550h-122l-42 103h-258l-41 -103h-123l227 550h132zM293 438l-97 -240h194z" />
    <glyph glyph-name="Adieresis.smcp" unicode="&#xf7e4;" horiz-adv-x="586" 
d="M457 668q0 -25 -17.5 -42t-41.5 -17t-41.5 17t-17.5 42q0 24 17.5 41t41.5 17t41.5 -17t17.5 -41zM247 668q0 -25 -17 -42t-41 -17q-25 0 -42 17t-17 42q0 24 17 41t42 17q24 0 41 -17t17 -41zM359 550l227 -550h-122l-42 103h-258l-41 -103h-123l227 550h132zM293 438
l-97 -240h194z" />
    <glyph glyph-name="Agrave.smcp" unicode="&#xf7e0;" horiz-adv-x="586" 
d="M359 550l227 -550h-122l-42 103h-258l-41 -103h-123l227 550h132zM293 438l-97 -240h194zM279 606l-165 144h100l140 -144h-75z" />
    <glyph glyph-name="Amacron.smcp" unicode="&#xf66e;" horiz-adv-x="586" 
d="M112 616v62h363v-62h-363zM359 550l227 -550h-122l-42 103h-258l-41 -103h-123l227 550h132zM293 438l-97 -240h194z" />
    <glyph glyph-name="Aogonek.smcp" unicode="&#xf66f;" horiz-adv-x="586" 
d="M359 550l227 -550q-73 -37 -73 -93q0 -24 11.5 -35t28.5 -11q19 0 30 10.5t17 27.5l45 -27q-12 -24 -34.5 -41t-57.5 -17q-38 0 -66.5 21t-28.5 68q0 28 12.5 52.5t35.5 44.5h-42l-42 103h-258l-41 -103h-123l227 550h132zM293 438l-97 -240h194z" />
    <glyph glyph-name="Aring.smcp" unicode="&#xf7e5;" horiz-adv-x="586" 
d="M294 572q-21 0 -39.5 8t-32.5 22t-22 32.5t-8 39.5t8 39.5t22 33t32.5 22.5t39.5 8t39.5 -8t32 -22.5t21.5 -33t8 -39.5t-8 -39.5t-21.5 -32.5t-32 -22t-39.5 -8zM294 622q22 0 36.5 15.5t14.5 36.5q0 22 -14.5 37t-36.5 15q-21 0 -36.5 -15t-15.5 -37q0 -21 15.5 -36.5
t36.5 -15.5zM359 550l227 -550h-122l-42 103h-258l-41 -103h-123l227 550h132zM293 438l-97 -240h194z" />
    <glyph glyph-name="Atilde.smcp" unicode="&#xf7e3;" horiz-adv-x="586" 
d="M359 550l227 -550h-122l-42 103h-258l-41 -103h-123l227 550h132zM293 438l-97 -240h194zM351 604q-26 0 -42 12t-28 27t-22.5 27t-26.5 12q-17 0 -29.5 -17t-12.5 -55h-57q0 62 26 98t77 36q26 0 42 -12t28 -27t22.5 -27t26.5 -12q17 0 29 17t12 55h58q0 -62 -26 -98
t-77 -36z" />
    <glyph glyph-name="uni1EA0.smcp" horiz-adv-x="586" 
d="M359 550l227 -550h-122l-42 103h-258l-41 -103h-123l227 550h132zM293 438l-97 -240h194zM294 -190q-24 0 -41.5 17t-17.5 42q0 24 17.5 41.5t41.5 17.5t41 -17.5t17 -41.5q0 -25 -17 -42t-41 -17z" />
    <glyph glyph-name="uni1EA2.smcp" horiz-adv-x="586" 
d="M359 550l227 -550h-122l-42 103h-258l-41 -103h-123l227 550h132zM293 438l-97 -240h194zM217 648q8 26 28 41t49 15q30 0 53 -16.5t23 -54.5q0 -16 -4.5 -27.5t-12.5 -24.5h-48q21 22 21 50q0 18 -9 26.5t-23 8.5t-23 -8t-14 -22z" />
    <glyph glyph-name="uni1EA4.smcp" horiz-adv-x="586" 
d="M370 606l-77 96l-75 -96h-66l93 144h96l96 -144h-67zM471 676h-75l140 144h100zM359 550l227 -550h-122l-42 103h-258l-41 -103h-123l227 550h132zM293 438l-97 -240h194z" />
    <glyph glyph-name="uni1EAC.smcp" horiz-adv-x="586" 
d="M369 606l-77 96l-75 -96h-66l93 144h96l96 -144h-67zM359 550l227 -550h-122l-42 103h-258l-41 -103h-123l227 550h132zM293 438l-97 -240h194zM293 -190q-24 0 -41.5 17t-17.5 42q0 24 17.5 41.5t41.5 17.5t41 -17.5t17 -41.5q0 -25 -17 -42t-41 -17z" />
    <glyph glyph-name="uni1EA6.smcp" horiz-adv-x="586" 
d="M370 606l-77 96l-75 -96h-66l93 144h96l96 -144h-67zM359 550l227 -550h-122l-42 103h-258l-41 -103h-123l227 550h132zM293 438l-97 -240h194zM114 676l-165 144h100l140 -144h-75z" />
    <glyph glyph-name="uni1EA8.smcp" horiz-adv-x="586" 
d="M369 606l-77 96l-75 -96h-66l93 144h96l96 -144h-67zM359 550l227 -550h-122l-42 103h-258l-41 -103h-123l227 550h132zM293 438l-97 -240h194zM314 784q8 26 28 41t49 15q30 0 53 -16.5t23 -54.5q0 -16 -4.5 -27.5t-12.5 -24.5h-48q21 22 21 50q0 18 -9 26.5t-23 8.5
t-23 -8t-14 -22z" />
    <glyph glyph-name="uni1EAE.smcp" horiz-adv-x="586" 
d="M311 684h-75l140 144h100zM359 550l227 -550h-122l-42 103h-258l-41 -103h-123l227 550h132zM293 438l-97 -240h194zM469 664q-30 -41 -75.5 -64.5t-99.5 -23.5t-99.5 23.5t-76.5 64.5l48 40q22 -30 54 -48t74 -18q40 0 72.5 17.5t54.5 48.5l48 -40v0z" />
    <glyph glyph-name="uni1EAA.smcp" horiz-adv-x="586" 
d="M369 573l-77 96l-75 -96h-66l93 144h96l96 -144h-67zM359 550l227 -550h-122l-42 103h-258l-41 -103h-123l227 550h132zM293 438l-97 -240h194zM351 732q-26 0 -42 12t-28 27t-22.5 27t-26.5 12q-17 0 -29.5 -17t-12.5 -55h-57q0 62 26 98t77 36q26 0 42 -12t28 -27
t22.5 -27t26.5 -12q17 0 29 17t12 55h58q0 -62 -26 -98t-77 -36z" />
    <glyph glyph-name="uni1EB0.smcp" horiz-adv-x="586" 
d="M359 550l227 -550h-122l-42 103h-258l-41 -103h-123l227 550h132zM293 438l-97 -240h194zM278 684l-165 144h100l140 -144h-75zM470 664q-30 -41 -75.5 -64.5t-99.5 -23.5t-99.5 23.5t-76.5 64.5l48 40q22 -30 54 -48t74 -18q40 0 72.5 17.5t54.5 48.5l48 -40v0z" />
    <glyph glyph-name="uni1EB2.smcp" horiz-adv-x="586" 
d="M359 550l227 -550h-122l-42 103h-258l-41 -103h-123l227 550h132zM293 438l-97 -240h194zM218 754q8 26 28 41t49 15q30 0 53 -16.5t23 -54.5q0 -16 -4.5 -27.5t-12.5 -24.5h-48q21 22 21 50q0 18 -9 26.5t-23 8.5t-23 -8t-14 -22zM470 664q-30 -41 -75.5 -64.5
t-99.5 -23.5t-99.5 23.5t-76.5 64.5l48 40q22 -30 54 -48t74 -18q40 0 72.5 17.5t54.5 48.5l48 -40v0z" />
    <glyph glyph-name="uni1EB4.smcp" horiz-adv-x="586" 
d="M470 664q-30 -41 -75.5 -64.5t-99.5 -23.5t-99.5 23.5t-76.5 64.5l48 40q22 -30 54 -48t74 -18q40 0 72.5 17.5t54.5 48.5l48 -40v0zM359 550l227 -550h-122l-42 103h-258l-41 -103h-123l227 550h132zM293 438l-97 -240h194zM352 713q-26 0 -42 12t-28 27t-22.5 27
t-26.5 12q-17 0 -29.5 -17t-12.5 -55h-57q0 62 26 98t77 36q26 0 42 -12t28 -27t22.5 -27t26.5 -12q17 0 29 17t12 55h58q0 -62 -26 -98t-77 -36z" />
    <glyph glyph-name="uni1EB6.smcp" horiz-adv-x="586" 
d="M359 550l227 -550h-122l-42 103h-258l-41 -103h-123l227 550h132zM293 438l-97 -240h194zM293 -190q-24 0 -41.5 17t-17.5 42q0 24 17.5 41.5t41.5 17.5t41 -17.5t17 -41.5q0 -25 -17 -42t-41 -17zM469 672q-30 -41 -75.5 -64.5t-99.5 -23.5t-99.5 23.5t-76.5 64.5l48 40
q22 -30 54 -48t74 -18q40 0 72.5 17.5t54.5 48.5l48 -40v0z" />
    <glyph glyph-name="AE.smcp" unicode="&#xf7e6;" horiz-adv-x="835" 
d="M387 0v103h-201l-64 -103h-123l346 550h444v-95h-293v-127h286v-95h-286v-138h293v-95h-402zM387 438l-149 -240h149v240z" />
    <glyph glyph-name="AEacute.smcp" unicode="&#xf670;" horiz-adv-x="835" 
d="M456 606h-75l140 144h100zM387 0v103h-201l-64 -103h-123l346 550h444v-95h-293v-127h286v-95h-286v-138h293v-95h-402zM387 438l-149 -240h149v240z" />
    <glyph glyph-name="uni1E02.smcp" horiz-adv-x="572" 
d="M68 0v550h286q40 0 71.5 -11t52.5 -30t32 -45t11 -55q0 -50 -28 -82t-66 -43q45 -11 75.5 -48.5t30.5 -86.5q0 -64 -44 -106.5t-127 -42.5h-294zM343 95q36 0 57 18t21 50q0 28 -20 49t-58 21h-166v-138h166zM338 328q35 0 53.5 18t18.5 45q0 29 -19 46.5t-53 17.5h-161
v-127h161zM294 598q-24 0 -41.5 17t-17.5 42q0 24 17.5 41.5t41.5 17.5t41 -17.5t17 -41.5q0 -25 -17 -42t-41 -17z" />
    <glyph glyph-name="Cacute.smcp" unicode="&#xf671;" horiz-adv-x="584" 
d="M350 606h-75l140 144h100zM335 -12q-63 0 -117.5 21t-94.5 59t-62.5 91t-22.5 116q0 64 22.5 116.5t62.5 90.5t94.5 59t117.5 21q83 0 140 -37.5t90 -91.5l-90 -45q-21 35 -58 56.5t-82 21.5q-40 0 -74 -14t-59 -39.5t-39 -60.5t-14 -77q0 -41 14 -76t39 -60.5t59 -40
t74 -14.5q45 0 82.5 21.5t57.5 55.5l90 -44q-33 -55 -90 -92t-140 -37z" />
    <glyph glyph-name="Ccaron.smcp" unicode="&#xf672;" horiz-adv-x="584" 
d="M291 606l-96 144h66l78 -97l74 97h67l-93 -144h-96zM335 -12q-63 0 -117.5 21t-94.5 59t-62.5 91t-22.5 116q0 64 22.5 116.5t62.5 90.5t94.5 59t117.5 21q83 0 140 -37.5t90 -91.5l-90 -45q-21 35 -58 56.5t-82 21.5q-40 0 -74 -14t-59 -39.5t-39 -60.5t-14 -77
q0 -41 14 -76t39 -60.5t59 -40t74 -14.5q45 0 82.5 21.5t57.5 55.5l90 -44q-33 -55 -90 -92t-140 -37z" />
    <glyph glyph-name="Ccedilla.smcp" unicode="&#xf7e7;" horiz-adv-x="584" 
d="M334 -194q-35 0 -63 9.5t-43 21.5l22 46q19 -15 40 -22t41 -7q22 0 39 9t17 27q0 30 -33 30q-21 0 -34 -15l-41 23l23 62q-57 5 -105.5 28t-84 60.5t-55 87.5t-19.5 109q0 64 22.5 116.5t62.5 90.5t94.5 59t117.5 21q83 0 140 -37.5t90 -91.5l-90 -45q-21 35 -58 56.5
t-82 21.5q-40 0 -74 -14t-59 -39.5t-39 -60.5t-14 -77q0 -41 14 -76t39 -60.5t59 -40t74 -14.5q45 0 82.5 21.5t57.5 55.5l90 -44q-31 -51 -83 -87t-126 -41l-17 -42q16 11 36 11q29 0 48 -19t19 -50q0 -19 -8.5 -34.5t-23.5 -26t-34.5 -16.5t-41.5 -6z" />
    <glyph glyph-name="Ccircumflex.smcp" unicode="&#xf673;" horiz-adv-x="584" 
d="M413 606l-77 96l-75 -96h-66l93 144h96l96 -144h-67zM335 -12q-63 0 -117.5 21t-94.5 59t-62.5 91t-22.5 116q0 64 22.5 116.5t62.5 90.5t94.5 59t117.5 21q83 0 140 -37.5t90 -91.5l-90 -45q-21 35 -58 56.5t-82 21.5q-40 0 -74 -14t-59 -39.5t-39 -60.5t-14 -77
q0 -41 14 -76t39 -60.5t59 -40t74 -14.5q45 0 82.5 21.5t57.5 55.5l90 -44q-33 -55 -90 -92t-140 -37z" />
    <glyph glyph-name="Cdotaccent.smcp" unicode="&#xf674;" horiz-adv-x="584" 
d="M335 -12q-63 0 -117.5 21t-94.5 59t-62.5 91t-22.5 116q0 64 22.5 116.5t62.5 90.5t94.5 59t117.5 21q83 0 140 -37.5t90 -91.5l-90 -45q-21 35 -58 56.5t-82 21.5q-40 0 -74 -14t-59 -39.5t-39 -60.5t-14 -77q0 -41 14 -76t39 -60.5t59 -40t74 -14.5q45 0 82.5 21.5
t57.5 55.5l90 -44q-33 -55 -90 -92t-140 -37zM337 598q-24 0 -41.5 17t-17.5 42q0 24 17.5 41.5t41.5 17.5t41 -17.5t17 -41.5q0 -25 -17 -42t-41 -17z" />
    <glyph glyph-name="Dcaron.smcp" unicode="&#xf675;" horiz-adv-x="621" 
d="M256 606l-96 144h66l78 -97l74 97h67l-93 -144h-96zM58 0v550h217q68 0 123 -20.5t94 -57t60 -87t21 -111.5q0 -60 -21 -110.5t-59.5 -87t-93.5 -56.5t-123 -20h-218zM275 95q46 0 80.5 14t58 38.5t35.5 57t12 69.5t-11.5 70t-34.5 58t-57.5 39t-81.5 14h-109v-360h108z
" />
    <glyph glyph-name="Dcroat.smcp" unicode="&#xf676;" horiz-adv-x="631" 
d="M67 0v240h-58v71h58v239h217q68 0 123 -20.5t94 -57t60 -87t21 -111.5q0 -60 -21 -110.5t-59.5 -87t-93.5 -56.5t-123 -20h-218zM176 240v-145h108q46 0 80.5 14t58 38.5t35.5 57t12 69.5t-11.5 70t-34.5 58t-57.5 39t-81.5 14h-109v-144h122v-71h-122z" />
    <glyph glyph-name="uni1E0A.smcp" horiz-adv-x="621" 
d="M68 0v550h217q68 0 123 -20.5t94 -57t60 -87t21 -111.5q0 -60 -21 -110.5t-59.5 -87t-93.5 -56.5t-123 -20h-218zM285 95q46 0 80.5 14t58 38.5t35.5 57t12 69.5t-11.5 70t-34.5 58t-57.5 39t-81.5 14h-109v-360h108zM303 598q-24 0 -41.5 17t-17.5 42q0 24 17.5 41.5
t41.5 17.5t41 -17.5t17 -41.5q0 -25 -17 -42t-41 -17z" />
    <glyph glyph-name="Eacute.smcp" unicode="&#xf7e9;" horiz-adv-x="515" 
d="M282 606h-75l140 144h100zM68 0v550h401v-95h-292v-127h286v-95h-286v-138h292v-95h-401z" />
    <glyph glyph-name="Ebreve.smcp" unicode="&#xf677;" horiz-adv-x="515" 
d="M68 0v550h401v-95h-292v-127h286v-95h-286v-138h292v-95h-401zM444 672q-30 -41 -75.5 -64.5t-99.5 -23.5t-99.5 23.5t-76.5 64.5l48 40q22 -30 54 -48t74 -18q40 0 72.5 17.5t54.5 48.5l48 -40v0z" />
    <glyph glyph-name="Ecaron.smcp" unicode="&#xf678;" horiz-adv-x="515" 
d="M222 606l-96 144h66l78 -97l74 97h67l-93 -144h-96zM68 0v550h401v-95h-292v-127h286v-95h-286v-138h292v-95h-401z" />
    <glyph glyph-name="Ecircumflex.smcp" unicode="&#xf7ea;" horiz-adv-x="515" 
d="M344 606l-77 96l-75 -96h-66l93 144h96l96 -144h-67zM68 0v550h401v-95h-292v-127h286v-95h-286v-138h292v-95h-401z" />
    <glyph glyph-name="Edieresis.smcp" unicode="&#xf7eb;" horiz-adv-x="515" 
d="M432 658q0 -25 -17.5 -42t-41.5 -17t-41.5 17t-17.5 42q0 24 17.5 41t41.5 17t41.5 -17t17.5 -41zM222 658q0 -25 -17 -42t-41 -17q-25 0 -42 17t-17 42q0 24 17 41t42 17q24 0 41 -17t17 -41zM68 0v550h401v-95h-292v-127h286v-95h-286v-138h292v-95h-401z" />
    <glyph glyph-name="Edotaccent.smcp" unicode="&#xf679;" horiz-adv-x="515" 
d="M68 0v550h401v-95h-292v-127h286v-95h-286v-138h292v-95h-401zM269 598q-24 0 -41.5 17t-17.5 42q0 24 17.5 41.5t41.5 17.5t41 -17.5t17 -41.5q0 -25 -17 -42t-41 -17z" />
    <glyph glyph-name="Egrave.smcp" unicode="&#xf7e8;" horiz-adv-x="515" 
d="M68 0v550h401v-95h-292v-127h286v-95h-286v-138h292v-95h-401zM254 606l-165 144h100l140 -144h-75z" />
    <glyph glyph-name="Emacron.smcp" unicode="&#xf67a;" horiz-adv-x="515" 
d="M68 0v550h401v-95h-292v-127h286v-95h-286v-138h292v-95h-401zM87 616v62h363v-62h-363z" />
    <glyph glyph-name="Eogonek.smcp" unicode="&#xf67c;" horiz-adv-x="515" 
d="M528 -128q-12 -24 -34.5 -41t-57.5 -17q-38 0 -66.5 21t-28.5 68q0 28 12.5 52.5t35.5 44.5h-321v550h401v-95h-292v-127h286v-95h-286v-138h292v-95q-73 -37 -73 -93q0 -24 11.5 -35t28.5 -11q19 0 30 10.5t17 27.5z" />
    <glyph glyph-name="uni1EB8.smcp" horiz-adv-x="515" 
d="M68 0v550h401v-95h-292v-127h286v-95h-286v-138h292v-95h-401zM269 -190q-24 0 -41.5 17t-17.5 42q0 24 17.5 41.5t41.5 17.5t41 -17.5t17 -41.5q0 -25 -17 -42t-41 -17z" />
    <glyph glyph-name="uni1EBA.smcp" horiz-adv-x="515" 
d="M68 0v550h401v-95h-292v-127h286v-95h-286v-138h292v-95h-401zM192 648q8 26 28 41t49 15q30 0 53 -16.5t23 -54.5q0 -16 -4.5 -27.5t-12.5 -24.5h-48q21 22 21 50q0 18 -9 26.5t-23 8.5t-23 -8t-14 -22z" />
    <glyph glyph-name="uni1EBC.smcp" horiz-adv-x="515" 
d="M68 0v550h401v-95h-292v-127h286v-95h-286v-138h292v-95h-401zM326 604q-26 0 -42 12t-28 27t-22.5 27t-26.5 12q-17 0 -29.5 -17t-12.5 -55h-57q0 62 26 98t77 36q26 0 42 -12t28 -27t22.5 -27t26.5 -12q17 0 29 17t12 55h58q0 -62 -26 -98t-77 -36z" />
    <glyph glyph-name="uni1EBE.smcp" horiz-adv-x="515" 
d="M344 606l-77 96l-75 -96h-66l93 144h96l96 -144h-67zM446 676h-75l140 144h100zM68 0v550h401v-95h-292v-127h286v-95h-286v-138h292v-95h-401z" />
    <glyph glyph-name="uni1EC0.smcp" horiz-adv-x="515" 
d="M344 606l-77 96l-75 -96h-66l93 144h96l96 -144h-67zM68 0v550h401v-95h-292v-127h286v-95h-286v-138h292v-95h-401zM88 676l-165 144h100l140 -144h-75z" />
    <glyph glyph-name="uni1EC2.smcp" horiz-adv-x="515" 
d="M344 606l-77 96l-75 -96h-66l93 144h96l96 -144h-67zM68 0v550h401v-95h-292v-127h286v-95h-286v-138h292v-95h-401zM292 784q8 26 28 41t49 15q30 0 53 -16.5t23 -54.5q0 -16 -4.5 -27.5t-12.5 -24.5h-48q21 22 21 50q0 18 -9 26.5t-23 8.5t-23 -8t-14 -22z" />
    <glyph glyph-name="uni1EC4.smcp" horiz-adv-x="515" 
d="M344 573l-77 96l-75 -96h-66l93 144h96l96 -144h-67zM68 0v550h401v-95h-292v-127h286v-95h-286v-138h292v-95h-401zM326 732q-26 0 -42 12t-28 27t-22.5 27t-26.5 12q-17 0 -29.5 -17t-12.5 -55h-57q0 62 26 98t77 36q26 0 42 -12t28 -27t22.5 -27t26.5 -12q17 0 29 17
t12 55h58q0 -62 -26 -98t-77 -36z" />
    <glyph glyph-name="uni1EC6.smcp" horiz-adv-x="515" 
d="M344 606l-77 96l-75 -96h-66l93 144h96l96 -144h-67zM68 0v550h401v-95h-292v-127h286v-95h-286v-138h292v-95h-401zM269 -190q-24 0 -41.5 17t-17.5 42q0 24 17.5 41.5t41.5 17.5t41 -17.5t17 -41.5q0 -25 -17 -42t-41 -17z" />
    <glyph glyph-name="uni1E1E.smcp" horiz-adv-x="501" 
d="M269 598q-24 0 -41.5 17t-17.5 42q0 24 17.5 41.5t41.5 17.5t41 -17.5t17 -41.5q0 -25 -17 -42t-41 -17zM68 0v550h401v-95h-292v-127h286v-95h-286v-233h-109z" />
    <glyph glyph-name="Gbreve.smcp" unicode="&#xf67d;" horiz-adv-x="620" 
d="M337 -12q-63 0 -117.5 20.5t-95 58.5t-63.5 90.5t-23 117.5t23 118t63.5 90.5t95 58t117.5 20.5q78 0 134 -32.5t91 -78.5l-87 -53q-23 29 -58.5 48t-79.5 19q-41 0 -75 -14t-59 -39.5t-39 -60t-14 -76.5q0 -41 14 -76.5t39 -61t59 -40t75 -14.5q42 0 74 15t50 32v79
h-147v91h256v-211q-43 -46 -102 -73.5t-131 -27.5zM513 672q-30 -41 -75.5 -64.5t-99.5 -23.5t-99.5 23.5t-76.5 64.5l48 40q22 -30 54 -48t74 -18q40 0 72.5 17.5t54.5 48.5l48 -40v0z" />
    <glyph glyph-name="Gcircumflex.smcp" unicode="&#xf67e;" horiz-adv-x="620" 
d="M337 -12q-63 0 -117.5 20.5t-95 58.5t-63.5 90.5t-23 117.5t23 118t63.5 90.5t95 58t117.5 20.5q78 0 134 -32.5t91 -78.5l-87 -53q-23 29 -58.5 48t-79.5 19q-41 0 -75 -14t-59 -39.5t-39 -60t-14 -76.5q0 -41 14 -76.5t39 -61t59 -40t75 -14.5q42 0 74 15t50 32v79
h-147v91h256v-211q-43 -46 -102 -73.5t-131 -27.5zM413 606l-77 96l-75 -96h-66l93 144h96l96 -144h-67z" />
    <glyph glyph-name="Gcommaaccent.smcp" unicode="&#xf67f;" horiz-adv-x="620" 
d="M337 -12q-63 0 -117.5 20.5t-95 58.5t-63.5 90.5t-23 117.5t23 118t63.5 90.5t95 58t117.5 20.5q78 0 134 -32.5t91 -78.5l-87 -53q-23 29 -58.5 48t-79.5 19q-41 0 -75 -14t-59 -39.5t-39 -60t-14 -76.5q0 -41 14 -76.5t39 -61t59 -40t75 -14.5q42 0 74 15t50 32v79
h-147v91h256v-211q-43 -46 -102 -73.5t-131 -27.5zM396 -138q0 -44 -22 -81.5t-56 -61.5l-39 31q21 13 39 36.5t22 45.5q-4 -2 -14 -2q-20 0 -34 14t-14 37t16 39.5t39 16.5q25 0 44 -19.5t19 -55.5z" />
    <glyph glyph-name="Gdotaccent.smcp" unicode="&#xf680;" horiz-adv-x="620" 
d="M337 -12q-63 0 -117.5 20.5t-95 58.5t-63.5 90.5t-23 117.5t23 118t63.5 90.5t95 58t117.5 20.5q78 0 134 -32.5t91 -78.5l-87 -53q-23 29 -58.5 48t-79.5 19q-41 0 -75 -14t-59 -39.5t-39 -60t-14 -76.5q0 -41 14 -76.5t39 -61t59 -40t75 -14.5q42 0 74 15t50 32v79
h-147v91h256v-211q-43 -46 -102 -73.5t-131 -27.5zM338 598q-24 0 -41.5 17t-17.5 42q0 24 17.5 41.5t41.5 17.5t41 -17.5t17 -41.5q0 -25 -17 -42t-41 -17z" />
    <glyph glyph-name="Gbreve.smcp.alt1" horiz-adv-x="636" 
d="M332 -12q-61 0 -114.5 20.5t-93.5 58.5t-63 90.5t-23 117.5t23 118t63.5 90.5t95 58t117.5 20.5q78 0 134 -32.5t91 -78.5l-87 -53q-23 30 -58.5 49t-79.5 19q-41 0 -75 -14t-59 -39.5t-39 -60.5t-14 -77q0 -41 14 -76.5t39 -61t59 -40t75 -14.5q28 0 53.5 8.5t46.5 24.5
t35 39.5t20 53.5h-178v91h294q0 -75 -20 -133t-56.5 -97.5t-87.5 -60.5t-112 -21zM513 672q-30 -41 -75.5 -64.5t-99.5 -23.5t-99.5 23.5t-76.5 64.5l48 40q22 -30 54 -48t74 -18q40 0 72.5 17.5t54.5 48.5l48 -40v0z" />
    <glyph glyph-name="Gcommaaccent.smcp.alt1" horiz-adv-x="636" 
d="M396 -138q0 -44 -22 -81.5t-56 -61.5l-39 31q21 13 39 36.5t22 45.5q-4 -2 -14 -2q-20 0 -34 14t-14 37t16 39.5t39 16.5q25 0 44 -19.5t19 -55.5zM332 -12q-61 0 -114.5 20.5t-93.5 58.5t-63 90.5t-23 117.5t23 118t63.5 90.5t95 58t117.5 20.5q78 0 134 -32.5t91 -78.5
l-87 -53q-23 30 -58.5 49t-79.5 19q-41 0 -75 -14t-59 -39.5t-39 -60.5t-14 -77q0 -41 14 -76.5t39 -61t59 -40t75 -14.5q28 0 53.5 8.5t46.5 24.5t35 39.5t20 53.5h-178v91h294q0 -75 -20 -133t-56.5 -97.5t-87.5 -60.5t-112 -21z" />
    <glyph glyph-name="Gcircumflex.smcp.alt1" horiz-adv-x="636" 
d="M413 606l-77 96l-75 -96h-66l93 144h96l96 -144h-67zM332 -12q-61 0 -114.5 20.5t-93.5 58.5t-63 90.5t-23 117.5t23 118t63.5 90.5t95 58t117.5 20.5q78 0 134 -32.5t91 -78.5l-87 -53q-23 30 -58.5 49t-79.5 19q-41 0 -75 -14t-59 -39.5t-39 -60.5t-14 -77
q0 -41 14 -76.5t39 -61t59 -40t75 -14.5q28 0 53.5 8.5t46.5 24.5t35 39.5t20 53.5h-178v91h294q0 -75 -20 -133t-56.5 -97.5t-87.5 -60.5t-112 -21z" />
    <glyph glyph-name="Gdotaccent.smcp.alt1" horiz-adv-x="636" 
d="M332 -12q-61 0 -114.5 20.5t-93.5 58.5t-63 90.5t-23 117.5t23 118t63.5 90.5t95 58t117.5 20.5q78 0 134 -32.5t91 -78.5l-87 -53q-23 30 -58.5 49t-79.5 19q-41 0 -75 -14t-59 -39.5t-39 -60.5t-14 -77q0 -41 14 -76.5t39 -61t59 -40t75 -14.5q28 0 53.5 8.5t46.5 24.5
t35 39.5t20 53.5h-178v91h294q0 -75 -20 -133t-56.5 -97.5t-87.5 -60.5t-112 -21zM338 598q-24 0 -41.5 17t-17.5 42q0 24 17.5 41.5t41.5 17.5t41 -17.5t17 -41.5q0 -25 -17 -42t-41 -17z" />
    <glyph glyph-name="Hbar.smcp" unicode="&#xf682;" horiz-adv-x="661" 
d="M476 0v234h-290v-234h-109v411h-68v62h68v77h109v-77h290v77h109v-77h67v-62h-67v-411h-109zM476 329v82h-290v-82h290z" />
    <glyph glyph-name="Hcircumflex.smcp" unicode="&#xf681;" horiz-adv-x="644" 
d="M398 606l-77 96l-75 -96h-66l93 144h96l96 -144h-67zM467 0v234h-290v-234h-109v550h109v-221h290v221h109v-550h-109z" />
    <glyph glyph-name="uni1E22.smcp" horiz-adv-x="644" 
d="M467 0v234h-290v-234h-109v550h109v-221h290v221h109v-550h-109zM323 598q-24 0 -41.5 17t-17.5 42q0 24 17.5 41.5t41.5 17.5t41 -17.5t17 -41.5q0 -25 -17 -42t-41 -17z" />
    <glyph glyph-name="Iacute.smcp" unicode="&#xf7ed;" horiz-adv-x="245" 
d="M136 606h-75l140 144h100zM68 0v550h109v-550h-109z" />
    <glyph glyph-name="Ibreve.smcp" unicode="&#xf683;" horiz-adv-x="245" 
d="M68 0v550h109v-550h-109zM300 672q-30 -41 -75.5 -64.5t-99.5 -23.5t-99.5 23.5t-76.5 64.5l48 40q22 -30 54 -48t74 -18q40 0 72.5 17.5t54.5 48.5l48 -40v0z" />
    <glyph glyph-name="Igrave.smcp" unicode="&#xf7ec;" horiz-adv-x="245" 
d="M68 0v550h109v-550h-109zM109 606l-165 144h100l140 -144h-75z" />
    <glyph glyph-name="Icircumflex.smcp" unicode="&#xf7ee;" horiz-adv-x="245" 
d="M200 606l-77 96l-75 -96h-66l93 144h96l96 -144h-67zM68 0v550h109v-550h-109z" />
    <glyph glyph-name="Idieresis.smcp" unicode="&#xf7ef;" horiz-adv-x="245" 
d="M288 658q0 -25 -17.5 -42t-41.5 -17t-41.5 17t-17.5 42q0 24 17.5 41t41.5 17t41.5 -17t17.5 -41zM78 658q0 -25 -17 -42t-41 -17q-25 0 -42 17t-17 42q0 24 17 41t42 17q24 0 41 -17t17 -41zM68 0v550h109v-550h-109z" />
    <glyph glyph-name="Idotaccent.smcp" unicode="&#xf6ad;" horiz-adv-x="245" 
d="M68 0v550h109v-550h-109zM123 598q-24 0 -41.5 17t-17.5 42q0 24 17.5 41.5t41.5 17.5t41 -17.5t17 -41.5q0 -25 -17 -42t-41 -17z" />
    <glyph glyph-name="Imacron.smcp" unicode="&#xf685;" horiz-adv-x="245" 
d="M-57 616v62h363v-62h-363zM68 0v550h109v-550h-109z" />
    </font>
</defs>
</svg>
